<?xml version="1.0" encoding="UTF-8" standalone="no"?>
<svg
   xmlns:dc="http://purl.org/dc/elements/1.1/"
   xmlns:cc="http://creativecommons.org/ns#"
   xmlns:rdf="http://www.w3.org/1999/02/22-rdf-syntax-ns#"
   xmlns:svg="http://www.w3.org/2000/svg"
   xmlns="http://www.w3.org/2000/svg"
   xmlns:sodipodi="http://sodipodi.sourceforge.net/DTD/sodipodi-0.dtd"
   xmlns:inkscape="http://www.inkscape.org/namespaces/inkscape"
   version="1.1"
   id="svg2"
   xml:space="preserve"
   width="440"
   height="320"
   viewBox="0 0 440 320"
   sodipodi:docname="alelo.eps"><metadata
     id="metadata8"><rdf:RDF><cc:Work
         rdf:about=""><dc:format>image/svg+xml</dc:format><dc:type
           rdf:resource="http://purl.org/dc/dcmitype/StillImage" /></cc:Work></rdf:RDF></metadata><defs
     id="defs6" /><sodipodi:namedview
     pagecolor="#ffffff"
     bordercolor="#666666"
     borderopacity="1"
     objecttolerance="10"
     gridtolerance="10"
     guidetolerance="10"
     inkscape:pageopacity="0"
     inkscape:pageshadow="2"
     inkscape:window-width="640"
     inkscape:window-height="480"
     id="namedview4" /><g
     id="g10"
     inkscape:groupmode="layer"
     inkscape:label="ink_ext_XXXXXX"
     transform="matrix(1.3333333,0,0,-1.3333333,0,320)"><g
       id="g12"
       transform="scale(0.1)"><path
         d="M 2963.75,50 H 336.25 C 171.211,50 37.4219,185.488 37.4219,352.641 V 2047.37 c 0,167.14 133.7891,302.63 298.8281,302.63 h 2627.5 c 165.04,0 298.85,-135.49 298.85,-302.63 V 352.629 C 3262.6,185.488 3128.79,50 2963.75,50"
         style="fill:#007858;fill-opacity:1;fill-rule:nonzero;stroke:none"
         id="path14" /><path
         d="M 2963.75,50 H 336.25 C 171.211,50 37.4219,185.488 37.4219,352.641 V 2047.37 c 0,167.14 133.7891,302.63 298.8281,302.63 h 2627.5 c 165.04,0 298.85,-135.49 298.85,-302.63 V 352.629 C 3262.6,185.488 3128.79,50 2963.75,50"
         style="fill:none;stroke:#007858;stroke-width:55;stroke-linecap:round;stroke-linejoin:round;stroke-miterlimit:10;stroke-dasharray:none;stroke-opacity:1"
         id="path16" /><path
         d="m 1816.72,988.59 c -63.45,-62.449 -162.41,-72.949 -237.56,-25.219 l -72.08,-114.422 c 128.13,-80.969 296.49,-63.097 404.76,42.961 z m -129.83,466.1 c -1.74,0.03 -3.48,0.04 -5.21,0.04 -180.03,0 -328.17,-148.14 -328.17,-328.17 0,-63.57 18.47,-125.79 53.16,-179.072 l 594.38,254.072 c -34.3,145.87 -164.33,250.64 -314.16,253.13 z m -196.93,-348.41 c -0.76,6.96 -1.14,13.96 -1.14,20.96 0,105.82 87.07,192.89 192.88,192.89 56.91,0 111.01,-25.19 147.63,-68.76 z m 697.74,496.15 V 968.969 l 109.91,-45.61 -51.84,-124.539 -108.97,45.149 c -21.94,9.383 -40.59,25.109 -53.56,45.14 -14.48,23.332 -21.78,50.403 -21.01,77.84 v 635.481 z m -957.1,0 V 968.969 l 108.97,-45.61 -51.84,-124.539 -108.97,45.149 c -21.21,9.461 -39.22,24.871 -51.84,44.359 -14.54,23.313 -21.9,50.391 -21.17,77.844 v 636.258 h 124.85"
         style="fill:#ffffff;fill-opacity:1;fill-rule:nonzero;stroke:none"
         id="path18" /><path
         d="m 2728.53,1300.72 c 66.64,-32.14 109.18,-99.88 109.18,-173.87 0,-29.06 -6.57,-57.76 -19.2,-83.93 l 121.58,-58.381 c 21.24,44.291 32.26,92.781 32.26,141.891 0,180.02 -148.14,328.16 -328.17,328.16 -81.63,0 -160.39,-30.45 -220.78,-85.37 l 90.91,-99.79 c 58.15,53.18 143.29,65.62 214.22,31.29"
         style="fill:#c7d540;fill-opacity:1;fill-rule:nonzero;stroke:none"
         id="path20" /><path
         d="m 2561.17,952.469 c -95.45,45.972 -136.25,162.271 -90.45,257.801 l -121.58,58.54 c -20.92,-44.02 -31.78,-92.15 -31.78,-140.89 0,-180.029 148.14,-328.17 328.17,-328.17 81.11,0 159.42,30.078 219.68,84.379 l -90.91,99.633 c -57.98,-52.633 -142.47,-65.032 -213.13,-31.293 z m -1579.65,-9.18 v 183.391 c 0,179.34 -147.579,326.92 -326.93,326.92 -179.34,0 -326.918,-147.58 -326.918,-326.92 0,-179.352 147.578,-326.93 326.918,-326.93 50.68,0 100.68,11.781 146.031,34.41 L 748,957.141 C 719.359,941.309 687.16,933 654.441,933 c -106.07,0 -193.351,87.28 -193.351,193.35 0,0.11 0,0.22 0,0.33 -0.18,31.62 7.469,62.8 22.262,90.76 26.32,49.32 72.726,84.94 127.187,97.61 14.281,3.38 28.91,5.1 43.59,5.13 106.262,0.09 193.801,-87.24 193.973,-193.5 V 944.84 c -0.774,-27.442 6.539,-54.512 21.019,-77.828 13.051,-19.961 31.668,-35.66 53.551,-45.153 l 61.34,-24.289 51.988,124.551 -54.48,21.168"
         style="fill:#ffffff;fill-opacity:1;fill-rule:nonzero;stroke:none"
         id="path22" /></g></g></svg>
