<?xml version="1.0" encoding="UTF-8" standalone="no"?>
<svg
   xmlns:dc="http://purl.org/dc/elements/1.1/"
   xmlns:cc="http://creativecommons.org/ns#"
   xmlns:rdf="http://www.w3.org/1999/02/22-rdf-syntax-ns#"
   xmlns:svg="http://www.w3.org/2000/svg"
   xmlns="http://www.w3.org/2000/svg"
   viewBox="0 0 333.33334 333.33334"
   height="333.33334"
   width="333.33334"
   xml:space="preserve"
   id="svg2"
   version="1.1"><metadata
     id="metadata8"><rdf:RDF><cc:Work
         rdf:about=""><dc:format>image/svg+xml</dc:format><dc:type
           rdf:resource="http://purl.org/dc/dcmitype/StillImage" /></cc:Work></rdf:RDF></metadata><defs
     id="defs6" /><g
     transform="matrix(1.3333333,0,0,-1.3333333,0,333.33333)"
     id="g10"><g
       transform="scale(0.1)"
       id="g12"><path
         id="path14"
         style="fill:#e3eaf1;fill-opacity:1;fill-rule:evenodd;stroke:none"
         d="M 2500,2500 H 0 V 0 h 2500 v 2500" /><path
         id="path16"
         style="fill:#6c757d;fill-opacity:1;fill-rule:evenodd;stroke:none"
         d="m 1546.07,938.879 c 47.91,64.671 84.83,137.831 102.07,204.911 l 32.38,18.97 c 43.36,118.53 56.99,223.97 51.69,321.02 l -27.39,21.96 c 15.12,72.62 1.14,169.8 -2.82,244.21 -51.2,390.54 -852.801,390.54 -903.969,0 -3.992,-74.41 -17.953,-171.59 -2.851,-244.21 l -27.391,-21.96 c -5.301,-97.05 8.332,-202.49 51.691,-321.02 l 32.379,-18.97 c 17.27,-67.11 54.192,-140.27 102.102,-204.938 L 909.551,837.84 406.809,642.109 C 330.5,613.441 282.289,550.219 268.719,469.559 L 189.738,0 H 2310.26 l -78.95,469.559 c -13.57,80.66 -61.81,143.882 -138.1,172.55 l -502.73,195.731 -44.41,101.039" /><path
         id="path18"
         style="fill:#e3eaf1;fill-opacity:1;fill-rule:evenodd;stroke:none"
         d="m 1329.79,842.129 c 111.68,51.23 218.39,204.361 248.04,319.741 l 7.54,29.29 35.46,20.77 c 25.68,76.8 40.28,155.28 39.82,236.15 l -35.99,28.86 9.09,43.59 c 13.19,63.5 -0.3,156.04 -4.13,222.47 -43.32,302.75 -715.921,302.75 -759.241,0 -3.828,-66.43 -17.32,-158.97 -4.098,-222.47 l 9.059,-43.59 -35.988,-28.86 c -0.442,-80.87 14.168,-159.35 39.82,-236.13 l 35.476,-20.79 7.524,-29.29 c 29.699,-115.38 136.358,-268.511 248.068,-319.741 52.4,-9.719 107.12,-9.719 159.55,0" /><path
         id="path20"
         style="fill:#6c757d;fill-opacity:1;fill-rule:evenodd;stroke:none"
         d="m 1701.43,1488.98 c 7.78,35.22 10.51,112.03 5.59,153.23 -2.57,112.49 -26.88,225.68 -93.1,308.89 -37.09,46.66 -94.71,75.67 -151.12,109.79 -5.81,4.24 -13.99,4.41 -12.43,0.25 21.56,-57.17 -32.42,-15.11 -74.72,19.8 -15.56,12.83 -49.71,48.79 -69.24,68.67 -14.46,14.59 -14.24,20.42 -14.24,0.89 -0.05,-17.61 -2.05,-32.25 -5.84,-44.09 -5.29,-16.58 -20.23,-38.25 -30.79,-41.01 -9.46,-2.48 -11.27,13.51 -11.4,29.99 -0.14,22.07 2.43,58.03 -17.7,73.51 -63.24,-113.92 -79.86,-112.47 -92.9,-93.74 -7.08,10.1 -12.94,20.85 -18.65,31.63 -1.7,3.19 -3.29,3.05 -10.29,-1.7 -28.69,-19.48 -156.901,-84.37 -174.979,-98.09 -52.652,-40.09 -97.473,-120.01 -119.32,-199.4 -15.02,-54.63 -13.571,-108.69 -19.211,-150.62 -6.352,-47.38 -0.27,-126.1 5.129,-168 l 77.543,-28.67 28.437,-55.27 c 39.449,42.33 8.922,119.22 15.75,151.39 3.871,18.16 66,81.45 189.431,75.51 82.43,-4 98.34,-25.77 205.16,-16.26 100.36,8.91 212.77,30.04 257.27,-37.31 36.52,-55.33 -28.42,-137.64 29.31,-176.92 l 22.56,58.86 79.75,28.67" /><path
         id="path22"
         style="fill:#e3eaf1;fill-opacity:1;fill-rule:evenodd;stroke:none"
         d="M 2212.61,0 C 729.379,0 1768.48,0 285.25,0 l 62.949,459.43 c 8.641,51.34 36.84,91.058 86.281,109.621 l 496.79,186.668 61.761,33.633 28.259,74.25 c 39.44,-38.411 82.47,-69.411 126.07,-87.821 66.56,-13.551 136.58,-13.551 203.14,0 43.57,18.41 86.6,49.41 126.07,87.821 l 28.26,-74.25 61.79,-33.633 496.79,-186.668 c 49.41,-18.563 77.64,-58.281 86.27,-109.621 L 2212.61,0" /><path
         id="path24"
         style="fill:#6c757d;fill-opacity:1;fill-rule:evenodd;stroke:none"
         d="M 1089.94,780.289 V 577.578 l 159,85.781 158.98,-85.781 v 202.711 l -158.98,-85.758 -159,85.758" /><path
         id="path26"
         style="fill:#6c757d;fill-opacity:1;fill-rule:evenodd;stroke:none"
         d="M 1604.38,156.77 V -59.5391 c 0,-4.9023 -0.07,-7.9023 -3.52,-11.9414 -18.06,-21.1093 -100.68,-18.6406 -110.69,-31.5195 -2.82,-3.629 -3.55,-8.891 -4.1,-14.57 h 268.36 c -0.56,5.679 -1.29,10.941 -4.1,14.57 -9.99,12.8789 -92.63,10.4102 -110.68,31.5195 -3.47,4.0391 -3.54,7.0391 -3.54,11.9414 V 156.77 c 0.33,5.179 1.05,8.039 3.93,12.058 34.54,48.731 73,81.262 96.96,113.742 56.28,76.25 52.09,189.629 6.03,269.621 h -245.57 c -46.06,-79.992 -50.25,-193.371 6.03,-269.621 23.96,-32.48 62.41,-65.011 96.96,-113.742 2.89,-4.019 3.61,-6.879 3.93,-12.058 z m 40.96,442.628 v 33.711 c 0,117.301 133.75,191.653 133.93,218.243 0,59.019 0.14,122.687 0.14,181.818 -4.48,0 -7,5.58 -7,10.77 0,68.5 0,71.78 0,80.79 0,4.21 4.83,8.69 8.82,8.69 37.61,0 75.37,0 112.97,0 4.01,0 8.84,-4.53 8.84,-8.69 v -80.79 c 0,-5.13 -2.53,-10.77 -6.99,-10.77 0,-59.119 0.11,-122.799 0.11,-181.818 0.21,-26.59 133.95,-101.024 133.95,-218.243 v -735.328 c 0,-8.359 -6.91,-15.351 -15.35,-15.351 h -212.9 l -0.45,4.57 c -1.4,14.4492 -4.66,27.1797 -13.81,38.9492 -19.37,24.9727 -58.42,26.6016 -87.47,31.1602 -3.88,0.6093 -10.52,1.6093 -16.82,2.9297 V 148.09 c 13.51,18.191 28.41,34.969 43.82,51.621 16.4,17.73 33.51,35.379 47.87,54.828 67.47,91.441 64.43,224.84 8.93,321.211 l -13.59,23.648 h -125" /></g></g></svg>