<?xml version="1.0" encoding="UTF-8" standalone="no"?>
<svg
   xmlns:dc="http://purl.org/dc/elements/1.1/"
   xmlns:cc="http://creativecommons.org/ns#"
   xmlns:rdf="http://www.w3.org/1999/02/22-rdf-syntax-ns#"
   xmlns:svg="http://www.w3.org/2000/svg"
   xmlns="http://www.w3.org/2000/svg"
   viewBox="0 0 333.33334 333.33334"
   height="333.33334"
   width="333.33334"
   xml:space="preserve"
   id="svg2"
   version="1.1"><metadata
     id="metadata8"><rdf:RDF><cc:Work
         rdf:about=""><dc:format>image/svg+xml</dc:format><dc:type
           rdf:resource="http://purl.org/dc/dcmitype/StillImage" /></cc:Work></rdf:RDF></metadata><defs
     id="defs6" /><g
     transform="matrix(1.3333333,0,0,-1.3333333,0,333.33333)"
     id="g10"><g
       transform="scale(0.1)"
       id="g12"><path
         id="path14"
         style="fill:#e3eaf1;fill-opacity:1;fill-rule:evenodd;stroke:none"
         d="M 2500,2500 H 0 V 0 h 2500 v 2500" /><path
         id="path16"
         style="fill:#6c757d;fill-opacity:1;fill-rule:evenodd;stroke:none"
         d="m 1546.08,936.16 c 47.91,64.64 84.83,137.8 102.07,204.91 l 32.42,18.95 c 43.3,118.55 56.95,223.96 51.66,321.04 l -27.39,21.93 c 15.12,72.65 1.14,169.81 -2.86,244.22 -51.17,390.56 -852.769,390.56 -903.96,0 -3.969,-74.41 -17.95,-171.57 -2.829,-244.22 l -27.39,-21.93 c -5.289,-97.08 8.328,-202.49 51.66,-321.04 l 32.41,-18.95 c 17.238,-67.11 54.16,-140.3 102.109,-204.929 L 909.559,835.121 406.801,639.391 C 330.52,610.719 282.281,547.5 268.699,466.82 L 189.762,-2.73828 H 2310.24 L 2231.3,466.82 c -13.58,80.68 -61.79,143.899 -138.07,172.571 l -502.74,195.699 -44.41,101.07" /><path
         id="path18"
         style="fill:#e3eaf1;fill-opacity:1;fill-rule:evenodd;stroke:none"
         d="m 1329.77,839.379 c 111.68,51.23 218.4,204.391 248.07,319.771 l 7.52,29.29 35.48,20.77 c 25.66,76.77 40.29,155.28 39.83,236.12 l -36,28.89 9.07,43.6 c 13.22,63.49 -0.27,156.04 -4.07,222.44 -43.39,302.77 -715.951,302.77 -759.311,0 -3.828,-66.4 -17.289,-158.95 -4.07,-222.44 l 9.07,-43.6 -36,-28.89 c -0.461,-80.84 14.172,-159.35 39.821,-236.12 l 35.461,-20.77 7.55,-29.29 c 29.668,-115.38 136.359,-268.541 248.039,-319.771 52.42,-9.707 107.15,-9.707 159.54,0" /><path
         id="path20"
         style="fill:#e3eaf1;fill-opacity:1;fill-rule:evenodd;stroke:none"
         d="m 1494.61,792.449 -16.94,65.262 c -39.47,-38.441 -82.53,-69.441 -126.1,-87.883 -66.56,-13.519 -136.58,-13.519 -203.14,0 -43.57,18.442 -86.6,49.442 -126.04,87.852 l -16.97,-65.231 119.04,-117.168 h 251.08 l 119.07,117.168" /><path
         id="path22"
         style="fill:#6c757d;fill-opacity:1;fill-rule:evenodd;stroke:none"
         d="m 768.02,1474.11 c -10.211,61.65 -14.09,154.57 -11.399,196.41 16.149,251.35 269.729,331.9 512.719,318.13 76.53,-4.31 190.71,-34.8 266.37,-90.8 20.93,-10.32 28.29,-6.57 46.56,3.53 -82.1,89.85 -213.11,134.51 -310.05,139.99 -271.82,15.37 -550.329,-87.36 -568.322,-367.54 -1.988,-31.11 -0.867,-93.9 3.313,-139.62 l 3.391,-29.18 c 8.66,-45.39 -16.973,-52.67 -18.782,-79.79 -3.718,-57.38 38.41,-207.75 61.481,-271.82 l 33.828,-118.5 c 16.371,-31.35 57.25,-55.811 92.519,-55.811 120.912,0.922 162.172,0.903 286.132,1.852 2.63,-12.461 13.81,-21.91 27.01,-21.91 h 114.45 c 15.17,0 27.66,12.429 27.66,27.66 v 44.299 c 0,15.21 -12.46,27.64 -27.66,27.64 h -114.45 c -13.74,0 -25.22,-10.13 -27.31,-23.29 l -281,-1.85 c -21.011,-0.13 -41.019,11.11 -50.878,30.08 l -25.622,94.58 11.481,1.85 82.469,64.69 c 3.832,65.56 -23.782,185.71 -63.36,238.57 l -70.55,10.83" /><path
         id="path24"
         style="fill:#6c757d;fill-opacity:1;fill-rule:evenodd;stroke:none"
         d="m 795.191,1502.99 c -3.421,91.16 -9.832,194.35 11.079,284.45 3.421,14.71 55.621,123 96.21,154.63 69.411,54.19 256.89,142.49 437.88,89.91 98.49,-0.24 134.4,-26.3 215.38,-70.77 61.9,-33.96 100.83,-71.83 121.92,-131.04 44.82,-125.8 33.8,-213.08 27.18,-327.18 l -80.17,-26.3 -32.85,-99.79 -24.57,-7.12 c -7.03,47.67 12.41,176.11 -42.86,220.33 -8.63,6.92 -91.84,-29.48 -104.95,-25.63 -47.54,13.96 -84.7,29.62 -85,29.24 -25.54,-30 -34.67,-36.24 -45.04,-34.02 l -163.2,35.19 c -8.31,1.79 -25.41,5.32 -38.96,9.93 -8.66,2.96 -25.6,-31.08 -33.12,-32.6 -12.08,-2.44 -90.749,28.31 -100.909,23.26 -40.359,-20 -32.981,-179.14 -32.762,-216.03 l -24.461,8.96 -26.199,83.5 -74.598,31.08" /><path
         id="path26"
         style="fill:#e3eaf1;fill-opacity:1;fill-rule:evenodd;stroke:none"
         d="m 1875.24,-31.6797 51.06,558.1917 -32.85,56.957 H 606.57 L 573.699,526.512 624.738,-31.1914 V -250 H 1875.24 v 218.3203" /><path
         id="path28"
         style="fill:#6c757d;fill-opacity:1;fill-rule:evenodd;stroke:none"
         d="M 697.648,-94.6602 H 1802.37 c 18.71,204.4102 37.41,408.8322 56.09,613.2192 L 641.539,518.59 c 18.699,-204.418 37.41,-408.84 56.109,-613.2502 z m 0,-34.8278 H 1802.37 V -205.48 H 697.648 v 75.992" /></g></g></svg>