<?xml version="1.0" encoding="UTF-8" standalone="no"?>
<svg
   xmlns:dc="http://purl.org/dc/elements/1.1/"
   xmlns:cc="http://creativecommons.org/ns#"
   xmlns:rdf="http://www.w3.org/1999/02/22-rdf-syntax-ns#"
   xmlns:svg="http://www.w3.org/2000/svg"
   xmlns="http://www.w3.org/2000/svg"
   viewBox="0 0 333.33334 333.33334"
   height="333.33334"
   width="333.33334"
   xml:space="preserve"
   id="svg2"
   version="1.1"><metadata
     id="metadata8"><rdf:RDF><cc:Work
         rdf:about=""><dc:format>image/svg+xml</dc:format><dc:type
           rdf:resource="http://purl.org/dc/dcmitype/StillImage" /></cc:Work></rdf:RDF></metadata><defs
     id="defs6" /><g
     transform="matrix(1.3333333,0,0,-1.3333333,0,333.33333)"
     id="g10"><g
       transform="scale(0.1)"
       id="g12"><path
         id="path14"
         style="fill:#e3eaf1;fill-opacity:1;fill-rule:evenodd;stroke:none"
         d="M 2500,2500 H 0 V 0 h 2500 v 2500" /><path
         id="path16"
         style="fill:#6c757d;fill-opacity:1;fill-rule:nonzero;stroke:none"
         d="m 1771.5,1361.9 c 0,-23.21 -18.99,-42.2 -42.18,-42.2 h -434.36 c -23.18,0 -42.18,18.99 -42.18,42.2 v 259.04 c 0,23.22 19,42.21 42.18,42.21 h 434.36 c 23.19,0 42.18,-18.99 42.18,-42.21 z m -50.17,-171 h -433.44 v 28.45 h 433.44 z m 0,-83.16 h -433.44 v 28.43 h 433.44 z m -433.44,-86.73 v 28.42 h 200.63 v -28.42 z m 433.44,-155.26 h -433.44 v 28.398 h 433.44 z m 0,-83.18 h -433.44 v 28.418 h 433.44 z m -232.81,-86.742 h -200.63 v 28.442 h 200.63 z M 688.18,1892.71 1119.8,1748.69 V 607.32 L 688.18,751.328 Z m 1162.43,-77.41 h -686.1 l -499.85,166.77 c -4.691,2.03 -9.832,3.12 -15.25,3.12 -21.398,0 -38.789,-17.36 -38.789,-38.78 V 723.512 h 0.109 c 0,-16.172 10.231,-31.262 26.418,-36.672 L 1143.35,517.93 c 0,0 0.04,0 0.04,-0.02 1.66,-0.711 3.43,-1.148 5.2,-1.648 0.73,-0.184 1.4,-0.512 2.13,-0.653 2.54,-0.507 5.16,-0.8 7.86,-0.8 h 692.03 c 21.42,0 38.77,17.363 38.77,38.781 v 1222.92 c 0,21.4 -17.35,38.79 -38.77,38.79" /></g></g></svg>