<?xml version="1.0" encoding="utf-8"?>
<!-- Generator: Adobe Illustrator 15.1.0, SVG Export Plug-In . SVG Version: 6.00 Build 0)  -->
<!DOCTYPE svg PUBLIC "-//W3C//DTD SVG 1.1//EN" "http://www.w3.org/Graphics/SVG/1.1/DTD/svg11.dtd">
<svg version="1.1" id="Layer_1" xmlns="http://www.w3.org/2000/svg" xmlns:xlink="http://www.w3.org/1999/xlink" x="0px" y="0px"
	 width="330px" height="240px" viewBox="0 0 330 240" enable-background="new 0 0 330 240" xml:space="preserve">
<g>
	<path fill="#0066B2" d="M296.375,234.957H33.625c-16.505,0-29.884-13.549-29.884-30.264V35.219
		c0-16.714,13.379-30.263,29.884-30.263h262.75c16.504,0,29.884,13.549,29.884,30.263v169.474
		C326.259,221.408,312.879,234.957,296.375,234.957"/>
	<g>
		<polygon fill="#FFFFFF" points="148.489,159.39 128.229,159.39 140.892,80.577 161.154,80.577 		"/>
		<path fill="#FFFFFF" d="M111.182,80.577l-19.317,54.208l-2.285-11.672l0.003,0.004l-6.819-35.441c0,0-0.823-7.099-9.611-7.099
			H41.219l-0.374,1.334c0,0,9.77,2.057,21.193,9.011l17.604,68.47h21.11l32.237-78.814H111.182z"/>
		<path fill="#FFFFFF" d="M270.553,159.391h18.604l-16.22-78.814h-16.292c-7.521,0-9.354,5.874-9.354,5.874l-30.216,72.94h21.119
			l4.224-11.706h25.759L270.553,159.391z M248.258,131.511l10.646-29.494l5.989,29.494H248.258z"/>
		<path fill="#FFFFFF" d="M218.659,99.529l2.891-16.927c0,0-8.923-3.437-18.224-3.437c-10.054,0-33.932,4.454-33.932,26.092
			c0,20.363,28.023,20.617,28.023,31.309s-25.135,8.78-33.431,2.035l-3.014,17.695c0,0,9.046,4.451,22.873,4.451
			c13.823,0,34.687-7.253,34.687-26.982c0-20.492-28.277-22.398-28.277-31.308C190.256,93.546,209.989,94.691,218.659,99.529"/>
		<path fill="#F9A533" d="M89.582,123.117l-6.819-35.441c0,0-0.823-7.099-9.611-7.099H41.221l-0.376,1.334
			c0,0,15.35,3.222,30.074,15.29C84.99,108.737,89.582,123.117,89.582,123.117"/>
	</g>
</g>
</svg>
