<?xml version="1.0" encoding="utf-8"?>
<!-- Generator: Adobe Illustrator 15.1.0, SVG Export Plug-In . SVG Version: 6.00 Build 0)  -->
<!DOCTYPE svg PUBLIC "-//W3C//DTD SVG 1.1//EN" "http://www.w3.org/Graphics/SVG/1.1/DTD/svg11.dtd">
<svg version="1.1" id="Layer_1" xmlns="http://www.w3.org/2000/svg" xmlns:xlink="http://www.w3.org/1999/xlink" x="0px" y="0px"
	 width="330px" height="240px" viewBox="0 0 330 240" enable-background="new 0 0 330 240" xml:space="preserve">
<g>
	<path fill="#AF1C27" d="M296.374,235H33.626c-16.506,0-29.885-13.549-29.885-30.264V35.264C3.741,18.55,17.12,5,33.626,5h262.748
		c16.506,0,29.885,13.55,29.885,30.264v169.473C326.259,221.451,312.88,235,296.374,235"/>
	<path fill-rule="evenodd" clip-rule="evenodd" fill="#FFFFFF" d="M200.505,61.988c-2.404,15.846-5.129,31.377-7.844,46.895
		c-17.471,0.183-35.314,0.872-52.191-0.401c3.201-15.187,5.48-31.278,8.641-46.493h-18.818
		c-6.754,38.743-12.883,78.088-20.414,116.023h19.223c3.016-19.456,5.838-39.124,9.812-57.604
		c16.393-0.412,36.031-1.13,51.781,0.393c-3.246,19.227-7.16,37.774-10.186,57.211h19.219c6.18-39.296,12.688-78.258,20.396-116.023
		H200.505z"/>
</g>
</svg>
