<?xml version="1.0" encoding="utf-8"?>
<!-- Generator: Adobe Illustrator 15.1.0, SVG Export Plug-In . SVG Version: 6.00 Build 0)  -->
<!DOCTYPE svg PUBLIC "-//W3C//DTD SVG 1.1//EN" "http://www.w3.org/Graphics/SVG/1.1/DTD/svg11.dtd">
<svg version="1.1" id="Layer_1" xmlns="http://www.w3.org/2000/svg" xmlns:xlink="http://www.w3.org/1999/xlink" x="0px" y="0px"
	 width="330px" height="240px" viewBox="0 0 330 240" enable-background="new 0 0 330 240" xml:space="preserve">
<g>
	<path fill="#006FCF" d="M296.37,234.955H33.62c-16.506,0-29.885-13.549-29.885-30.264V35.217c0-16.714,13.379-30.263,29.885-30.263
		h262.75c16.504,0,29.883,13.549,29.883,30.263v169.474C326.252,221.406,312.874,234.955,296.37,234.955"/>
	<g>
		<defs>
			<filter id="Adobe_OpacityMaskFilter" filterUnits="userSpaceOnUse" x="3.735" y="59.478" width="322.297" height="133.649">
				<feColorMatrix  type="matrix" values="1 0 0 0 0  0 1 0 0 0  0 0 1 0 0  0 0 0 1 0"/>
			</filter>
		</defs>
		<mask maskUnits="userSpaceOnUse" x="3.735" y="59.478" width="322.297" height="133.649" id="SVGID_1_">
			<g filter="url(#Adobe_OpacityMaskFilter)">
				<rect x="3.735" y="59.478" width="322.297" height="133.649"/>
				<g enable-background="new    ">
					<rect x="3.735" y="59.481" fill="#FFFFFF" width="322.299" height="133.646"/>
				</g>
			</g>
		</mask>
		<g mask="url(#SVGID_1_)">
			<g>
				<defs>
					<rect id="SVGID_2_" x="3.737" y="59.478" width="322.289" height="133.649"/>
				</defs>
				<clipPath id="SVGID_3_">
					<use xlink:href="#SVGID_2_"  overflow="visible"/>
				</clipPath>
				<path clip-path="url(#SVGID_3_)" fill="#F7F7F7" d="M286.545,116.496h24.193V59.478h-25.822v9.118l-5.746-9.118h-22.51v11.529
					l-5.045-11.529h-37.211c-1.787,0-3.533,0.133-5.223,0.399c-1.439,0.229-2.84,0.555-4.189,0.982
					c-1.061,0.335-2.092,0.731-3.084,1.192c-1.166,0.543-2.281,1.168-3.34,1.883v-1.96v-2.497H77.125l-3.308,9.941l-3.365-9.941
					H42.195v11.65l-5.101-11.65H14.042L3.735,83.867v27.555v5.074h16.326l3.038-8.185h5.75l3.094,8.185h125.622v-8.294l6.291,8.294
					h34.713v-1.824v-2.322c0.896,0.588,1.828,1.1,2.773,1.548c0.949,0.445,1.92,0.825,2.9,1.144c1.213,0.402,2.447,0.705,3.674,0.93
					c2.004,0.368,3.998,0.525,5.893,0.525h20.773l3.039-8.185h5.748l3.092,8.185h34.824v-8.46L286.545,116.496z M326.032,189.616
					v-53.501h-2.822h-197.11l-5.1,7.306l-5.041-7.306H58.462v57.013h57.277l4.99-7.415l5.152,7.415h35.853v-12.301h-0.377
					c4.459,0,8.51-0.816,12.098-2.165v14.466h25.002v-8.29l6.293,8.29h108.48c3.121,0,6.049-0.536,8.674-1.501
					C323.379,191.084,324.762,190.408,326.032,189.616"/>
			</g>
		</g>
		<defs>
			<filter id="Adobe_OpacityMaskFilter_1_" filterUnits="userSpaceOnUse" x="67.305" y="145.396" width="258.951" height="38.453">
				<feColorMatrix  type="matrix" values="1 0 0 0 0  0 1 0 0 0  0 0 1 0 0  0 0 0 1 0"/>
			</filter>
		</defs>
		<mask maskUnits="userSpaceOnUse" x="67.305" y="145.396" width="258.951" height="38.453" id="SVGID_4_">
			<g filter="url(#Adobe_OpacityMaskFilter_1_)">
				<rect x="67.305" y="145.396" width="258.947" height="38.452"/>
				<g enable-background="new    ">
					<rect x="67.305" y="145.394" fill="#FFFFFF" width="258.949" height="38.454"/>
				</g>
			</g>
		</mask>
		<g mask="url(#SVGID_4_)">
			<g>
				<defs>
					<rect id="SVGID_5_" x="67.307" y="145.396" width="258.949" height="38.452"/>
				</defs>
				<clipPath id="SVGID_6_">
					<use xlink:href="#SVGID_5_"  overflow="visible"/>
				</clipPath>
				<path clip-path="url(#SVGID_6_)" fill="#006FCF" d="M313.452,176.157h-19.473v7.691h19.197c8.197,0,13.076-5.054,13.076-12.251
					c0-6.867-4.393-10.875-11.77-10.875h-8.787c-2.174,0-3.688-1.43-3.688-3.681c0-2.308,1.514-3.845,3.688-3.845h16.484
					l3.369-7.801h-19.584c-8.193,0-13.072,5.056-13.072,11.975c0,7.087,4.613,11.15,11.828,11.15h8.73
					c2.168,0,3.742,1.428,3.742,3.738C317.194,174.618,315.62,176.157,313.452,176.157 M277.327,176.157h-19.469v7.691h19.197
					c8.193,0,13.076-5.054,13.076-12.251c0-6.867-4.395-10.875-11.773-10.875h-8.787c-2.17,0-3.688-1.43-3.688-3.681
					c0-2.308,1.518-3.845,3.688-3.845h16.488l3.365-7.801H269.84c-8.189,0-13.072,5.056-13.072,11.975
					c0,7.087,4.613,11.15,11.828,11.15h8.73c2.168,0,3.742,1.428,3.742,3.738C281.069,174.618,279.495,176.157,277.327,176.157
					 M252.325,153.197v-7.801H221.95v38.452h30.375v-7.747h-21.264v-7.743h20.773v-7.69h-20.773v-7.471H252.325z M201.446,153.25
					c3.254,0,4.99,2.143,4.99,4.782c0,2.635-1.736,4.719-4.99,4.719h-10.688v-9.501H201.446z M190.758,170.003h4.287l11.334,13.845
					h11.336l-12.635-14.173c6.455-1.211,10.305-5.933,10.305-12.085c0-7.196-5.045-12.194-13.127-12.194h-20.611v38.452h9.111
					V170.003z M167.543,158.302c0,2.586-1.627,4.726-4.828,4.726h-10.902v-9.445h10.902
					C165.917,153.583,167.543,155.667,167.543,158.302 M142.702,145.396v38.452h9.111v-12.692h11.445
					c8.301,0,13.449-5.492,13.449-12.906c0-7.633-5.041-12.854-13.125-12.854H142.702z M129.302,183.848h11.392l-15.243-19.391
					l15.136-19.062h-11.063l-9.334,12.194l-9.271-12.194H99.525l15.188,19.225l-15.135,19.228h11.066l9.33-12.36L129.302,183.848z
					 M97.679,153.197v-7.801H67.305v38.452h30.374v-7.747H76.42v-7.743h20.772v-7.69H76.42v-7.471H97.679z"/>
			</g>
		</g>
		<path fill="#006FCF" d="M273.909,84.197l-0.109-3.186l1.898,3.186l14.535,23.016h10.635V68.759h-8.895v22.248l0.107,2.857
			l-1.68-2.857l-14.217-22.248h-11.17v38.453h8.895V84.197z M237.569,83.099l2.766-7.195l2.762,7.195l3.369,8.514h-12.207
			L237.569,83.099z M252.645,107.212h10.25l-16.213-38.453H234.69l-16.268,38.453h9.707l3.201-8.24h18.061L252.645,107.212z
			 M212.889,107.212h0.488l3.74-8.184h-2.766c-6.238,0-9.926-3.955-9.926-10.766v-0.549c0-6.098,3.307-10.658,9.818-10.658h9.871
			v-8.297h-10.629c-11.717,0-18.117,7.968-18.117,18.898v0.658C195.37,99.744,201.932,107.158,212.889,107.212 M180.506,107.212
			h9.113V90.289V68.759h-9.113V90.07V107.212z M161.36,76.617c3.254,0,4.99,2.143,4.99,4.781c0,2.636-1.736,4.722-4.99,4.722
			h-10.688v-9.503H161.36z M150.672,93.373h4.287l11.338,13.84h11.336L164.995,93.04c6.455-1.208,10.307-5.933,10.307-12.083
			c0-7.195-5.047-12.197-13.129-12.197h-20.611v38.453h9.111V93.373z M134.89,76.562v-7.803h-30.375v38.453h30.375v-7.854h-21.262
			v-7.636h20.773v-7.688h-20.773v-7.472H134.89z M59.334,80.957l-0.22-10.382l10.524,36.638h8.245l10.521-36.418L88.189,80.9v26.312
			h8.84V68.759H80.974L73.76,96.006l-7.267-27.247H50.492v38.453h8.843V80.957z M23.045,83.099l2.768-7.195l2.766,7.195l3.362,8.514
			H19.739L23.045,83.099z M38.125,107.212h10.252L32.158,68.759H20.171L3.897,107.212h9.71l3.202-8.24h18.062L38.125,107.212z"/>
	</g>
</g>
</svg>
