<?xml version="1.0" encoding="utf-8"?>
<!-- Generator: Adobe Illustrator 15.1.0, SVG Export Plug-In . SVG Version: 6.00 Build 0)  -->
<!DOCTYPE svg PUBLIC "-//W3C//DTD SVG 1.1//EN" "http://www.w3.org/Graphics/SVG/1.1/DTD/svg11.dtd">
<svg version="1.1" id="Layer_1" xmlns="http://www.w3.org/2000/svg" xmlns:xlink="http://www.w3.org/1999/xlink" x="0px" y="0px"
	 width="330px" height="240px" viewBox="0 0 330 240" enable-background="new 0 0 330 240" xml:space="preserve">
<g>
	<path fill="#36495D" d="M296.375,234.957H33.625c-16.505,0-29.884-13.549-29.884-30.264V35.219
		c0-16.714,13.379-30.263,29.884-30.263h262.75c16.504,0,29.884,13.549,29.884,30.263v169.474
		C326.259,221.408,312.879,234.957,296.375,234.957"/>
	<g>
		<rect x="137.903" y="70.653" fill="#F16522" width="54.185" height="98.605"/>
		<path fill="#E41B24" d="M141.346,119.957c0-20.004,9.25-37.82,23.652-49.303c-10.535-8.399-23.824-13.408-38.271-13.408
			c-34.198,0-61.921,28.078-61.921,62.711s27.723,62.711,61.921,62.711c14.446,0,27.735-5.01,38.271-13.408
			C150.596,157.775,141.346,139.96,141.346,119.957"/>
		<path fill="#F89E1C" d="M265.188,119.953c0,34.636-27.723,62.712-61.921,62.712c-14.446,0-27.735-5.011-38.267-13.409
			c14.402-11.48,23.648-29.299,23.648-49.303s-9.246-37.818-23.648-49.303c10.531-8.395,23.82-13.404,38.267-13.404
			C237.466,57.246,265.188,85.32,265.188,119.953 M259.28,158.812v-2.017h0.805v-0.411h-2.049v0.411h0.804v2.017H259.28z
			 M263.255,158.812v-2.431h-0.629l-0.72,1.674l-0.72-1.674h-0.63v2.431h0.44v-1.834l0.677,1.584h0.46l0.678-1.588v1.838H263.255z"
			/>
	</g>
</g>
</svg>
