<?xml version="1.0" encoding="utf-8"?>
<!-- Generator: Adobe Illustrator 15.1.0, SVG Export Plug-In . SVG Version: 6.00 Build 0)  -->
<!DOCTYPE svg PUBLIC "-//W3C//DTD SVG 1.1//EN" "http://www.w3.org/Graphics/SVG/1.1/DTD/svg11.dtd">
<svg version="1.1" id="Layer_1" xmlns="http://www.w3.org/2000/svg" xmlns:xlink="http://www.w3.org/1999/xlink" x="0px" y="0px"
	 width="330px" height="240px" viewBox="0 0 330 240" enable-background="new 0 0 330 240" xml:space="preserve">
<g>
	<path fill="#CCCCCC" d="M296.255,235H33.505c-16.504,0-29.883-13.549-29.883-30.264V35.264C3.623,18.55,17.001,5,33.505,5h262.75
		c16.504,0,29.885,13.55,29.885,30.264v169.473C326.14,221.451,312.759,235,296.255,235"/>
	<g>
		<path fill="#0069AA" d="M178.042,181.513c33.209,0.161,63.521-27.419,63.521-60.979c0-36.693-30.312-62.057-63.521-62.047h-28.58
			c-33.604-0.01-61.264,25.357-61.264,62.047c0,33.566,27.66,61.141,61.264,60.979H178.042z"/>
		<path fill="#FFFFFF" d="M162.212,153.208V86.575c13.225,5.138,22.617,18.106,22.639,33.317
			C184.83,135.102,175.437,148.062,162.212,153.208 M114.357,119.893c0.027-15.201,9.404-28.162,22.621-33.315v66.619
			C123.761,148.048,114.384,135.094,114.357,119.893 M149.599,63.574c-30.709,0.01-55.592,25.213-55.6,56.318
			c0.008,31.1,24.891,56.298,55.6,56.306c30.717-0.008,55.605-25.206,55.609-56.306C205.205,88.787,180.316,63.584,149.599,63.574"
			/>
	</g>
</g>
</svg>
