<?xml version="1.0" encoding="utf-8"?>
<!-- Generator: Adobe Illustrator 15.1.0, SVG Export Plug-In . SVG Version: 6.00 Build 0)  -->
<!DOCTYPE svg PUBLIC "-//W3C//DTD SVG 1.1//EN" "http://www.w3.org/Graphics/SVG/1.1/DTD/svg11.dtd">
<svg version="1.1" id="Layer_1" xmlns="http://www.w3.org/2000/svg" xmlns:xlink="http://www.w3.org/1999/xlink" x="0px" y="0px"
	 width="330px" height="240px" viewBox="0 0 330 240" enable-background="new 0 0 330 240" xml:space="preserve">
<g>
	<path fill="#000007" d="M296.375,235H33.625c-16.504,0-29.883-13.549-29.883-30.264V35.263C3.742,18.549,17.121,5,33.625,5h262.75
		c16.504,0,29.885,13.549,29.885,30.263v169.474C326.26,221.451,312.879,235,296.375,235"/>
	<g>
		<path fill-rule="evenodd" clip-rule="evenodd" fill="#FFFFFF" d="M103.061,84.766c20.771,0,38.191,14.557,42.865,34.16
			l-17.777,7.866l-0.012-0.034l-18.18,8.094l-43.605,19.303c-4.674-7.078-7.393-15.586-7.393-24.738
			C58.959,104.758,78.697,84.766,103.061,84.766 M121.975,112.523L77.93,131.747c-0.059-0.769-0.096-1.545-0.096-2.331
			c0-14.106,11.283-25.555,25.227-25.555C110.594,103.861,117.352,107.217,121.975,112.523"/>
		<path fill-rule="evenodd" clip-rule="evenodd" fill="#FFFFFF" d="M133.865,161.354c-15.791,15.176-36.672,16.668-55.021,5.383
			l10.361-15.959c10.445,6.312,20.945,5.287,31.469-3.092L133.865,161.354z"/>
		<path fill-rule="evenodd" clip-rule="evenodd" fill="#FFFFFF" d="M151.811,150.3l-0.113-84.436h15.809v82.156
			c0,0.79,0.096,1.483,1.115,1.89l13.744,5.409l-6.191,16.306l-16.098-6.902C153.967,162.109,151.818,158.322,151.811,150.3"/>
		<path fill-rule="evenodd" clip-rule="evenodd" fill="#009DD5" d="M211.295,148.882c-5.912-4.661-9.738-11.935-9.738-20.128
			c0-7.269,3.018-13.824,7.848-18.473l-10.193-16.742c-10.264,8.226-16.846,20.94-16.846,35.215c0,15.4,7.637,28.981,19.303,37.072
			L211.295,148.882z"/>
		<path fill-rule="evenodd" clip-rule="evenodd" fill="#F5EB3E" d="M218.211,104.773c2.666-0.966,5.52-1.5,8.508-1.5
			c10.779,0,19.971,6.866,23.562,16.504l19.541-1.656c-4.719-19.673-22.219-34.287-43.104-34.287
			c-5.895,0-11.527,1.175-16.662,3.295L218.211,104.773z"/>
		<path fill-rule="evenodd" clip-rule="evenodd" fill="#EA4224" d="M251.869,129.994c-0.639,13.502-11.658,24.252-25.141,24.252
			c-2.117,0-4.166-0.27-6.137-0.768l-7.656,17.978c4.34,1.444,8.982,2.229,13.793,2.229c23.883,0,43.354-19.121,44.314-43.083
			L251.869,129.994z"/>
	</g>
</g>
</svg>
