<?xml version="1.0" encoding="UTF-8" standalone="no"?>
<svg
   xmlns:dc="http://purl.org/dc/elements/1.1/"
   xmlns:cc="http://creativecommons.org/ns#"
   xmlns:rdf="http://www.w3.org/1999/02/22-rdf-syntax-ns#"
   xmlns:svg="http://www.w3.org/2000/svg"
   xmlns="http://www.w3.org/2000/svg"
   viewBox="0 0 333.33334 333.33334"
   height="333.33334"
   width="333.33334"
   xml:space="preserve"
   id="svg2"
   version="1.1"><metadata
     id="metadata8"><rdf:RDF><cc:Work
         rdf:about=""><dc:format>image/svg+xml</dc:format><dc:type
           rdf:resource="http://purl.org/dc/dcmitype/StillImage" /></cc:Work></rdf:RDF></metadata><defs
     id="defs6" /><g
     transform="matrix(1.3333333,0,0,-1.3333333,0,333.33333)"
     id="g10"><g
       transform="scale(0.1)"
       id="g12"><path
         id="path14"
         style="fill:#e3eaf1;fill-opacity:1;fill-rule:evenodd;stroke:none"
         d="M 2500,2500 H 0 V 0 h 2500 v 2500" /><path
         id="path16"
         style="fill:#6c757d;fill-opacity:1;fill-rule:nonzero;stroke:none"
         d="m 1135.77,930.051 c 48.11,3.527 84.3,45.359 80.77,93.409 -1.11,16.08 10.92,30.01 26.94,31.1 16.07,1.24 30.01,-10.89 31.15,-26.91 5.8,-80.021 -54.56,-149.841 -134.64,-155.689 -15.99,-1.09 -29.98,10.969 -31.1,26.961 -1.2,16.078 10.92,30.008 26.88,31.129 z m 10.52,-145.11 c 128.25,9.258 224.68,120.797 215.36,249.019 -9.2,128.25 -120.71,224.77 -248.96,215.39 C 984.441,1240.09 887.922,1128.67 897.238,1000.36 906.5,872.141 1017.98,775.621 1146.29,784.941" /><path
         id="path18"
         style="fill:#6c757d;fill-opacity:1;fill-rule:nonzero;stroke:none"
         d="m 1926.98,1615.7 c -43.58,101.73 -166.94,166.61 -356.7,187.7 -14.11,1.54 -29.16,2.11 -43.76,3.16 l 40.81,-120.31 c 133.98,-16.44 228.27,-59.51 252.58,-116.37 26.3,-61.5 -14.69,-170.54 -110.7,-296.83 -113.74,-135.79 -157.81,-282.499 -190.05,-389.722 -45.58,-151.207 -64.79,-199.648 -165.5,-212.469 -37.4,-4.699 -84.49,-3.859 -143.94,2.719 -139.25,15.473 -264.341,84.543 -352.079,194.391 -70.61,88.41 -109.61,194.581 -114.379,305.251 -11.434,-3.86 -23.371,-6.37 -35.563,-6.37 -6.148,0 -12.418,0.55 -18.668,1.6 l -6.031,1.33 c -22.5,5.16 -42.051,17.82 -57.219,34.59 -1.992,-148.21 47,-291.479 140.86,-409.03 107.257,-134.25 260.059,-218.551 430.239,-237.43 68.74,-7.601 124.81,-8.449 171.44,-2.512 h 0.06 c 180.4,22.993 218.37,148.762 262.32,294.512 30.92,102.879 69.34,230.95 169.45,350.54 129.28,169.94 171.9,309.53 126.83,415.25" /><path
         id="path20"
         style="fill:#6c757d;fill-opacity:1;fill-rule:nonzero;stroke:none"
         d="m 1307.42,1579.56 c -45.3,-15.47 -73.14,-11.61 -97.82,-8.2 -21.35,2.89 -39.9,5.46 -73.32,-5.91 -33.48,-11.37 -46.6,-24.62 -61.74,-40 -17.5,-17.58 -37.22,-37.55 -82.591,-52.99 -45.418,-15.45 -73.258,-11.59 -97.871,-8.24 -21.449,2.99 -39.848,5.49 -73.387,-5.85 -39.453,-13.42 -75.312,-37.76 -100.113,-57.25 l -18.058,53.39 c 26.992,19.7 62.128,41.26 101.128,54.56 45.364,15.27 73.141,11.5 97.641,8.18 21.383,-3.02 39.961,-5.55 73.441,5.79 33.42,11.37 46.51,24.67 61.83,40.02 17.41,17.62 37.07,37.65 82.56,53 45.45,15.38 73.32,11.58 97.75,8.17 21.45,-2.89 40.03,-5.4 73.39,5.92 39.39,13.3 75.28,37.67 100.23,57.18 l 18.06,-53.32 c -26.93,-19.67 -62.13,-41.27 -101.13,-54.45 z m -622.701,-72.66 -21.957,64.7 c 22.859,18.73 59.808,45.24 99.597,58.73 27.481,9.32 40.903,7.42 61.172,4.7 26.09,-3.65 58.66,-8.08 110,9.38 51.367,17.47 74.529,40.81 92.929,59.57 14.45,14.51 23.98,24.16 51.4,33.6 27.62,9.2 40.9,7.36 61.25,4.53 26.1,-3.5 58.55,-8.06 110.07,9.38 38.3,13.09 73.5,33.66 101.4,53.26 l 22.17,-65.24 c -26.15,-19.78 -61.74,-42.52 -100.62,-55.77 -78.9,-26.78 -92.33,12.73 -171.2,-14.11 -78.78,-26.76 -65.42,-66.15 -144.27,-92.93 -79.019,-26.82 -92.441,12.64 -171.32,-14.21 -38.879,-13.18 -74.469,-35.92 -100.621,-55.59 z m 849.341,89.83 -107.14,315.58 c -6.03,17.56 -20.69,30.68 -38.66,34.9 -17.77,3.98 -36.89,-1.36 -49.95,-14.54 -0.58,-0.57 -58.46,-57.88 -123.37,-80.05 -27.63,-9.2 -41.02,-7.39 -61.32,-4.67 -26.06,3.65 -58.6,8.14 -110,-9.32 -51.491,-17.5 -74.561,-40.75 -92.991,-59.51 -14.449,-14.48 -23.918,-24.16 -51.399,-33.48 -27.558,-9.44 -40.902,-7.51 -61.199,-4.71 -26.09,3.56 -58.633,8.02 -109.941,-9.38 -89.879,-30.46 -162.301,-103 -165.262,-106.08 -14.199,-14.42 -19.09,-35.59 -12.598,-54.65 l 107.04,-315.8 c 5.941,-17.56 20.57,-30.74 38.64,-34.93 1.031,-0.18 1.93,-0.48 2.871,-0.69 17.098,-2.87 34.86,2.71 47.199,15.23 0.54,0.57 58.45,57.97 123.481,80.14 27.508,9.32 40.93,7.51 61.168,4.73 26.121,-3.71 58.641,-8.08 110.041,9.32 51.45,17.44 74.47,40.81 93.05,59.51 14.38,14.54 23.82,24.16 51.21,33.54 27.51,9.26 40.93,7.46 61.32,4.65 26.12,-3.56 58.64,-8.05 110.12,9.38 89.71,30.52 162.07,102.94 165.02,106.02 14.21,14.39 19.22,35.53 12.67,54.81" /></g></g></svg>