<?xml version="1.0" encoding="UTF-8" standalone="no"?>
<svg
   xmlns:dc="http://purl.org/dc/elements/1.1/"
   xmlns:cc="http://creativecommons.org/ns#"
   xmlns:rdf="http://www.w3.org/1999/02/22-rdf-syntax-ns#"
   xmlns:svg="http://www.w3.org/2000/svg"
   xmlns="http://www.w3.org/2000/svg"
   viewBox="0 0 333.33334 333.33334"
   height="333.33334"
   width="333.33334"
   xml:space="preserve"
   id="svg2"
   version="1.1"><metadata
     id="metadata8"><rdf:RDF><cc:Work
         rdf:about=""><dc:format>image/svg+xml</dc:format><dc:type
           rdf:resource="http://purl.org/dc/dcmitype/StillImage" /></cc:Work></rdf:RDF></metadata><defs
     id="defs6" /><g
     transform="matrix(1.3333333,0,0,-1.3333333,0,333.33333)"
     id="g10"><g
       transform="scale(0.1)"
       id="g12"><path
         id="path14"
         style="fill:#e3eaf1;fill-opacity:1;fill-rule:evenodd;stroke:none"
         d="M 2500,2500 H 0 V 0 h 2500 v 2500" /><path
         id="path16"
         style="fill:#6c757d;fill-opacity:1;fill-rule:evenodd;stroke:none"
         d="m 1546.08,938.91 c 47.89,64.63 84.83,137.8 102.07,204.9 l 32.42,18.95 c 43.3,118.55 56.92,223.97 51.66,321.04 l -27.39,21.94 c 15.12,72.64 1.11,169.8 -2.83,244.21 -51.2,390.57 -852.799,390.57 -903.99,0 -3.969,-74.41 -17.95,-171.57 -2.829,-244.21 l -27.39,-21.94 c -5.289,-97.07 8.328,-202.49 51.66,-321.04 l 32.391,-18.95 c 17.257,-67.1 54.179,-140.29 102.128,-204.931 L 909.559,837.871 406.801,642.141 C 330.488,613.469 282.281,550.238 268.699,469.559 L 189.762,0 H 2310.24 l -78.94,469.559 c -13.55,80.679 -61.79,143.91 -138.07,172.582 l -502.74,195.699 -44.41,101.07" /><path
         id="path18"
         style="fill:#e3eaf1;fill-opacity:1;fill-rule:evenodd;stroke:none"
         d="m 1329.77,842.129 c 111.71,51.223 218.4,204.391 248.07,319.761 l 7.55,29.3 35.45,20.76 c 25.66,76.77 40.26,155.28 39.83,236.13 l -36,28.88 9.07,43.6 c 13.22,63.5 -0.27,156.04 -4.08,222.44 -43.38,302.77 -715.941,302.77 -759.301,0 -3.828,-66.4 -17.289,-158.94 -4.07,-222.44 l 9.07,-43.6 -36,-28.88 c -0.461,-80.85 14.172,-159.36 39.801,-236.13 l 35.481,-20.76 7.55,-29.3 c 29.668,-115.37 136.359,-268.538 248.039,-319.761 52.42,-9.719 107.12,-9.719 159.54,0" /><path
         id="path20"
         style="fill:#e3eaf1;fill-opacity:1;fill-rule:evenodd;stroke:none"
         d="m 1141.1,488.289 c 33.36,0 60.48,-27.09 60.48,-60.48 0,-33.387 -27.12,-60.481 -60.48,-60.481 -33.39,0 -60.48,27.094 -60.48,60.481 0,33.39 27.09,60.48 60.48,60.48 z m 0,-206.098 c 33.36,0 60.48,-27.089 60.48,-60.48 0,-33.359 -27.12,-60.461 -60.48,-60.461 -33.39,0 -60.48,27.102 -60.48,60.461 0,33.391 27.09,60.48 60.48,60.48 z m 217.83,206.098 c 33.36,0 60.48,-27.09 60.48,-60.48 0,-33.387 -27.12,-60.481 -60.48,-60.481 -33.39,0 -60.49,27.094 -60.49,60.481 0,33.39 27.1,60.48 60.49,60.48 z m 0,-206.098 c 33.36,0 60.48,-27.089 60.48,-60.48 0,-33.359 -27.12,-60.461 -60.48,-60.461 -33.39,0 -60.49,27.102 -60.49,60.461 0,33.391 27.1,60.48 60.49,60.48 z M 995.461,0 v 367.629 c 0,113.851 34.389,184.68 150.359,209.492 178.36,38.141 307.55,19.457 420.65,175.879 l 498.01,-187.359 c 49.43,-18.551 77.64,-58.262 86.27,-109.621 L 2213.68,0 Z M 286.32,0 h 631.981 v 367.629 c 0,150.961 59.16,252.223 211.559,284.793 148.52,31.769 275.92,17.406 372.24,143.558 l -24.46,64.258 c -39.44,-38.437 -82.47,-69.449 -126.04,-87.847 -66.59,-13.551 -136.58,-13.551 -203.17,0 -43.57,18.398 -86.6,49.41 -126.04,87.847 l -26.089,-68.5 c 49.729,-64.117 105.299,-89.34 170.639,-104.297 -44.25,-7.921 -85.78,-16.582 -126.64,-36.703 -39.06,21.582 -75.441,52.883 -110.269,100.723 L 435.52,565.641 C 386.109,547.09 357.91,507.379 349.27,456.02 L 286.32,0" /><path
         id="path22"
         style="fill:#6c757d;fill-opacity:1;fill-rule:evenodd;stroke:none"
         d="m 1926.41,1871.81 c 0,0 96.28,231.84 -155,293.98 -326.9,80.84 -680.43,83.71 -1009.199,8.57 C 598.27,2136.94 485.852,2014.39 584.191,1849.51 625.93,1779.57 750.859,1639.35 757.84,1568.3 l 18.422,-243.93 c 156.34,39.95 315.198,59.9 474.118,59.9 158.89,0 317.79,-19.95 474.1,-59.9 l 19.63,256.3 c 5.28,49.63 158.19,248.18 182.3,291.14" /><path
         id="path24"
         style="fill:#e3eaf1;fill-opacity:1;fill-rule:evenodd;stroke:none"
         d="m 847.699,1575.08 c -1.929,20.12 -3.379,30.19 15.52,34.53 129.16,31.1 258.201,46.11 387.161,45.71 130.97,-0.37 262.03,-16.63 393.15,-47.89 9.7,-3.04 11.09,-9.76 10.84,-18.53 l -10.5,-136.65 c -0.8,-10.07 -7.15,-15.24 -16.88,-13.79 -124.03,23.78 -250.12,35.89 -376.61,35.89 -125.78,0 -251.142,-11.97 -374.482,-35.49 -10.918,-2.07 -17.617,1.56 -18.859,12.57 z m 1005.651,414.37 c -7.8,54.73 -54.25,76.64 -103.59,88.87 -313.59,77.54 -652.57,80.15 -967.49,8.23 -48.461,-11.13 -118.032,-39.5 -138.918,-89.16 -14.352,-34.1 0.488,-71.95 18.25,-101.72 43.687,-73.26 126.007,-159.57 165.097,-246.34 24.039,6.16 48.102,11.78 72.129,16.86 12.742,2.38 20,9.7 17.281,25.34 -18.05,82.42 -55.359,257.69 -52.949,286.77 3.211,38.25 18.621,69.86 18.621,69.86 12.879,-121.98 66.508,-246.71 95.84,-367.19 29.799,4.82 59.619,8.83 89.409,12.06 17.14,1.79 17.93,9.36 16.46,20.83 -12.4,80.41 -39.33,261.52 -34.93,291.11 5.67,38.28 23.12,69.91 23.12,69.91 4.94,-122 50.45,-246.73 71.96,-367.18 0.62,-3.55 0.71,-4.85 2.3,-8.09 23.38,1.42 46.81,2.3 70.22,2.73 11.89,0.82 18.7,2.41 21.4,16.71 19.89,116.93 60.29,237.66 62.73,355.83 0,0 18.07,-31.63 24.52,-69.91 5.27,-31.18 -20.86,-230.42 -30.73,-303.09 23.35,-0.68 46.64,-1.81 69.94,-3.46 11.55,-0.99 20.09,1.45 23.63,14.84 39.56,111.23 101.3,226.22 123.85,338.73 0,0 12.8,-29.82 12.8,-65.89 0,-30.81 -65.57,-235.53 -84.72,-294.69 22.07,-2.52 44.15,-5.47 66.19,-8.88 13.82,-1.84 22.62,2.84 27.5,12.74 63.13,108.11 146.09,219.56 191.72,328.65 0,0 6.3,-29.82 -1.56,-65.91 -6.47,-29.73 -109.33,-221.63 -145.25,-288.05 27.01,-5.28 54.06,-11.18 81.07,-17.67 12.68,-2.53 16.06,0.28 22.27,13.08 22.41,42.93 53.51,86.85 73.94,116.67 19.72,28.77 39.87,57.2 59.87,85.8 29.2,41.68 46.02,65.86 38.02,121.61" /></g></g></svg>