<?xml version="1.0" encoding="UTF-8" standalone="no"?>
<svg
   xmlns:dc="http://purl.org/dc/elements/1.1/"
   xmlns:cc="http://creativecommons.org/ns#"
   xmlns:rdf="http://www.w3.org/1999/02/22-rdf-syntax-ns#"
   xmlns:svg="http://www.w3.org/2000/svg"
   xmlns="http://www.w3.org/2000/svg"
   viewBox="0 0 333.33334 333.33334"
   height="333.33334"
   width="333.33334"
   xml:space="preserve"
   id="svg2"
   version="1.1"><metadata
     id="metadata8"><rdf:RDF><cc:Work
         rdf:about=""><dc:format>image/svg+xml</dc:format><dc:type
           rdf:resource="http://purl.org/dc/dcmitype/StillImage" /></cc:Work></rdf:RDF></metadata><defs
     id="defs6" /><g
     transform="matrix(1.3333333,0,0,-1.3333333,0,333.33333)"
     id="g10"><g
       transform="scale(0.1)"
       id="g12"><path
         id="path14"
         style="fill:#e3eaf1;fill-opacity:1;fill-rule:evenodd;stroke:none"
         d="M 2500,2500 H 0 V 0 h 2500 v 2500" /><path
         id="path16"
         style="fill:#6c757d;fill-opacity:1;fill-rule:nonzero;stroke:none"
         d="m 986.91,789.391 c 5.781,5.808 9.809,13.379 10.5,19.738 0.27,2.391 0,3.902 -0.211,4.562 -0.469,0.149 -1.5,0.379 -3.269,0.297 -0.43,-0.019 -0.879,-0.058 -1.321,-0.109 -6.339,-0.738 -13.871,-4.809 -19.64,-10.617 -8.418,-8.461 -19.66,-13.403 -31.668,-13.942 l -1.512,-0.039 c -12.75,-0.062 -24.988,4.969 -33.84,13.778 l -53.879,53.519 c -8.968,8.91 -13.941,20.793 -13.992,33.453 -0.047,12.66 4.844,24.578 13.774,33.559 5.769,5.801 9.777,13.359 10.488,19.73 0.269,2.391 -0.012,3.899 -0.219,4.559 -0.461,0.152 -1.473,0.383 -3.211,0.312 -0.43,-0.019 -0.859,-0.05 -1.301,-0.113 -6.41,-0.75 -13.949,-4.816 -19.718,-10.629 -8.422,-8.469 -19.563,-13.41 -31.379,-13.929 -0.774,-0.04 -1.543,-0.059 -2.301,-0.059 -12.441,-0.039 -24.371,4.848 -33.34,13.789 l -53.121,52.762 c -8.988,8.918 -13.949,20.808 -13.988,33.458 -0.043,12.66 4.84,24.58 13.769,33.56 l 726.829,731.63 3.85,9.51 -12.64,12.56 c -3.68,3.65 -8.67,5.69 -13.84,5.68 -5.23,0.07 -10.16,-2.09 -13.81,-5.77 -10.29,-10.37 -23.47,-17.16 -36.17,-18.65 -11.21,-1.33 -20.97,1.53 -27.5,8.01 -6.53,6.49 -9.44,16.24 -8.2,27.45 1.41,12.7 8.12,25.93 18.42,36.29 7.6,7.66 7.56,20.03 -0.09,27.64 l -53.12,52.77 -0.02,0.02 c -7.66,7.6 -20.04,7.57 -27.64,-0.09 L 372.199,1036.73 c -7.609,-7.66 -7.558,-20.04 0.09,-27.64 l 0.02,-0.01 53.121,-52.779 c 3.679,-3.653 8.648,-5.692 13.84,-5.672 5.14,-0.008 10.14,2.09 13.8,5.762 20.02,20.16 49.18,25.019 63.668,10.64 14.481,-14.402 9.813,-43.59 -10.207,-63.742 -7.609,-7.66 -7.57,-20.039 0.09,-27.641 l 53.891,-53.539 c 3.668,-3.648 8.66,-5.699 13.828,-5.668 5.25,-0.031 10.148,2.09 13.808,5.77 10.293,10.348 23.473,17.16 36.161,18.648 11.191,1.332 20.972,-1.539 27.5,-8.031 14.492,-14.387 9.812,-43.578 -10.207,-63.726 -7.614,-7.661 -7.571,-20.043 0.089,-27.641 l 53.887,-53.551 c 3.684,-3.64 8.66,-5.691 13.844,-5.66 5.207,-0.02 10.137,2.09 13.797,5.762 10.301,10.367 23.48,17.168 36.172,18.66 11.23,1.289 20.968,-1.543 27.5,-8.024 14.488,-14.398 9.808,-43.589 -10.211,-63.738 -7.61,-7.66 -7.571,-20.039 0.09,-27.64 l 53.109,-52.77 c 4.043,-4.02 9.391,-5.898 14.66,-5.66 4.723,0.211 9.391,2.129 12.992,5.75 0.039,0.039 0.071,0.101 0.117,0.14 l 147.102,148.079 0.6,1.492 -18.209,18.09 c -18.52,18.39 -18.629,48.461 -0.231,67" /><path
         id="path18"
         style="fill:#6c757d;fill-opacity:1;fill-rule:nonzero;stroke:none"
         d="m 1761.06,1492.88 c 0,5.39 2.06,10.44 6.22,14.64 2.72,2.73 6.11,4.58 9.81,5.41 1.43,0.31 2.88,0.48 4.38,0.49 5.38,0.01 10.43,-2.05 14.22,-5.81 l 4.46,-4.43 c 3.78,-3.77 5.88,-8.8 5.9,-14.19 0.02,-5.38 -2.05,-10.43 -6.21,-14.63 -7.81,-7.84 -20.55,-7.89 -28.42,-0.09 l -4.45,4.43 c -3.78,3.76 -5.88,8.8 -5.91,14.18 z m 57.17,-56.77 c -0.02,5.38 2.04,10.43 5.8,14.21 l 0.41,0.42 c 2.8,2.81 6.23,4.62 9.86,5.43 6.46,1.44 13.51,-0.34 18.56,-5.34 l 4.45,-4.43 c 7.86,-7.8 7.9,-20.55 -0.31,-28.82 -3.76,-3.79 -8.8,-5.89 -14.19,-5.9 -5.38,-0.01 -10.43,2.05 -14.22,5.81 l -4.46,4.43 c -3.79,3.76 -5.89,8.8 -5.9,14.19 z m 57.15,-56.79 c -0.01,5.39 2.05,10.44 5.82,14.22 l 0.4,0.41 c 2.72,2.74 6.1,4.59 9.8,5.42 1.43,0.32 2.89,0.48 4.39,0.48 5.38,0.02 10.43,-2.04 14.22,-5.8 l 4.45,-4.43 c 3.79,-3.76 5.89,-8.8 5.9,-14.18 0.02,-5.39 -2.05,-10.44 -6.2,-14.64 -3.77,-3.8 -8.8,-5.86 -14.19,-5.9 -5.39,-0.02 -10.44,2.04 -14.23,5.81 l -4.45,4.43 c -3.79,3.76 -5.89,8.79 -5.91,14.18 z m -285.78,283.91 c -0.01,5.38 2.05,10.43 5.81,14.22 l 0.41,0.41 c 2.72,2.74 6.11,4.59 9.8,5.41 1.42,0.32 2.89,0.49 4.39,0.49 5.38,0.02 10.44,-2.04 14.22,-5.81 l 4.46,-4.42 c 7.85,-7.81 7.9,-20.55 -0.31,-28.82 -7.82,-7.86 -20.55,-7.9 -28.42,-0.09 l -4.46,4.42 c -3.78,3.76 -5.88,8.81 -5.9,14.19 z m -12.17,52.89 c 0.02,-5.38 -2.05,-10.44 -5.81,-14.22 l -0.41,-0.41 v -0.01 c -7.82,-7.85 -20.54,-7.89 -28.41,-0.09 l -4.45,4.43 c -7.85,7.81 -7.9,20.56 0.31,28.83 2.72,2.72 6.1,4.58 9.81,5.4 1.41,0.32 2.88,0.49 4.38,0.5 5.38,0.01 10.43,-2.05 14.22,-5.82 l 4.45,-4.42 c 3.79,-3.77 5.89,-8.81 5.91,-14.19 z m -3.5,-17.32 v -0.01 z M 1249.71,969.328 c -0.02,4.203 1.61,8.16 4.56,11.141 l 368.48,370.911 c 2.19,2.21 4.88,3.63 7.71,4.26 5.07,1.13 10.59,-0.27 14.54,-4.19 2.98,-2.95 4.63,-6.89 4.63,-11.09 0.02,-4.2 -1.6,-8.16 -4.56,-11.15 L 1276.59,958.301 c -2.79,-2.813 -6.5,-4.442 -10.45,-4.629 -4.39,-0.192 -8.69,1.469 -11.79,4.547 -2.99,2.961 -4.64,6.91 -4.64,11.109 z m 397.05,637.122 c -0.02,5.38 2.05,10.43 5.81,14.22 l 0.41,0.4 c 2.72,2.75 6.1,4.6 9.81,5.43 1.41,0.31 2.87,0.48 4.37,0.48 5.38,0.02 10.43,-2.05 14.22,-5.81 l 4.46,-4.42 c 7.86,-7.81 7.9,-20.55 -0.32,-28.82 -3.75,-3.78 -8.77,-5.89 -14.17,-5.9 -5.39,-0.02 -10.44,2.04 -14.23,5.8 l -4.45,4.44 c -3.79,3.75 -5.89,8.79 -5.91,14.18 z m 95.93,-75.3 c -7.82,-7.86 -20.56,-7.91 -28.42,-0.1 l -4.46,4.43 c -7.85,7.81 -7.89,20.55 -0.09,28.41 l 0.4,0.41 c 2.81,2.81 6.25,4.63 9.86,5.43 6.48,1.45 13.52,-0.33 18.56,-5.34 l 4.46,-4.43 c 7.85,-7.81 7.9,-20.55 -0.31,-28.81 z m -318.14,-38.48 42.6,-11.42 36.86,24.66 1.86,-44.06 34.49,-27.22 -41.42,-15.86 -15.59,-41.53 -27.45,34.32 -44.07,1.57 24.41,37.03 z m -156.44,-157.46 42.6,-11.42 36.86,24.66 1.86,-44.06 34.5,-27.22 -41.42,-15.87 -15.59,-41.51 -27.45,34.31 -44.07,1.56 24.41,37.03 z m -156.43,-157.47 42.6,-11.4 36.86,24.64 1.86,-44.06 34.5,-27.21 -41.42,-15.87 -15.59,-41.52 -27.45,34.32 -44.07,1.56 24.41,37.03 z m 529.48,-0.34 -212.78,-214.201 c -2.79,-2.789 -6.51,-4.429 -10.45,-4.621 -4.45,-0.199 -8.64,1.434 -11.8,4.563 -6.15,6.109 -6.18,16.089 -0.07,22.238 l 212.79,214.191 c 2.19,2.21 4.88,3.62 7.71,4.25 5.06,1.13 10.58,-0.26 14.53,-4.18 6.15,-6.12 6.18,-16.09 0.07,-22.24 z m 488.43,311.91 c -0.87,1.31 -1.88,2.54 -3.04,3.7 l -53.07,52.72 c -4.37,4.34 -10.4,6.82 -16.49,6.79 -6.12,0.07 -12.14,-2.44 -16.56,-6.89 -18.56,-18.68 -45.24,-23.55 -58.27,-10.62 -5.68,5.66 -8.2,14.29 -7.08,24.33 1.31,11.85 7.62,24.25 17.32,34.01 4.34,4.37 6.81,10.39 6.79,16.55 -0.02,6.24 -2.48,12.1 -6.9,16.49 l -53.89,53.53 c -4.43,4.4 -10.3,6.82 -16.55,6.79 -6.26,-0.04 -12.11,-2.48 -16.48,-6.89 -18.58,-18.69 -45.27,-23.54 -58.28,-10.62 -13.01,12.93 -8.33,39.65 10.24,58.34 9.07,9.14 9.02,23.96 -0.11,33.04 l -53.9,53.53 c -4.35,4.34 -10.39,6.82 -16.49,6.79 -6.21,0.06 -12.06,-2.38 -16.54,-6.9 -9.7,-9.75 -22.11,-16.14 -33.9,-17.54 -10.02,-1.19 -18.68,1.27 -24.37,6.93 -13.02,12.94 -8.33,39.65 10.22,58.33 4.4,4.43 6.81,10.31 6.79,16.55 -0.01,6.24 -2.46,12.1 -6.9,16.5 l -53.11,52.77 -0.33,0.32 c -0.5,0.45 -1.01,0.85 -1.52,1.24 l -0.73,0.57 c -0.35,0.3 -0.71,0.6 -1.09,0.85 -9.24,6.06 -21.6,4.77 -29.39,-3.07 L 734.57,1040.1 c -9.082,-9.14 -9.031,-23.97 0.121,-33.06 l 53.129,-52.77 c 4.36,-4.34 10.379,-6.809 16.508,-6.782 6.094,-0.027 12.152,2.492 16.524,6.891 9.687,9.762 22.027,16.133 33.91,17.551 10,1.191 18.66,-1.258 24.359,-6.93 5.688,-5.648 8.207,-14.289 7.098,-24.32 -1.321,-11.852 -7.629,-24.25 -17.328,-34.02 -9.082,-9.14 -9.032,-23.969 0.109,-33.051 l 53.891,-53.531 c 4.418,-4.387 10.3,-6.808 16.578,-6.777 6.25,0.078 12.109,2.508 16.461,6.89 9.691,9.77 22.058,16.168 33.898,17.547 10.031,1.16 18.692,-1.289 24.372,-6.929 5.68,-5.649 8.2,-14.289 7.1,-24.321 -1.32,-11.859 -7.65,-24.25 -17.33,-34.019 -9.079,-9.141 -9.029,-23.969 0.1,-33.039 l 53.89,-53.539 c 4.36,-4.321 10.39,-6.801 16.51,-6.789 6.14,-0.012 12.15,2.5 16.54,6.898 9.68,9.77 22.03,16.148 33.9,17.551 10.03,1.168 18.68,-1.281 24.37,-6.93 5.68,-5.652 8.2,-14.281 7.09,-24.32 -1.32,-11.852 -7.63,-24.262 -17.33,-34.02 -4.4,-4.429 -6.81,-10.301 -6.79,-16.543 0.02,-6.25 2.47,-12.097 6.9,-16.5 l 53.12,-52.777 c 4.62,-4.582 11.01,-7.051 17.5,-6.762 1.37,0.063 2.72,0.242 4.03,0.531 4.35,0.969 8.36,3.18 11.65,6.508 l 901.26,907.182 c 7.79,7.85 9,20.21 2.88,29.39" /></g></g></svg>