<?xml version="1.0" encoding="UTF-8" standalone="no"?>
<svg
   xmlns:dc="http://purl.org/dc/elements/1.1/"
   xmlns:cc="http://creativecommons.org/ns#"
   xmlns:rdf="http://www.w3.org/1999/02/22-rdf-syntax-ns#"
   xmlns:svg="http://www.w3.org/2000/svg"
   xmlns="http://www.w3.org/2000/svg"
   xmlns:sodipodi="http://sodipodi.sourceforge.net/DTD/sodipodi-0.dtd"
   xmlns:inkscape="http://www.inkscape.org/namespaces/inkscape"
   version="1.1"
   id="svg2"
   xml:space="preserve"
   width="333.33334"
   height="333.33334"
   viewBox="0 0 333.33334 333.33334"
   sodipodi:docname="display.eps"><metadata
     id="metadata8"><rdf:RDF><cc:Work
         rdf:about=""><dc:format>image/svg+xml</dc:format><dc:type
           rdf:resource="http://purl.org/dc/dcmitype/StillImage" /></cc:Work></rdf:RDF></metadata><defs
     id="defs6" /><sodipodi:namedview
     pagecolor="#ffffff"
     bordercolor="#666666"
     borderopacity="1"
     objecttolerance="10"
     gridtolerance="10"
     guidetolerance="10"
     inkscape:pageopacity="0"
     inkscape:pageshadow="2"
     inkscape:window-width="640"
     inkscape:window-height="480"
     id="namedview4" /><g
     id="g10"
     inkscape:groupmode="layer"
     inkscape:label="ink_ext_XXXXXX"
     transform="matrix(1.3333333,0,0,-1.3333333,0,333.33333)"><g
       id="g12"
       transform="scale(0.1)"><path
         d="M 2500,2500 H 0 V 0 h 2500 v 2500"
         style="fill:#e3eaf1;fill-opacity:1;fill-rule:evenodd;stroke:none"
         id="path14" /><path
         d="M 1948.48,1830 H 551.52 V 670 h 1396.96 z"
         style="fill:none;stroke:#6c757d;stroke-width:55;stroke-linecap:round;stroke-linejoin:round;stroke-miterlimit:10;stroke-dasharray:none;stroke-opacity:1"
         id="path16" /><path
         d="m 748.672,1441.66 c 24.957,0 44.469,-8.91 58.539,-26.72 16.75,-21.09 25.129,-56.07 25.129,-104.94 0,-48.75 -8.43,-83.79 -25.309,-105.12 -13.941,-17.58 -33.402,-26.36 -58.359,-26.36 -25.082,0 -45.293,9.63 -60.641,28.91 -15.351,19.28 -23.031,53.64 -23.031,103.1 0,48.51 8.441,83.43 25.309,104.76 13.953,17.58 33.402,26.37 58.363,26.37 z m 0,-40.96 c -5.973,0 -11.313,-1.9 -15.992,-5.71 -4.692,-3.81 -8.321,-10.63 -10.899,-20.48 -3.402,-12.77 -5.101,-34.28 -5.101,-64.51 0,-30.23 1.519,-51.01 4.57,-62.31 3.051,-11.31 6.879,-18.84 11.512,-22.59 4.629,-3.75 9.937,-5.63 15.91,-5.63 5.976,0 11.308,1.91 16,5.72 4.687,3.8 8.316,10.63 10.898,20.47 3.391,12.66 5.09,34.11 5.09,64.34 0,30.23 -1.519,51.01 -4.57,62.31 -3.039,11.31 -6.879,18.87 -11.512,22.68 -4.629,3.81 -9.93,5.71 -15.906,5.71"
         style="fill:#6c757d;fill-opacity:1;fill-rule:nonzero;stroke:none"
         id="path18" /><path
         d="m 948.891,1441.66 c 24.961,0 44.468,-8.91 58.529,-26.72 16.76,-21.09 25.14,-56.07 25.14,-104.94 0,-48.75 -8.44,-83.79 -25.31,-105.12 -13.949,-17.58 -33.398,-26.36 -58.359,-26.36 -25.082,0 -45.301,9.63 -60.653,28.91 -15.347,19.28 -23.027,53.64 -23.027,103.1 0,48.51 8.437,83.43 25.32,104.76 13.938,17.58 33.399,26.37 58.36,26.37 z m 0,-40.96 c -5.981,0 -11.313,-1.9 -16,-5.71 -4.692,-3.81 -8.321,-10.63 -10.903,-20.48 -3.398,-12.77 -5.097,-34.28 -5.097,-64.51 0,-30.23 1.531,-51.01 4.57,-62.31 3.051,-11.31 6.891,-18.84 11.519,-22.59 4.629,-3.75 9.93,-5.63 15.911,-5.63 5.968,0 11.308,1.91 15.988,5.72 4.691,3.8 8.32,10.63 10.902,20.47 3.399,12.66 5.098,34.11 5.098,64.34 0,30.23 -1.52,51.01 -4.57,62.31 -3.047,11.31 -6.887,18.87 -11.52,22.68 -4.617,3.81 -9.93,5.71 -15.898,5.71"
         style="fill:#6c757d;fill-opacity:1;fill-rule:nonzero;stroke:none"
         id="path20" /><path
         d="m 1149.1,1441.66 c 24.96,0 44.47,-8.91 58.54,-26.72 16.75,-21.09 25.13,-56.07 25.13,-104.94 0,-48.75 -8.43,-83.79 -25.31,-105.12 -13.94,-17.58 -33.4,-26.36 -58.36,-26.36 -25.08,0 -45.29,9.63 -60.64,28.91 -15.35,19.28 -23.03,53.64 -23.03,103.1 0,48.51 8.44,83.43 25.31,104.76 13.95,17.58 33.4,26.37 58.36,26.37 z m 0,-40.96 c -5.98,0 -11.31,-1.9 -15.99,-5.71 -4.69,-3.81 -8.32,-10.63 -10.9,-20.48 -3.4,-12.77 -5.1,-34.28 -5.1,-64.51 0,-30.23 1.52,-51.01 4.57,-62.31 3.05,-11.31 6.88,-18.84 11.51,-22.59 4.63,-3.75 9.93,-5.63 15.91,-5.63 5.98,0 11.31,1.91 16,5.72 4.69,3.8 8.32,10.63 10.9,20.47 3.39,12.66 5.09,34.11 5.09,64.34 0,30.23 -1.52,51.01 -4.57,62.31 -3.04,11.31 -6.88,18.87 -11.51,22.68 -4.63,3.81 -9.93,5.71 -15.91,5.71"
         style="fill:#6c757d;fill-opacity:1;fill-rule:nonzero;stroke:none"
         id="path22" /><path
         d="m 1265.82,1391.21 v 45.88 h 168.93 v -35.86 c -13.95,-13.71 -28.13,-33.4 -42.54,-59.06 -14.42,-25.67 -25.4,-52.94 -32.96,-81.83 -7.56,-28.88 -11.28,-54.7 -11.16,-77.43 h -47.64 c 0.82,35.63 8.17,71.95 22.06,108.98 13.89,37.04 32.43,70.14 55.63,99.32 h -112.32"
         style="fill:#6c757d;fill-opacity:1;fill-rule:nonzero;stroke:none"
         id="path24" /><path
         d="m 1562.89,1182.91 v 51.86 h -105.47 v 43.24 l 111.8,163.65 h 41.48 v -163.48 h 32 v -43.41 h -32 v -51.86 z m 0,95.27 v 88.07 l -59.24,-88.07 h 59.24"
         style="fill:#6c757d;fill-opacity:1;fill-rule:nonzero;stroke:none"
         id="path26" /><path
         d="m 1708.61,1321.95 c -12.77,5.39 -22.06,12.81 -27.86,22.24 -5.8,9.43 -8.7,19.77 -8.7,31.02 0,19.22 6.71,35.1 20.13,47.64 13.42,12.54 32.49,18.81 57.21,18.81 24.5,0 43.51,-6.27 57.05,-18.81 13.53,-12.54 20.3,-28.42 20.3,-47.64 0,-11.95 -3.11,-22.58 -9.32,-31.9 -6.21,-9.32 -14.94,-16.43 -26.19,-21.36 14.3,-5.74 25.17,-14.12 32.61,-25.13 7.44,-11.02 11.16,-23.73 11.16,-38.15 0,-23.79 -7.59,-43.12 -22.76,-58.01 -15.18,-14.88 -35.36,-22.32 -60.56,-22.32 -23.44,0 -42.95,6.15 -58.54,18.46 -18.39,14.53 -27.59,34.45 -27.59,59.76 0,13.95 3.45,26.75 10.37,38.41 6.91,11.66 17.81,20.66 32.69,26.98 z m 10.2,49.75 c 0,-9.84 2.78,-17.52 8.35,-23.03 5.56,-5.51 12.98,-8.26 22.23,-8.26 9.38,0 16.88,2.78 22.5,8.35 5.63,5.57 8.44,13.27 8.44,23.12 0,9.25 -2.78,16.66 -8.35,22.23 -5.56,5.57 -12.92,8.35 -22.06,8.35 -9.49,0 -17.05,-2.81 -22.67,-8.44 -5.63,-5.62 -8.44,-13.06 -8.44,-22.32 z m -4.57,-110.39 c 0,-13.6 3.48,-24.2 10.46,-31.82 6.97,-7.61 15.67,-11.42 26.1,-11.42 10.2,0 18.63,3.66 25.31,10.98 6.68,7.33 10.02,17.9 10.02,31.73 0,12.07 -3.4,21.77 -10.19,29.09 -6.8,7.33 -15.41,10.99 -25.84,10.99 -12.07,0 -21.07,-4.16 -26.98,-12.48 -5.92,-8.32 -8.88,-17.34 -8.88,-27.07"
         style="fill:#6c757d;fill-opacity:1;fill-rule:nonzero;stroke:none"
         id="path28" /><path
         d="m 794.25,1044.28 c 6.238,0 11.121,-2.23 14.629,-6.68 4.191,-5.28 6.293,-14.02 6.293,-26.24 0,-12.188 -2.113,-20.938 -6.332,-26.282 -3.488,-4.387 -8.352,-6.59 -14.59,-6.59 -6.27,0 -11.32,2.41 -15.16,7.231 -3.84,4.82 -5.762,13.41 -5.762,25.771 0,12.13 2.113,20.86 6.332,26.2 3.488,4.39 8.352,6.59 14.59,6.59 z m 0,-10.24 c -1.488,0 -2.828,-0.48 -4,-1.43 -1.172,-0.95 -2.078,-2.66 -2.719,-5.12 -0.851,-3.19 -1.281,-8.57 -1.281,-16.13 0,-7.56 0.379,-12.751 1.148,-15.579 0.762,-2.82 1.723,-4.711 2.872,-5.64 1.16,-0.942 2.492,-1.411 3.98,-1.411 1.488,0 2.828,0.481 4,1.43 1.172,0.949 2.078,2.66 2.719,5.121 0.851,3.16 1.281,8.519 1.281,16.079 0,7.56 -0.379,12.75 -1.141,15.58 -0.769,2.83 -1.73,4.72 -2.879,5.67 -1.16,0.95 -2.492,1.43 -3.98,1.43"
         style="fill:#6c757d;fill-opacity:1;fill-rule:nonzero;stroke:none"
         id="path30" /><path
         d="m 844.301,1044.28 c 6.238,0 11.121,-2.23 14.64,-6.68 4.188,-5.28 6.278,-14.02 6.278,-26.24 0,-12.188 -2.11,-20.938 -6.328,-26.282 -3.481,-4.387 -8.352,-6.59 -14.59,-6.59 -6.27,0 -11.321,2.41 -15.16,7.231 -3.832,4.82 -5.75,13.41 -5.75,25.771 0,12.13 2.109,20.86 6.32,26.2 3.488,4.39 8.348,6.59 14.59,6.59 z m 0,-10.24 c -1.492,0 -2.821,-0.48 -3.992,-1.43 -1.18,-0.95 -2.079,-2.66 -2.731,-5.12 -0.848,-3.19 -1.269,-8.57 -1.269,-16.13 0,-7.56 0.382,-12.751 1.14,-15.579 0.762,-2.82 1.723,-4.711 2.879,-5.64 1.152,-0.942 2.481,-1.411 3.973,-1.411 1.5,0 2.828,0.481 4,1.43 1.179,0.949 2.078,2.66 2.73,5.121 0.848,3.16 1.27,8.519 1.27,16.079 0,7.56 -0.379,12.75 -1.141,15.58 -0.762,2.83 -1.719,4.72 -2.879,5.67 -1.16,0.95 -2.48,1.43 -3.98,1.43"
         style="fill:#6c757d;fill-opacity:1;fill-rule:nonzero;stroke:none"
         id="path32" /><path
         d="m 894.359,1044.28 c 6.243,0 11.121,-2.23 14.629,-6.68 4.192,-5.28 6.293,-14.02 6.293,-26.24 0,-12.188 -2.109,-20.938 -6.332,-26.282 -3.488,-4.387 -8.347,-6.59 -14.59,-6.59 -6.269,0 -11.328,2.41 -15.16,7.231 -3.84,4.82 -5.758,13.41 -5.758,25.771 0,12.13 2.11,20.86 6.329,26.2 3.48,4.39 8.351,6.59 14.589,6.59 z m 0,-10.24 c -1.5,0 -2.828,-0.48 -4,-1.43 -1.168,-0.95 -2.078,-2.66 -2.73,-5.12 -0.848,-3.19 -1.27,-8.57 -1.27,-16.13 0,-7.56 0.379,-12.751 1.141,-15.579 0.762,-2.82 1.719,-4.711 2.879,-5.64 1.16,-0.942 2.48,-1.411 3.98,-1.411 1.493,0 2.832,0.481 4,1.43 1.172,0.949 2.082,2.66 2.719,5.121 0.852,3.16 1.281,8.519 1.281,16.079 0,7.56 -0.379,12.75 -1.148,15.58 -0.762,2.83 -1.723,4.72 -2.883,5.67 -1.148,0.95 -2.476,1.43 -3.969,1.43"
         style="fill:#6c757d;fill-opacity:1;fill-rule:nonzero;stroke:none"
         id="path34" /><path
         d="m 923.539,1031.67 v 11.46 h 42.231 v -8.96 c -3.489,-3.43 -7.032,-8.35 -10.641,-14.77 -3.598,-6.41 -6.348,-13.23 -8.238,-20.451 C 945,991.73 944.07,985.27 944.102,979.59 h -11.911 c 0.207,8.91 2.047,17.988 5.52,27.25 3.469,9.25 8.109,17.53 13.91,24.83 h -28.082"
         style="fill:#6c757d;fill-opacity:1;fill-rule:nonzero;stroke:none"
         id="path36" /><path
         d="m 997.809,979.59 v 12.961 h -26.368 v 10.809 l 27.95,40.92 h 10.369 v -40.87 h 8 v -10.859 h -8 V 979.59 Z m 0,23.82 v 22.01 L 983,1003.41 h 14.809"
         style="fill:#6c757d;fill-opacity:1;fill-rule:nonzero;stroke:none"
         id="path38" /><path
         d="m 1023.65,1031.67 v 11.46 h 42.23 v -8.96 c -3.49,-3.43 -7.03,-8.35 -10.64,-14.77 -3.6,-6.41 -6.35,-13.23 -8.24,-20.451 -1.89,-7.219 -2.82,-13.679 -2.79,-19.359 h -11.91 c 0.21,8.91 2.05,17.988 5.52,27.25 3.47,9.25 8.11,17.53 13.91,24.83 h -28.08"
         style="fill:#6c757d;fill-opacity:1;fill-rule:nonzero;stroke:none"
         id="path40" /><path
         d="m 1454.25,1044.28 c 6.24,0 11.12,-2.23 14.63,-6.68 4.19,-5.28 6.29,-14.02 6.29,-26.24 0,-12.188 -2.11,-20.938 -6.33,-26.282 -3.49,-4.387 -8.35,-6.59 -14.59,-6.59 -6.27,0 -11.32,2.41 -15.16,7.231 -3.84,4.82 -5.76,13.41 -5.76,25.771 0,12.13 2.11,20.86 6.33,26.2 3.49,4.39 8.35,6.59 14.59,6.59 z m 0,-10.24 c -1.49,0 -2.83,-0.48 -4,-1.43 -1.17,-0.95 -2.08,-2.66 -2.72,-5.12 -0.85,-3.19 -1.28,-8.57 -1.28,-16.13 0,-7.56 0.38,-12.751 1.15,-15.579 0.76,-2.82 1.72,-4.711 2.87,-5.64 1.16,-0.942 2.49,-1.411 3.98,-1.411 1.49,0 2.83,0.481 4,1.43 1.17,0.949 2.08,2.66 2.72,5.121 0.85,3.16 1.28,8.519 1.28,16.079 0,7.56 -0.38,12.75 -1.14,15.58 -0.77,2.83 -1.73,4.72 -2.88,5.67 -1.16,0.95 -2.49,1.43 -3.98,1.43"
         style="fill:#6c757d;fill-opacity:1;fill-rule:nonzero;stroke:none"
         id="path42" /><path
         d="m 1504.3,1044.28 c 6.24,0 11.12,-2.23 14.64,-6.68 4.19,-5.28 6.28,-14.02 6.28,-26.24 0,-12.188 -2.11,-20.938 -6.33,-26.282 -3.48,-4.387 -8.35,-6.59 -14.59,-6.59 -6.27,0 -11.32,2.41 -15.16,7.231 -3.83,4.82 -5.75,13.41 -5.75,25.771 0,12.13 2.11,20.86 6.32,26.2 3.49,4.39 8.35,6.59 14.59,6.59 z m 0,-10.24 c -1.49,0 -2.82,-0.48 -3.99,-1.43 -1.18,-0.95 -2.08,-2.66 -2.73,-5.12 -0.85,-3.19 -1.27,-8.57 -1.27,-16.13 0,-7.56 0.38,-12.751 1.14,-15.579 0.76,-2.82 1.72,-4.711 2.88,-5.64 1.15,-0.942 2.48,-1.411 3.97,-1.411 1.5,0 2.83,0.481 4,1.43 1.18,0.949 2.08,2.66 2.73,5.121 0.85,3.16 1.27,8.519 1.27,16.079 0,7.56 -0.38,12.75 -1.14,15.58 -0.76,2.83 -1.72,4.72 -2.88,5.67 -1.16,0.95 -2.48,1.43 -3.98,1.43"
         style="fill:#6c757d;fill-opacity:1;fill-rule:nonzero;stroke:none"
         id="path44" /><path
         d="m 1554.36,1044.28 c 6.24,0 11.12,-2.23 14.63,-6.68 4.19,-5.28 6.29,-14.02 6.29,-26.24 0,-12.188 -2.11,-20.938 -6.33,-26.282 -3.49,-4.387 -8.35,-6.59 -14.59,-6.59 -6.27,0 -11.33,2.41 -15.16,7.231 -3.84,4.82 -5.76,13.41 -5.76,25.771 0,12.13 2.11,20.86 6.33,26.2 3.48,4.39 8.35,6.59 14.59,6.59 z m 0,-10.24 c -1.5,0 -2.83,-0.48 -4,-1.43 -1.17,-0.95 -2.08,-2.66 -2.73,-5.12 -0.85,-3.19 -1.27,-8.57 -1.27,-16.13 0,-7.56 0.38,-12.751 1.14,-15.579 0.76,-2.82 1.72,-4.711 2.88,-5.64 1.16,-0.942 2.48,-1.411 3.98,-1.411 1.49,0 2.83,0.481 4,1.43 1.17,0.949 2.08,2.66 2.72,5.121 0.85,3.16 1.28,8.519 1.28,16.079 0,7.56 -0.38,12.75 -1.15,15.58 -0.76,2.83 -1.72,4.72 -2.88,5.67 -1.15,0.95 -2.48,1.43 -3.97,1.43"
         style="fill:#6c757d;fill-opacity:1;fill-rule:nonzero;stroke:none"
         id="path46" /><path
         d="m 1583.54,1031.67 v 11.46 h 42.23 v -8.96 c -3.49,-3.43 -7.03,-8.35 -10.64,-14.77 -3.6,-6.41 -6.35,-13.23 -8.24,-20.451 -1.89,-7.219 -2.82,-13.679 -2.79,-19.359 h -11.91 c 0.21,8.91 2.05,17.988 5.52,27.25 3.47,9.25 8.11,17.53 13.91,24.83 h -28.08"
         style="fill:#6c757d;fill-opacity:1;fill-rule:nonzero;stroke:none"
         id="path48" /><path
         d="m 1657.81,979.59 v 12.961 h -26.37 v 10.809 l 27.95,40.92 h 10.37 v -40.87 h 8 v -10.859 h -8 V 979.59 Z m 0,23.82 v 22.01 L 1643,1003.41 h 14.81"
         style="fill:#6c757d;fill-opacity:1;fill-rule:nonzero;stroke:none"
         id="path50" /><path
         d="m 1725.48,1028.24 -11.95,-1.32 c -0.3,2.46 -1.06,4.28 -2.29,5.45 -1.23,1.17 -2.82,1.76 -4.79,1.76 -2.6,0 -4.81,-1.18 -6.61,-3.52 -1.8,-2.34 -2.94,-7.22 -3.41,-14.63 3.08,3.63 6.9,5.45 11.47,5.45 5.16,0 9.58,-1.97 13.25,-5.89 3.68,-3.93 5.52,-9 5.52,-15.21 0,-6.592 -1.94,-11.881 -5.8,-15.861 -3.87,-3.989 -8.84,-5.981 -14.9,-5.981 -6.5,0 -11.85,2.532 -16.04,7.582 -4.19,5.059 -6.28,13.34 -6.28,24.85 0,11.81 2.18,20.32 6.54,25.54 4.37,5.21 10.04,7.82 17.01,7.82 4.89,0 8.94,-1.37 12.15,-4.11 3.21,-2.74 5.25,-6.72 6.13,-11.93 z m -27.99,-26.94 c 0,-4.011 0.92,-7.109 2.77,-9.3 1.84,-2.18 3.95,-3.27 6.32,-3.27 2.29,0 4.19,0.891 5.72,2.68 1.52,1.789 2.28,4.719 2.28,8.79 0,4.19 -0.82,7.26 -2.46,9.21 -1.64,1.94 -3.69,2.92 -6.15,2.92 -2.37,0 -4.38,-0.93 -6.02,-2.79 -1.64,-1.86 -2.46,-4.61 -2.46,-8.24"
         style="fill:#6c757d;fill-opacity:1;fill-rule:nonzero;stroke:none"
         id="path52" /><path
         d="M 1835,1130 H 665 v -30 h 1170 v 30"
         style="fill:#6c757d;fill-opacity:1;fill-rule:evenodd;stroke:none"
         id="path54" /></g></g></svg>
