<?xml version="1.0" encoding="utf-8"?>
<!-- Generator: Adobe Illustrator 15.1.0, SVG Export Plug-In . SVG Version: 6.00 Build 0)  -->
<!DOCTYPE svg PUBLIC "-//W3C//DTD SVG 1.1//EN" "http://www.w3.org/Graphics/SVG/1.1/DTD/svg11.dtd">
<svg version="1.1" id="Layer_1" xmlns="http://www.w3.org/2000/svg" xmlns:xlink="http://www.w3.org/1999/xlink" x="0px" y="0px"
	 width="300px" height="300px" viewBox="0 0 300 300" enable-background="new 0 0 300 300" xml:space="preserve">
<g>
	<path fill="#DCE2ED" d="M261.821,73.382c4.498,0,8.179-3.68,8.179-8.179s-3.681-8.179-8.179-8.179h-26.388
		c-0.031-0.029-0.063-0.056-0.095-0.085h-18.447c-4.19,0-7.619-3.429-7.619-7.619c0-3.626,2.569-6.677,5.976-7.435
		c-0.18-0.109-0.357-0.223-0.538-0.332h10.953c3.77,0,6.853-3.083,6.853-6.853s-3.083-6.853-6.853-6.853h-43.532
		c-10.282-2.701-21.073-4.146-32.202-4.146c-69.803,0-126.39,56.587-126.39,126.39s56.587,126.39,126.39,126.39
		c69.804,0,126.391-56.587,126.391-126.39c0-28.851-9.674-55.439-25.945-76.712H261.821z"/>
	<path fill="#DCE2ED" d="M259.75,28.35c-1.731,0-7.269,0-9,0c-3.728,0-6.75,3.022-6.75,6.75s3.022,6.75,6.75,6.75
		c1.731,0,7.269,0,9,0c3.728,0,6.75-3.022,6.75-6.75S263.478,28.35,259.75,28.35z"/>
</g>
<g>
	<path fill="#E93D25" d="M138.886,124.022l-2.761-2.087l2.355-2.536c0.529-0.57,0.496-1.461-0.074-1.99
		c-0.57-0.529-1.461-0.496-1.99,0.074l-2.549,2.745l-2.987-2.259c-0.621-0.469-1.503-0.346-1.973,0.274
		c-0.469,0.62-0.347,1.503,0.274,1.972l2.76,2.087l-2.354,2.536c-0.529,0.569-0.496,1.461,0.074,1.99
		c0.271,0.252,0.615,0.376,0.958,0.376c0.378,0,0.755-0.151,1.033-0.45l2.548-2.745l2.989,2.26c0.254,0.191,0.552,0.284,0.848,0.284
		c0.426,0,0.848-0.193,1.125-0.559C139.629,125.375,139.506,124.491,138.886,124.022z"/>
	<path fill="#E93D25" d="M171.116,120.16l-2.761-2.087l2.354-2.536c0.529-0.57,0.496-1.46-0.072-1.99
		c-0.57-0.529-1.462-0.496-1.99,0.074l-2.549,2.745l-2.988-2.259c-0.621-0.469-1.504-0.347-1.974,0.274
		c-0.469,0.621-0.346,1.503,0.274,1.973l2.761,2.086l-2.354,2.536c-0.528,0.57-0.496,1.461,0.074,1.991
		c0.271,0.251,0.614,0.375,0.957,0.375c0.379,0,0.756-0.151,1.032-0.45l2.55-2.745l2.987,2.259c0.254,0.192,0.552,0.285,0.849,0.285
		c0.426,0,0.848-0.193,1.125-0.56C171.859,121.512,171.736,120.629,171.116,120.16z"/>
	<path fill="#E93D25" d="M173.105,143.292c-5.396-3.765-10.945-5.905-16.494-6.365c-4.461-0.369-8.916,0.344-13.237,2.118
		c-7.311,3.002-11.675,7.974-11.856,8.184c-0.509,0.587-0.446,1.475,0.141,1.984c0.267,0.231,0.595,0.346,0.922,0.346
		c0.165,0,0.328-0.031,0.484-0.088c0.104,0.715,0.242,1.52,0.427,2.368c0.847,3.892,2.215,6.687,4.066,8.308
		c1.235,1.082,2.655,1.629,4.229,1.629c0.204,0,0.41-0.01,0.62-0.027c3.238-0.284,5.182-2.137,5.94-5.66
		c0.628-2.914,0.476-6.892,0.284-11.929c-0.046-1.232-0.095-2.498-0.135-3.825c7.624-1.836,15.343-0.072,22.999,5.269
		c0.639,0.444,1.517,0.288,1.961-0.349C173.9,144.614,173.744,143.736,173.105,143.292z M145.816,144.266
		c0.185,4.839,0.33,8.661-0.223,11.229c-0.497,2.31-1.459,3.274-3.434,3.446c-1.042,0.093-1.939-0.205-2.744-0.91
		c-2.596-2.272-3.564-8.103-3.788-10.874c0.911-0.797,2.119-1.761,3.586-2.726l1.123,9.885c0.082,0.721,0.69,1.25,1.397,1.25
		c0.053,0,0.107-0.002,0.161-0.008c0.772-0.088,1.328-0.787,1.24-1.56l-1.229-10.819c-0.012-0.106-0.037-0.208-0.07-0.305
		c0.847-0.448,1.75-0.877,2.708-1.266c0.386-0.157,0.773-0.304,1.16-0.442C145.738,142.233,145.777,143.261,145.816,144.266z"/>
	<path fill="#E93D25" d="M195.139,162.579l-6.668-75.954c-0.066-0.758-0.424-1.445-1.006-1.935
		c-0.584-0.492-1.324-0.726-2.084-0.658l-59.699,5.241c-0.535,0.047-1.006,0.29-1.348,0.651c-0.19,0.086-0.371,0.201-0.534,0.346
		l-15.43,13.672c-0.197,0.175-0.353,0.377-0.468,0.597c-0.763,0.373-1.256,1.187-1.178,2.083l5.322,60.612
		c0.567,2.517,10.067,14.588,10.067,14.588c0.408,0.584,1.063,0.9,1.731,0.9c0.366,0,0.737-0.096,1.073-0.294l17.621-10.415
		l19.646,6.02c0.707,0.217,1.475,0.049,2.024-0.443l15.744-14.053l12.28,1.375c0.24,0.025,0.477,0.012,0.699-0.038
		c0.032,0.001,0.064,0.002,0.098,0.002c0.062,0,0.125-0.003,0.188-0.009C194.381,164.768,195.24,163.742,195.139,162.579z
		 M125.991,106.8l-13.777-0.617L124.946,94.9L125.991,106.8z M179.486,159.234c-0.598-0.066-1.193,0.125-1.643,0.523l-15.56,13.889
		l-19.399-5.943c-0.568-0.174-1.182-0.102-1.693,0.201l-16.741,9.895l-8.275-11.818l-4.882-55.609l16.918,0.758
		c0.031,0.001,0.063,0.002,0.094,0.002c0.575,0,1.126-0.234,1.526-0.651c0.421-0.44,0.632-1.04,0.578-1.646l-1.37-15.613
		l55.342-4.859l6.333,72.131L179.486,159.234z"/>
	<path fill="#E93D25" d="M194.954,186.607l-12.537-4.024c-0.604-0.194-1.265-0.104-1.797,0.24l-17.488,11.364l-18.272-8.819
		c-0.534-0.259-1.153-0.279-1.704-0.06l-18.048,7.238l-6.47-13.109c-0.517-1.047-2.337-1.541-3.384-1.024
		c-0.159,0.078-1.605,1.291-1.67,2.302l-1.959,30.163c-0.047,0.728,0.156,1.442,0.571,2.019c0.496,0.688,1.254,1.112,2.08,1.166
		l77.316,5.021c0.061,0.003,0.118,0.005,0.178,0.005c1.492,0,2.76-1.229,2.862-2.819l1.665-25.656
		c0.021-0.334,0.032-1.197,0.023-1.348C196.241,187.766,196.064,186.963,194.954,186.607z M190.494,214.777l-74.576-4.842
		l1.519-23.385l4.747,9.619c0.489,0.989,1.656,1.438,2.681,1.025l18.999-7.618l18.503,8.931c0.292,0.143,0.605,0.211,0.918,0.211
		c0.402,0,0.803-0.115,1.15-0.342l17.646-11.466l10.024,3.217c-0.012,0.067-0.021,0.14-0.024,0.209L190.494,214.777z"/>
	<path fill="#E93D25" d="M83.854,182.145c0-4.095-3.714-7.425-8.28-7.425h-5.428V145.3c0-4.188-3.869-7.596-8.624-7.596
		c-4.916,0-8.623,3.266-8.623,7.596v29.42H23.403l1.936-4.473c4.971-11.481,9.543-21.892,13.966-31.958
		c4.424-10.069,8.999-20.481,13.967-31.962l0.013-0.028c0.41-0.921,0.41-1.571,0.41-2.469c0-1.908-0.979-3.896-2.685-5.456
		c-1.702-1.555-3.922-2.482-5.939-2.482c-3.359,0-6.514,1.938-7.67,4.713l-0.018,0.042L4.466,176.598L4.45,176.63
		c-0.789,1.709-1.346,4.116-1.418,4.735c0.042,4.13,3.389,8.373,8.966,8.373H52.9v17.253c0,4.329,3.707,7.595,8.623,7.595
		s8.624-3.266,8.624-7.595v-17.253h5.428C80.217,189.738,83.854,186.402,83.854,182.145z"/>
	<path fill="#E93D25" d="M296.4,183.271c0-4.094-3.715-7.424-8.281-7.424h-5.428v-29.42c0-4.188-3.869-7.596-8.625-7.596
		c-4.916,0-8.623,3.266-8.623,7.596v29.42h-29.494l1.936-4.473c4.973-11.486,9.547-21.9,13.971-31.97
		c4.424-10.066,8.996-20.474,13.963-31.95l0.013-0.029c0.41-0.921,0.41-1.571,0.41-2.469c0-1.908-0.979-3.896-2.687-5.455
		c-1.701-1.555-3.922-2.483-5.938-2.483c-3.36,0-6.514,1.938-7.67,4.713l-0.018,0.042l-32.918,75.949l-0.017,0.034
		c-0.788,1.709-1.347,4.117-1.418,4.735c0.042,4.13,3.389,8.373,8.967,8.373h40.899v17.253c0,4.33,3.707,7.596,8.623,7.596
		s8.625-3.267,8.625-7.596v-17.253h5.428C292.764,190.867,296.4,187.531,296.4,183.271z"/>
</g>
</svg>
