<?xml version="1.0" encoding="UTF-8" standalone="no"?>
<svg
   xmlns:dc="http://purl.org/dc/elements/1.1/"
   xmlns:cc="http://creativecommons.org/ns#"
   xmlns:rdf="http://www.w3.org/1999/02/22-rdf-syntax-ns#"
   xmlns:svg="http://www.w3.org/2000/svg"
   xmlns="http://www.w3.org/2000/svg"
   xmlns:sodipodi="http://sodipodi.sourceforge.net/DTD/sodipodi-0.dtd"
   xmlns:inkscape="http://www.inkscape.org/namespaces/inkscape"
   version="1.1"
   id="svg2"
   xml:space="preserve"
   width="333.33334"
   height="333.33334"
   viewBox="0 0 333.33334 333.33334"
   sodipodi:docname="fechar-caixa.eps"><metadata
     id="metadata8"><rdf:RDF><cc:Work
         rdf:about=""><dc:format>image/svg+xml</dc:format><dc:type
           rdf:resource="http://purl.org/dc/dcmitype/StillImage" /></cc:Work></rdf:RDF></metadata><defs
     id="defs6" /><sodipodi:namedview
     pagecolor="#ffffff"
     bordercolor="#666666"
     borderopacity="1"
     objecttolerance="10"
     gridtolerance="10"
     guidetolerance="10"
     inkscape:pageopacity="0"
     inkscape:pageshadow="2"
     inkscape:window-width="640"
     inkscape:window-height="480"
     id="namedview4" /><g
     id="g10"
     inkscape:groupmode="layer"
     inkscape:label="ink_ext_XXXXXX"
     transform="matrix(1.3333333,0,0,-1.3333333,0,333.33333)"><g
       id="g12"
       transform="scale(0.1)"><path
         d="M 2500,2500 H 0 V 0 h 2500 v 2500"
         style="fill:#e3eaf1;fill-opacity:1;fill-rule:evenodd;stroke:none"
         id="path14" /><path
         d="m 1631.39,1472.47 h -63.57 v 127.13 c 0,175.44 -142.38,317.82 -317.82,317.82 -175.44,0 -317.82,-142.38 -317.82,-317.82 v -127.13 h -63.571 c -69.918,0 -127.121,-57.2 -127.121,-127.12 V 709.699 c 0,-69.918 57.203,-127.121 127.121,-127.121 h 762.781 c 69.92,0 127.12,57.203 127.12,127.121 v 635.651 c 0,69.92 -57.2,127.12 -127.12,127.12 z m -572.08,127.13 c 0,105.52 85.17,190.7 190.69,190.7 105.52,0 190.69,-85.18 190.69,-190.7 V 1472.47 H 1059.31 Z M 1631.39,709.699 H 868.609 V 1345.35 H 1631.39 Z M 1250,900.398 c 69.92,0 127.13,57.204 127.13,127.132 0,69.92 -57.21,127.12 -127.13,127.12 -69.92,0 -127.13,-57.2 -127.13,-127.12 0,-69.928 57.21,-127.132 127.13,-127.132"
         style="fill:#6c757d;fill-opacity:1;fill-rule:nonzero;stroke:none"
         id="path16" /></g></g></svg>
