<?xml version="1.0" encoding="UTF-8" standalone="no"?>
<svg
   xmlns:dc="http://purl.org/dc/elements/1.1/"
   xmlns:cc="http://creativecommons.org/ns#"
   xmlns:rdf="http://www.w3.org/1999/02/22-rdf-syntax-ns#"
   xmlns:svg="http://www.w3.org/2000/svg"
   xmlns="http://www.w3.org/2000/svg"
   xmlns:sodipodi="http://sodipodi.sourceforge.net/DTD/sodipodi-0.dtd"
   xmlns:inkscape="http://www.inkscape.org/namespaces/inkscape"
   version="1.1"
   id="svg2"
   xml:space="preserve"
   width="333.33334"
   height="333.33334"
   viewBox="0 0 333.33334 333.33334"
   sodipodi:docname="financeiro.eps"><metadata
     id="metadata8"><rdf:RDF><cc:Work
         rdf:about=""><dc:format>image/svg+xml</dc:format><dc:type
           rdf:resource="http://purl.org/dc/dcmitype/StillImage" /></cc:Work></rdf:RDF></metadata><defs
     id="defs6" /><sodipodi:namedview
     pagecolor="#ffffff"
     bordercolor="#666666"
     borderopacity="1"
     objecttolerance="10"
     gridtolerance="10"
     guidetolerance="10"
     inkscape:pageopacity="0"
     inkscape:pageshadow="2"
     inkscape:window-width="640"
     inkscape:window-height="480"
     id="namedview4" /><g
     id="g10"
     inkscape:groupmode="layer"
     inkscape:label="ink_ext_XXXXXX"
     transform="matrix(1.3333333,0,0,-1.3333333,0,333.33333)"><g
       id="g12"
       transform="scale(0.1)"><path
         d="M 2500,2500 H 0 V 0 h 2500 v 2500"
         style="fill:#e3eaf1;fill-opacity:1;fill-rule:evenodd;stroke:none"
         id="path14" /><path
         d="m 1265.01,2076.99 c 498.71,-9.3 638.16,-394.59 554.02,-844.4 -19.66,-104.98 -37.57,-211.02 13.22,-308.891 48.61,-93.668 -80.72,-97.687 -125.84,-101.73 h -914 c -38.871,0.121 -129.5,-5.957 -145.441,41.383 -11.391,33.699 18.332,77.707 33.793,137.818 24.707,96.16 -4.332,206.45 -12.633,305.17 -35.68,425.52 76.473,761.85 567.481,770.65 9.83,0.15 19.54,0.17 29.4,0"
         style="fill:#6c757d;fill-opacity:1;fill-rule:evenodd;stroke:none"
         id="path16" /><path
         d="M 1522.54,931.52 977.488,931.488 948.949,821.672 C 769.16,736.262 384.66,621.84 350.93,421.301 L 265.102,-89.1914 H 2234.9 l -85.83,510.4924 c -33.7,200.539 -418.2,314.929 -597.99,400.371 l -28.54,109.848"
         style="fill:#6c757d;fill-opacity:1;fill-rule:evenodd;stroke:none"
         id="path18" /><path
         d="m 1596.47,1425.6 c 4.07,7.41 8.76,17.45 13.63,27.72 16.8,35.38 41.65,33.08 42.21,-10.86 1.24,-90.08 -8.27,-206.83 -34.97,-285.22 -2.25,-6.49 -6.02,-11.72 -11.28,-15.61 -15.55,-11.42 -25.44,-15.29 -29.45,-35.54 -27.21,-136.051 -108.55,-216.149 -221.88,-284.36 -94.44,-56.839 -127.97,-56.449 -222.24,0.329 -140.689,84.82 -213.58,184.311 -243.099,330.521 -71.211,352.97 308.889,163.41 548.559,439.57 36.16,25.79 64.49,35.15 87.33,-31.44 13.05,-37.98 25.5,-80.42 35.74,-125.19 5.29,-23.11 21.79,-34.56 35.45,-9.92"
         style="fill:#e3eaf1;fill-opacity:1;fill-rule:evenodd;stroke:none"
         id="path20" /><path
         d="m 1364.91,400.699 159.13,303.25 -21.57,7.961 -181.21,-227.012 H 1178.77 L 997.531,712.059 975.961,704.09 1135.12,400.699 Z M 959.961,734.32 1023.44,795.5 c 20.57,-14.672 42.41,-28.602 65.34,-42.059 122.16,-71.543 186.2,-71.16 308.21,0.348 32.32,18.981 61.71,38.781 88.36,59.68 l 54.66,-79.149 c 86.83,-39.519 177.05,-72.64 263.79,-113.25 75.82,-35.531 246.88,-120.41 262.55,-213.672 L 2135.76,-5.33984 H 364.27 L 433.648,407.398 c 15.672,93.262 186.762,178.141 262.614,213.672 86.679,40.641 176.898,73.7 263.699,113.25"
         style="fill:#e3eaf1;fill-opacity:1;fill-rule:evenodd;stroke:none"
         id="path22" /></g></g></svg>
