<?xml version="1.0" encoding="UTF-8" standalone="no"?>
<svg
   xmlns:dc="http://purl.org/dc/elements/1.1/"
   xmlns:cc="http://creativecommons.org/ns#"
   xmlns:rdf="http://www.w3.org/1999/02/22-rdf-syntax-ns#"
   xmlns:svg="http://www.w3.org/2000/svg"
   xmlns="http://www.w3.org/2000/svg"
   viewBox="0 0 333.33334 333.33334"
   height="333.33334"
   width="333.33334"
   xml:space="preserve"
   id="svg2"
   version="1.1"><metadata
     id="metadata8"><rdf:RDF><cc:Work
         rdf:about=""><dc:format>image/svg+xml</dc:format><dc:type
           rdf:resource="http://purl.org/dc/dcmitype/StillImage" /></cc:Work></rdf:RDF></metadata><defs
     id="defs6" /><g
     transform="matrix(1.3333333,0,0,-1.3333333,0,333.33333)"
     id="g10"><g
       transform="scale(0.1)"
       id="g12"><path
         id="path14"
         style="fill:#e3eaf1;fill-opacity:1;fill-rule:evenodd;stroke:none"
         d="M 2500,2500 H 0 V 0 h 2500 v 2500" /><path
         id="path16"
         style="fill:#6c757d;fill-opacity:1;fill-rule:evenodd;stroke:none"
         d="m 953.949,938.879 c -47.918,64.661 -84.84,137.831 -102.097,204.911 l -32.391,18.97 c -43.332,118.53 -56.949,223.97 -51.66,321.02 l 27.39,21.96 c -15.121,72.62 -1.14,169.8 2.829,244.19 51.191,390.56 852.79,390.56 903.96,0 4,-74.39 17.95,-171.57 2.83,-244.19 l 27.39,-21.96 c 5.29,-97.05 -8.33,-202.49 -51.63,-321.02 l -32.42,-18.97 c -17.24,-67.08 -54.18,-140.27 -102.1,-204.938 l 44.41,-101.012 502.77,-195.731 c 76.28,-28.668 124.49,-91.89 138.07,-172.55 L 2310.24,0 H 189.762 l 78.937,469.559 c 13.582,80.66 61.821,143.882 138.102,172.55 l 502.738,195.731 44.41,101.039" /><path
         id="path18"
         style="fill:#e3eaf1;fill-opacity:1;fill-rule:evenodd;stroke:none"
         d="m 1170.23,811.75 c -111.68,51.23 -218.371,204.39 -248.039,319.77 l -7.55,29.29 -35.461,20.74 c -25.649,76.8 -40.282,155.28 -39.852,236.15 l 36.031,28.86 -9.07,43.6 c -13.25,63.49 0.242,156.04 4.07,222.47 43.36,302.74 715.921,302.74 759.281,0 3.83,-66.43 17.32,-158.98 4.1,-222.47 l -9.07,-43.6 36,-28.86 c 0.43,-80.87 -14.17,-159.35 -39.83,-236.12 l -35.48,-20.77 -7.55,-29.29 c -29.64,-115.38 -136.36,-268.54 -248.04,-319.77 -52.39,-9.719 -107.12,-9.719 -159.54,0" /><path
         id="path20"
         style="fill:#e3eaf1;fill-opacity:1;fill-rule:evenodd;stroke:none"
         d="M 2213.68,0 C 730.449,0 1769.55,0 286.32,0 l 62.95,425.672 c 8.64,51.328 36.839,91.047 86.281,109.617 l 496.789,186.66 61.762,33.629 28.258,74.25 c 39.44,-38.406 82.47,-69.406 126.07,-87.816 66.56,-13.551 136.58,-13.551 203.14,0 43.57,18.41 86.6,49.41 126.07,87.816 l 28.26,-74.25 61.79,-33.629 496.79,-186.66 c 49.41,-18.57 77.64,-58.289 86.27,-109.617 L 2213.68,0" /><path
         id="path22"
         style="fill:#6c757d;fill-opacity:1;fill-rule:evenodd;stroke:none"
         d="M 1091.01,746.52 V 543.809 l 159,85.781 158.98,-85.781 V 746.52 l -158.98,-85.758 -159,85.758" /><path
         id="path24"
         style="fill:#6c757d;fill-opacity:1;fill-rule:evenodd;stroke:none"
         d="M 1505.9,755.578 1250.01,98.9219 994.102,755.578 527.172,627.641 C 595.422,420.719 637.629,212.262 617.809,0 H 1882.21 c -19.84,212.262 22.37,420.719 90.65,627.641 L 1505.9,755.578" /><path
         id="path26"
         style="fill:#6c757d;fill-opacity:1;fill-rule:evenodd;stroke:none"
         d="m 1704.81,1475.36 c 7.82,35.4 10.56,112.58 5.62,153.98 -2.58,113.04 -27.01,226.79 -93.55,310.4 -37.27,46.88 -95.18,76.04 -151.86,110.32 -5.84,4.27 -14.06,4.43 -12.49,0.25 21.66,-57.45 -32.58,-15.18 -75.09,19.9 -15.63,12.89 -49.95,49.02 -69.58,69 -14.52,14.66 -14.3,20.53 -14.3,0.9 -0.06,-17.7 -2.07,-32.41 -5.87,-44.3 -5.32,-16.67 -20.33,-38.44 -30.94,-41.21 -9.51,-2.5 -11.32,13.57 -11.46,30.13 -0.14,22.18 2.44,58.31 -17.78,73.87 -63.55,-114.48 -80.25,-113.02 -93.36,-94.2 -7.11,10.15 -13,20.95 -18.73,31.79 -1.71,3.2 -3.31,3.06 -10.34,-1.71 -28.83,-19.58 -157.67,-84.78 -175.842,-98.57 -52.91,-40.29 -97.937,-120.59 -119.898,-200.38 -15.102,-54.89 -13.629,-109.21 -19.309,-151.34 -6.383,-47.62 -0.269,-126.72 5.16,-168.83 l 77.911,-28.8 28.589,-55.55 c 39.629,42.54 8.957,119.8 15.829,152.14 3.878,18.24 66.32,81.84 190.35,75.87 82.83,-4.01 98.82,-25.9 206.16,-16.34 100.85,8.96 213.81,30.19 258.52,-37.49 36.7,-55.6 -28.56,-138.31 29.45,-177.79 l 22.67,59.16 80.14,28.8" /></g></g></svg>