<?xml version="1.0" encoding="UTF-8" standalone="no"?>
<svg
   xmlns:dc="http://purl.org/dc/elements/1.1/"
   xmlns:cc="http://creativecommons.org/ns#"
   xmlns:rdf="http://www.w3.org/1999/02/22-rdf-syntax-ns#"
   xmlns:svg="http://www.w3.org/2000/svg"
   xmlns="http://www.w3.org/2000/svg"
   viewBox="0 0 333.33334 333.33334"
   height="333.33334"
   width="333.33334"
   xml:space="preserve"
   id="svg2"
   version="1.1"><metadata
     id="metadata8"><rdf:RDF><cc:Work
         rdf:about=""><dc:format>image/svg+xml</dc:format><dc:type
           rdf:resource="http://purl.org/dc/dcmitype/StillImage" /></cc:Work></rdf:RDF></metadata><defs
     id="defs6" /><g
     transform="matrix(1.3333333,0,0,-1.3333333,0,333.33333)"
     id="g10"><g
       transform="scale(0.1)"
       id="g12"><path
         id="path14"
         style="fill:#e3eaf1;fill-opacity:1;fill-rule:evenodd;stroke:none"
         d="M 2500,2500 H 0 V 0 h 2500 v 2500" /><path
         id="path16"
         style="fill:#6c757d;fill-opacity:1;fill-rule:evenodd;stroke:none"
         d="m 1546.07,938.879 c 47.91,64.671 84.83,137.831 102.07,204.911 l 32.38,18.97 c 43.36,118.53 56.99,223.97 51.69,321.02 l -27.39,21.96 c 15.12,72.62 1.14,169.8 -2.82,244.21 -51.2,390.54 -852.801,390.54 -903.969,0 -3.992,-74.41 -17.953,-171.59 -2.851,-244.21 l -27.391,-21.96 c -5.301,-97.05 8.332,-202.49 51.691,-321.02 l 32.379,-18.97 c 17.27,-67.11 54.192,-140.27 102.102,-204.938 L 909.551,837.84 406.809,642.109 C 330.5,613.441 282.289,550.219 268.719,469.559 L 189.738,0 H 2310.26 l -78.95,469.559 c -13.57,80.66 -61.81,143.882 -138.1,172.55 l -502.73,195.731 -44.41,101.039" /><path
         id="path18"
         style="fill:#e3eaf1;fill-opacity:1;fill-rule:evenodd;stroke:none"
         d="m 1329.79,842.129 c 111.68,51.23 218.39,204.361 248.04,319.741 l 7.54,29.29 35.46,20.77 c 25.68,76.8 40.28,155.28 39.82,236.15 l -35.99,28.86 9.09,43.59 c 13.19,63.5 -0.3,156.04 -4.13,222.47 -43.32,302.75 -715.921,302.75 -759.241,0 -3.828,-66.43 -17.32,-158.97 -4.098,-222.47 l 9.059,-43.59 -35.988,-28.86 c -0.442,-80.87 14.168,-159.35 39.82,-236.13 l 35.476,-20.79 7.524,-29.29 c 29.699,-115.38 136.358,-268.511 248.068,-319.741 52.4,-9.719 107.12,-9.719 159.55,0" /><path
         id="path20"
         style="fill:#6c757d;fill-opacity:1;fill-rule:evenodd;stroke:none"
         d="m 795.18,1505.74 c -11.782,65.48 -5.16,112.41 -2.91,165.6 -2.301,128.21 -11.942,222.55 53.46,294.03 45.469,49.65 73.161,123.32 93.329,138.07 4.722,3.44 11.562,-18.46 23.812,-30.6 26.027,-25.76 44.329,-14.14 43.759,12.9 -0.55,26.55 -6.36,34.83 -8.61,46.34 -1.442,7.27 -1.469,15.88 2.15,31.19 2.19,5.92 7.57,4.21 13,0.19 38.74,-28.72 49.05,-55.95 119.85,-74.44 0.74,-0.16 -18.65,47.97 20.39,78.02 66.05,-118.99 107.86,-118.09 121.48,-98.52 7.39,10.56 13.52,21.78 19.5,33.01 1.73,3.34 3.39,3.21 10.72,-1.76 64.31,-86.79 141.98,-74.65 216.63,-104.98 70.45,-28.61 156.53,-140.32 168.88,-210.66 19.14,-51.58 23.4,-190.57 14.2,-278.39 l -78.78,-28.83 -29.7,-133.67 c -41.23,44.19 -6.84,209.22 -13.98,242.83 -4.02,18.97 -61,85.05 -189.95,78.83 -86.11,-4.12 -102.75,-26.85 -214.32,-16.99 -104.9,9.34 -206.512,39.28 -252.988,-31.06 -38.141,-57.77 33.527,-223.2 -26.793,-264.22 l -22.911,124.31 -80.218,28.8" /><path
         id="path22"
         style="fill:#e3eaf1;fill-opacity:1;fill-rule:evenodd;stroke:none"
         d="m 286.328,0 h 860.212 l 31.47,503.121 c 2.19,9.629 6.02,20.551 -1.09,28.66 -9.56,10.938 -41.72,45.34 -43.46,59.731 -3.5,37.726 4.8,134.238 38.98,131.957 58.29,-13.66 96.83,-13.66 155.17,0 34.13,2.281 42.43,-94.231 38.96,-131.957 -1.71,-14.391 -33.93,-48.793 -43.46,-59.731 -7.14,-8.109 -3.29,-19.031 -1.12,-28.66 L 1353.48,0 h 860.21 l -62.95,456.02 c -8.66,51.359 -36.87,91.07 -86.27,109.64 l -496.79,186.641 -61.77,33.66 -28.25,74.25 c -39.45,-38.41 -82.48,-69.422 -126.08,-87.82 -66.59,-13.551 -136.57,-13.551 -203.16,0 -43.58,18.398 -86.6,49.41 -126.05,87.82 L 994.078,785.961 932.32,752.301 435.531,565.66 C 386.129,547.09 357.891,507.379 349.23,456.02 Z M 1545.58,305.73 h 295.66 v -52.449 h -295.66 v 52.449" /></g></g></svg>