<?xml version="1.0" encoding="UTF-8" standalone="no"?>
<svg
   xmlns:dc="http://purl.org/dc/elements/1.1/"
   xmlns:cc="http://creativecommons.org/ns#"
   xmlns:rdf="http://www.w3.org/1999/02/22-rdf-syntax-ns#"
   xmlns:svg="http://www.w3.org/2000/svg"
   xmlns="http://www.w3.org/2000/svg"
   viewBox="0 0 333.33334 333.33334"
   height="333.33334"
   width="333.33334"
   xml:space="preserve"
   id="svg2"
   version="1.1"><metadata
     id="metadata8"><rdf:RDF><cc:Work
         rdf:about=""><dc:format>image/svg+xml</dc:format><dc:type
           rdf:resource="http://purl.org/dc/dcmitype/StillImage" /></cc:Work></rdf:RDF></metadata><defs
     id="defs6" /><g
     transform="matrix(1.3333333,0,0,-1.3333333,0,333.33333)"
     id="g10"><g
       transform="scale(0.1)"
       id="g12"><path
         id="path14"
         style="fill:#e3eaf1;fill-opacity:1;fill-rule:evenodd;stroke:none"
         d="M 2500,2500 H 0 V 0 h 2500 v 2500" /><path
         id="path16"
         style="fill:#6c757d;fill-opacity:1;fill-rule:evenodd;stroke:none"
         d="m 1238.59,1302.71 c -64.8,33.96 -136.32,71.42 -219.73,103.66 -55.63,21.47 -138.899,9.05 -206.571,-22.48 -24.32,-11.37 -46.019,-24.89 -62.98,-39.86 -15.43,-13.67 -26.969,-28.36 -32.75,-43.32 -5.379,-13.92 -5.399,-29.01 1.902,-44.64 49.687,-106.65 218.559,-159.39 407.659,-175.1 124.51,-10.31 256.48,-4.14 370.46,13.64 111.61,17.43 204.76,45.43 254.55,79.2 18.28,12.4 28.47,23.35 27.92,31.76 -0.24,3.47 -19.44,2.82 -49.33,0.86 v -0.02 c -16.13,-1.07 -30.19,-2.42 -45.22,-3.88 -43.24,-4.14 -93.49,-8.98 -147.69,-6.97 -100.91,3.77 -190.92,50.93 -298.22,107.15 z m 625.77,-154.84 c 0.49,34.71 0.88,93.47 -26.46,118.97 -23.1,21.52 -62.6,24.29 -113.44,20.91 h -0.16 c -12.3,-0.83 -29.34,-2.48 -47.46,-4.21 -40.75,-3.91 -88.1,-8.48 -137.17,-6.66 -82.47,3.09 -165.04,46.35 -263.44,97.91 -66.99,35.08 -140.9,73.81 -228.03,107.48 -76.579,29.57 -185.122,15.33 -270.329,-24.42 -30.711,-14.3 -59.051,-32.22 -82.43,-52.94 -24.929,-22 -44.113,-47.25 -54.781,-74.88 -18.262,-83.72 -14,-193.35 -9.301,-288.99 -0.668,-10.8 0,-21.84 2.129,-33.09 h 0.043 c 2.149,-11.13 5.797,-22.411 11.098,-33.751 h 0.019 l 0.293,-0.64 c 25.34,-51.629 66.508,-93.18 118.719,-125.938 h 999.68 c 50.38,26.828 84.66,58.91 96.29,94.949 v 0.02 c 1.21,3.781 1.88,7.801 1.92,11.941 z m -816.87,153.01 c 65.63,-24.31 110.61,-73.81 100.48,-110.52 -10.12,-36.71 -71.57,-46.75 -137.18,-22.43 -65.61,24.31 -110.591,73.81 -100.47,110.53 10.129,36.71 71.559,46.75 137.17,22.42" /><path
         id="path18"
         style="fill:#6c757d;fill-opacity:1;fill-rule:evenodd;stroke:none"
         d="m 434.109,793.191 c 543.93,0 1087.851,0 1631.781,0 -54.72,-100.73 -130.84,-171.453 -221.58,-221.582 -399.8,0 -799.63,0 -1199.412,0 -85.597,43.032 -154.07,110.02 -210.789,221.582 z M 662.891,550.328 H 1824.42 v -40.68 H 662.891 v 40.68" /><path
         id="path20"
         style="fill:#6c757d;fill-opacity:1;fill-rule:evenodd;stroke:none"
         d="m 1696.17,1451.48 c 14.29,-16.06 12.87,-40.65 -3.18,-54.94 -16.07,-14.28 -40.67,-12.86 -54.96,3.19 -82.93,93.26 -53.68,159.04 -23.88,226.05 20.35,45.8 41.11,92.46 -14.35,156.03 -14.11,16.15 -12.48,40.69 3.67,54.82 16.13,14.11 40.67,12.48 54.78,-3.67 88.1,-101.02 57.18,-170.6 26.84,-238.82 -19.48,-43.8 -38.59,-86.79 11.08,-142.66" /><path
         id="path22"
         style="fill:#6c757d;fill-opacity:1;fill-rule:evenodd;stroke:none"
         d="m 1470.87,1555.76 c 14.78,-15.56 14.17,-40.15 -1.36,-54.94 -15.56,-14.8 -40.17,-14.19 -54.96,1.37 -57.08,60.04 -39.78,108.54 -22.88,155.89 9.02,25.25 17.79,49.86 -11.7,74.13 -16.55,13.62 -18.93,38.1 -5.32,54.65 13.62,16.55 38.08,18.93 54.65,5.32 71.83,-59.16 54.03,-109.06 35.73,-160.29 -8.96,-25.14 -18.16,-50.9 5.84,-76.13" /><path
         id="path24"
         style="fill:#6c757d;fill-opacity:1;fill-rule:evenodd;stroke:none"
         d="m 1230.36,1595.62 c 14.3,-16.07 12.86,-40.67 -3.21,-54.96 -16.05,-14.28 -40.65,-12.84 -54.93,3.21 -82.93,93.24 -53.67,159.04 -23.89,226.04 20.37,45.79 41.11,92.45 -14.34,156.04 -14.12,16.13 -12.48,40.67 3.65,54.8 16.14,14.11 40.68,12.48 54.8,-3.67 88.11,-101.01 57.16,-170.6 26.82,-238.82 -19.45,-43.8 -38.58,-86.79 11.1,-142.64" /></g></g></svg>