<?xml version="1.0" encoding="UTF-8" standalone="no"?>
<svg
   xmlns:dc="http://purl.org/dc/elements/1.1/"
   xmlns:cc="http://creativecommons.org/ns#"
   xmlns:rdf="http://www.w3.org/1999/02/22-rdf-syntax-ns#"
   xmlns:svg="http://www.w3.org/2000/svg"
   xmlns="http://www.w3.org/2000/svg"
   xmlns:sodipodi="http://sodipodi.sourceforge.net/DTD/sodipodi-0.dtd"
   xmlns:inkscape="http://www.inkscape.org/namespaces/inkscape"
   version="1.1"
   id="svg2"
   xml:space="preserve"
   width="226.66667"
   height="226.66667"
   viewBox="0 0 226.66667 226.66667"
   sodipodi:docname="logo.eps"><metadata
     id="metadata8"><rdf:RDF><cc:Work
         rdf:about=""><dc:format>image/svg+xml</dc:format><dc:type
           rdf:resource="http://purl.org/dc/dcmitype/StillImage" /></cc:Work></rdf:RDF></metadata><defs
     id="defs6" /><sodipodi:namedview
     pagecolor="#ffffff"
     bordercolor="#666666"
     borderopacity="1"
     objecttolerance="10"
     gridtolerance="10"
     guidetolerance="10"
     inkscape:pageopacity="0"
     inkscape:pageshadow="2"
     inkscape:window-width="640"
     inkscape:window-height="480"
     id="namedview4" /><g
     id="g10"
     inkscape:groupmode="layer"
     inkscape:label="ink_ext_XXXXXX"
     transform="matrix(1.3333333,0,0,-1.3333333,0,226.66667)"><g
       id="g12"
       transform="scale(0.1)"><path
         d="m 875.469,1531.94 c -33.719,-53.04 -27.09,-120.61 11.66,-159.42 10.082,-10.02 145.101,-133.11 145.101,-255.08 V 558.238 c 0,-28.609 -23.12,-51.726 -51.73,-51.726 -28.488,0 -51.672,23.117 -51.672,51.726 V 1112 c 0,31.1 -25.207,56.37 -56.297,56.37 -30.84,0 -55.851,-24.87 -56.222,-55.58 0,-0.27 -0.098,-554.552 -0.098,-554.552 0,-28.609 -23.16,-51.726 -51.652,-51.726 -28.59,0 -51.629,23.117 -51.629,51.726 0,0 -0.121,554.282 -0.121,554.552 -0.368,30.71 -25.348,55.58 -56.18,55.58 -31.129,0 -56.379,-25.26 -56.379,-56.37 V 558.238 c 0,-28.609 -23.141,-51.726 -51.66,-51.726 -28.578,0 -51.68,23.117 -51.68,51.726 v 559.202 c 0,121.97 135.012,245.06 145.051,255.08 38.301,38.3 44.711,105.27 12.168,158.11 -23.141,38.76 -90.059,46.95 -154.481,20.18 C 245.172,1453.3 58.0117,1218.46 29.6992,937.449 c -2.5,-24.609 -3.7695,-49.5 -3.7695,-74.508 0,-25.062 1.2812,-49.882 3.7422,-74.5 C 46.4609,619.84 120.25,463.5 241.672,342.172 380.801,202.969 565.73,126.441 762.441,126.441 c 500.059,0 906.959,406.778 906.959,906.869 0,0 0,2.15 0,8.9 0,20.69 -12.25,40.92 -36.8,40.92 -45.23,0 -117.78,0 -124.85,0 -36.14,0 -40.4,6.29 -53.89,32.74 -73.92,203.04 -232.42,360.17 -428.86,435.07 -55.441,21.21 -125.289,17.53 -149.531,-19"
         style="fill:#e93d25;fill-opacity:1;fill-rule:nonzero;stroke:none"
         id="path14" /></g></g></svg>
