<?xml version="1.0" encoding="utf-8"?>
<!-- Generator: Adobe Illustrator 15.1.0, SVG Export Plug-In . SVG Version: 6.00 Build 0)  -->
<!DOCTYPE svg PUBLIC "-//W3C//DTD SVG 1.1//EN" "http://www.w3.org/Graphics/SVG/1.1/DTD/svg11.dtd">
<svg version="1.1" id="Layer_1" xmlns="http://www.w3.org/2000/svg" xmlns:xlink="http://www.w3.org/1999/xlink" x="0px" y="0px"
	 width="170px" height="170px" viewBox="0 0 170 170" enable-background="new 0 0 170 170" xml:space="preserve">
<g>
	<g>
		<path fill="#FFFFFF" d="M87.547,16.806c-3.372,5.304-2.709,12.061,1.166,15.942c1.008,1.002,14.51,13.311,14.51,25.508v55.92
			c0,2.861-2.312,5.173-5.173,5.173c-2.849,0-5.167-2.312-5.167-5.173V58.8c0-3.11-2.521-5.637-5.63-5.637
			c-3.084,0-5.585,2.487-5.622,5.558c0,0.027-0.01,55.455-0.01,55.455c0,2.861-2.316,5.173-5.165,5.173
			c-2.859,0-5.163-2.312-5.163-5.173c0,0-0.012-55.428-0.012-55.455c-0.037-3.071-2.535-5.558-5.618-5.558
			c-3.113,0-5.638,2.526-5.638,5.637v55.376c0,2.861-2.314,5.173-5.166,5.173c-2.858,0-5.168-2.312-5.168-5.173v-55.92
			c0-12.197,13.501-24.506,14.505-25.508c3.83-3.83,4.471-10.527,1.217-15.811c-2.314-3.876-9.006-4.695-15.448-2.018
			C24.517,24.67,5.801,48.154,2.97,76.255c-0.25,2.461-0.377,4.95-0.377,7.451c0,2.506,0.128,4.988,0.374,7.45
			c1.679,16.86,9.058,32.494,21.2,44.627c13.913,13.92,32.406,21.573,52.077,21.573c50.006,0,90.696-40.678,90.696-90.687
			c0,0,0-0.215,0-0.89c0-2.069-1.225-4.092-3.68-4.092c-4.523,0-11.778,0-12.485,0c-3.614,0-4.04-0.629-5.389-3.274
			c-7.392-20.304-23.242-36.017-42.886-43.507C96.956,12.785,89.971,13.153,87.547,16.806z"/>
	</g>
</g>
</svg>
