<?xml version="1.0" encoding="UTF-8" standalone="no"?>
<svg
   xmlns:dc="http://purl.org/dc/elements/1.1/"
   xmlns:cc="http://creativecommons.org/ns#"
   xmlns:rdf="http://www.w3.org/1999/02/22-rdf-syntax-ns#"
   xmlns:svg="http://www.w3.org/2000/svg"
   xmlns="http://www.w3.org/2000/svg"
   viewBox="0 0 333.33334 333.33334"
   height="333.33334"
   width="333.33334"
   xml:space="preserve"
   id="svg2"
   version="1.1"><metadata
     id="metadata8"><rdf:RDF><cc:Work
         rdf:about=""><dc:format>image/svg+xml</dc:format><dc:type
           rdf:resource="http://purl.org/dc/dcmitype/StillImage" /></cc:Work></rdf:RDF></metadata><defs
     id="defs6" /><g
     transform="matrix(1.3333333,0,0,-1.3333333,0,333.33333)"
     id="g10"><g
       transform="scale(0.1)"
       id="g12"><path
         id="path14"
         style="fill:#e3eaf1;fill-opacity:1;fill-rule:evenodd;stroke:none"
         d="M 2500,2500 H 0 V 0 h 2500 v 2500" /><path
         id="path16"
         style="fill:#6c757d;fill-opacity:1;fill-rule:evenodd;stroke:none"
         d="m 742.352,723.281 c 0,-38.98 32.199,-71.203 71.187,-71.203 169.359,0 338.711,0 508.061,0 v 29.184 H 957.25 V 1238.33 H 941.711 V 681.262 H 913.488 V 1238.33 H 882.41 V 681.262 H 845.371 V 1238.33 H 742.352 c 0,-171.68 0,-343.361 0,-515.049 z M 793.648,1812.42 C 841.34,1735.01 744.121,1721.04 643,1695.94 c -99.891,-24.77 -214.352,-76.29 -222.801,-194.57 -4.488,-63.17 47.84,-126.28 110.762,-128.8 -49.762,33.58 -84.391,102.29 -53.512,161.73 29.039,55.83 114.59,91.64 194.789,119.43 49.262,17.05 239.903,72.31 121.41,158.69 z m -61.597,96.37 c 82.648,-34.37 308.079,-90.35 206.34,-180.69 -84.75,-75.21 -384.571,-124.34 -395.192,-246.81 -7.027,-81.16 122.5,-141.77 205.672,-112.08 -52.461,0.64 -152.551,31.95 -159.41,92.44 -6.109,53.79 110.617,93.18 223.891,137.72 69.699,27.42 237.878,95.9 225.238,188.88 -11.37,83.4 -180.11,132.88 -306.539,120.54 z m 610.359,-185.43 c -48,3.89 -88.81,-16.14 -91.12,-44.73 -1,-12.26 5.26,-24.08 16.48,-33.92 -3,5.86 -4.37,12.02 -3.87,18.31 2.31,28.59 43.1,48.62 91.1,44.75 27.44,-2.22 51.31,-11.77 66.26,-24.88 -10.62,20.76 -41.41,37.45 -78.85,40.47 z m -560.531,-249.21 122.723,-9.91 c 103.938,45.32 222.848,61.66 330.628,80.73 -110.94,3.57 -227.97,-2.77 -331.968,-26.92 -23.121,-5.38 -80.762,-21.13 -121.383,-43.9 z m 605.341,104.58 c 310.66,-34.24 549.11,-138.29 549.14,-242.52 L 694.648,1436.55 c 16.782,102.88 268.832,167.28 580.952,151.2 0.6,6.86 2.45,13.31 5.26,19.18 -39.53,15.37 -65.43,43.37 -63.05,73.17 3.36,41.42 60.06,70.63 126.7,65.25 66.63,-5.38 117.92,-43.32 114.56,-84.73 -2.38,-29.8 -32.46,-53.3 -73.95,-62.1 1.83,-6.26 2.61,-12.91 2.1,-19.79 z m 416.13,-340.4 V 659.488 c 23.49,11.703 39.83,36.012 39.83,63.793 0,171.688 0,343.369 0,515.049 z M 665.199,1315.47 H 1911.41 v -71.87 c 0.14,-18.81 9.93,-27.56 28.88,-26.76 l 125.09,12.13 c 8.08,0.78 14.69,-5.26 14.69,-13.41 V 1152 c 0,-8.15 -7.53,-12.47 -14.69,-16.27 l -130.03,-68.99 c -12.79,-7.35 -23.12,-17.85 -23.94,-31.35 V 737.699 c 0,-81.59 -66.77,-148.359 -148.34,-148.359 H 813.539 c -81.559,0 -148.34,66.769 -148.34,148.359 v 297.691 c -0.808,13.5 -11.148,24 -23.918,31.35 l -130.031,68.99 c -7.172,3.8 -14.699,8.12 -14.699,16.27 v 63.56 c 0,8.15 6.597,14.19 14.699,13.41 l 125.078,-12.13 c 18.953,-0.8 28.731,7.95 28.871,26.76 v 71.87" /></g></g></svg>