<?xml version="1.0" encoding="utf-8"?>
<!-- Generator: Adobe Illustrator 15.1.0, SVG Export Plug-In . SVG Version: 6.00 Build 0)  -->
<!DOCTYPE svg PUBLIC "-//W3C//DTD SVG 1.1//EN" "http://www.w3.org/Graphics/SVG/1.1/DTD/svg11.dtd">
<svg version="1.1" id="Layer_1" xmlns="http://www.w3.org/2000/svg" xmlns:xlink="http://www.w3.org/1999/xlink" x="0px" y="0px"
	 width="230px" height="87px" viewBox="0 0 230 87" enable-background="new 0 0 230 87" xml:space="preserve">
<g>
	<g>
		<path fill="#E93D25" d="M35.47,9.652c-1.327,2.084-1.066,4.739,0.457,6.265c0.396,0.394,5.702,5.229,5.702,10.023v21.972
			c0,1.124-0.908,2.032-2.033,2.032c-1.12,0-2.03-0.908-2.03-2.032V26.153c0-1.222-0.991-2.213-2.213-2.213
			c-1.21,0-2.194,0.976-2.208,2.183c0,0.01-0.003,21.789-0.003,21.789c0,1.124-0.91,2.032-2.03,2.032
			c-1.123,0-2.028-0.908-2.028-2.032c0,0-0.005-21.779-0.005-21.789c-0.014-1.207-0.996-2.183-2.208-2.183
			c-1.224,0-2.214,0.991-2.214,2.213v21.759c0,1.124-0.91,2.032-2.029,2.032c-1.124,0-2.032-0.908-2.032-2.032V25.94
			c0-4.794,5.306-9.63,5.7-10.023c1.506-1.504,1.757-4.136,0.479-6.212c-0.911-1.523-3.539-1.846-6.071-0.793
			C10.703,12.743,3.349,21.97,2.237,33.013c-0.098,0.967-0.149,1.945-0.149,2.927c0,0.985,0.051,1.96,0.147,2.928
			c0.66,6.624,3.56,12.766,8.331,17.534c5.467,5.469,12.732,8.477,20.461,8.477c19.649,0,35.638-15.984,35.638-35.634
			c0,0,0-0.084,0-0.348c0-0.813-0.481-1.608-1.446-1.608c-1.778,0-4.628,0-4.907,0c-1.42,0-1.587-0.248-2.117-1.287
			c-2.903-7.977-9.132-14.152-16.85-17.094C39.166,8.072,36.421,8.217,35.47,9.652z"/>
	</g>
</g>
<g>
	<g>
		<path fill="#5F6768" d="M111.671,33.972v16.595c0,1.44-0.998,2.508-2.348,2.508c-1.467,0-2.465-1.067-2.465-2.508V33.972
			c0-2.561-2.407-3.842-5.224-3.842c-2.876,0-5.753,2.188-5.753,4.322v16.115c0,1.44-0.998,2.508-2.348,2.508
			c-1.351,0-2.407-1.067-2.407-2.508V34.453v-0.267c0-0.106,0-0.16,0-0.213c0-2.561-2.818-3.842-5.694-3.842
			c-2.348,0-5.224,2.188-5.224,4.322v16.115c0,1.44-0.939,2.508-2.407,2.508c-1.35,0-2.407-1.067-2.407-2.508V28.903
			c0-1.388,1.057-2.508,2.407-2.508c0.939,0,1.644,0.427,1.996,1.067c1.644-1.014,3.64-1.654,5.635-1.654
			c3.581,0,6.516,1.174,8.395,3.095c1.937-1.868,4.696-3.095,7.807-3.095C107.328,25.808,111.671,29.277,111.671,33.972z"/>
		<path fill="#5F6768" d="M129.454,53.608c-7.866,0-13.267-5.815-13.267-13.873c0-7.577,5.87-13.874,13.267-13.874
			c7.396,0,13.207,5.816,13.207,12.966c0,1.174-0.88,2.241-2.406,2.241h-19.137c0.47,4.909,3.874,8.004,8.336,8.004
			c3.404,0,6.104-1.708,7.396-3.095c2.231-2.401,5.812,0.373,3.875,2.668C138.846,50.94,134.326,53.608,129.454,53.608z
			 M121.588,36.64h15.731c-0.998-3.628-3.991-6.243-7.865-6.243C125.99,30.397,122.586,33.012,121.588,36.64z"/>
		<path fill="#5F6768" d="M169.309,34.719v15.902c0,1.387-0.998,2.454-2.349,2.454c-1.408,0-2.406-1.067-2.406-2.454V35.04
			c0-2.241-2.936-4.856-6.34-4.856c-3.815,0-6.281,3.095-6.281,4.856v15.582c0,1.387-0.998,2.454-2.348,2.454
			c-1.409,0-2.407-1.067-2.407-2.454V28.85c0-1.387,1.057-2.455,2.407-2.455c0.939,0,1.702,0.534,2.113,1.281
			c1.702-1.121,3.874-1.868,6.516-1.868c5.518,0,10.625,4.002,11.036,8.591C169.309,34.506,169.309,34.613,169.309,34.719z"/>
		<path fill="#5F6768" d="M187.151,53.608c-7.455,0-13.442-6.296-13.442-13.98c0-7.63,5.987-13.98,13.442-13.98
			c6.927,0,12.914,6.35,12.914,13.98C200.065,47.312,194.078,53.608,187.151,53.608z M187.151,30.184
			c-4.99,0-8.453,4.056-8.453,9.445c0,4.962,3.463,9.499,8.453,9.499c4.461,0,7.925-4.536,7.925-9.499
			C195.076,34.239,191.612,30.184,187.151,30.184z"/>
		<path fill="#5F6768" d="M226.596,34.719v15.902c0,1.387-0.998,2.454-2.349,2.454c-1.408,0-2.406-1.067-2.406-2.454V35.04
			c0-2.241-2.936-4.856-6.34-4.856c-3.815,0-6.281,3.095-6.281,4.856v15.582c0,1.387-0.998,2.454-2.348,2.454
			c-1.409,0-2.407-1.067-2.407-2.454V28.85c0-1.387,1.057-2.455,2.407-2.455c0.939,0,1.702,0.534,2.113,1.281
			c1.702-1.121,3.874-1.868,6.516-1.868c5.518,0,10.625,4.002,11.036,8.591C226.596,34.506,226.596,34.613,226.596,34.719z"/>
	</g>
</g>
</svg>
