<?xml version="1.0" encoding="UTF-8" standalone="no"?>
<svg
   xmlns:dc="http://purl.org/dc/elements/1.1/"
   xmlns:cc="http://creativecommons.org/ns#"
   xmlns:rdf="http://www.w3.org/1999/02/22-rdf-syntax-ns#"
   xmlns:svg="http://www.w3.org/2000/svg"
   xmlns="http://www.w3.org/2000/svg"
   xmlns:sodipodi="http://sodipodi.sourceforge.net/DTD/sodipodi-0.dtd"
   xmlns:inkscape="http://www.inkscape.org/namespaces/inkscape"
   version="1.1"
   id="svg2"
   xml:space="preserve"
   width="306.66666"
   height="116"
   viewBox="0 0 306.66666 116"
   sodipodi:docname="logo-menon-h-b.eps"><metadata
     id="metadata8"><rdf:RDF><cc:Work
         rdf:about=""><dc:format>image/svg+xml</dc:format><dc:type
           rdf:resource="http://purl.org/dc/dcmitype/StillImage" /></cc:Work></rdf:RDF></metadata><defs
     id="defs6" /><sodipodi:namedview
     pagecolor="#ffffff"
     bordercolor="#666666"
     borderopacity="1"
     objecttolerance="10"
     gridtolerance="10"
     guidetolerance="10"
     inkscape:pageopacity="0"
     inkscape:pageshadow="2"
     inkscape:window-width="640"
     inkscape:window-height="480"
     id="namedview4" /><g
     id="g10"
     inkscape:groupmode="layer"
     inkscape:label="ink_ext_XXXXXX"
     transform="matrix(1.3333333,0,0,-1.3333333,0,116)"><g
       id="g12"
       transform="scale(0.1)"><path
         d="m 354.699,773.48 c -13.269,-20.839 -10.66,-47.39 4.571,-62.652 3.96,-3.937 57.019,-52.289 57.019,-100.226 V 390.879 c 0,-11.238 -9.078,-20.32 -20.328,-20.32 -11.199,0 -20.301,9.082 -20.301,20.32 v 217.59 c 0,12.222 -9.91,22.133 -22.129,22.133 -12.101,0 -21.941,-9.762 -22.082,-21.832 0,-0.098 -0.027,-217.891 -0.027,-217.891 0,-11.238 -9.102,-20.32 -20.301,-20.32 -11.23,0 -20.281,9.082 -20.281,20.32 0,0 -0.051,217.793 -0.051,217.891 -0.141,12.07 -9.961,21.832 -22.078,21.832 -12.242,0 -22.141,-9.911 -22.141,-22.133 v -217.59 c 0,-11.238 -9.101,-20.32 -20.289,-20.32 -11.242,0 -20.32,9.082 -20.32,20.32 v 219.723 c 0,47.937 53.059,96.296 57,100.226 15.059,15.043 17.57,41.363 4.789,62.121 -9.109,15.231 -35.391,18.461 -60.711,7.93 C 107.031,742.57 33.4883,650.301 22.3711,539.871 c -0.9805,-9.672 -1.4922,-19.449 -1.4922,-29.269 0,-9.852 0.5117,-19.602 1.4727,-29.282 6.5976,-66.242 35.5976,-127.66 83.3084,-175.34 54.668,-54.691 127.32,-84.769 204.61,-84.769 196.492,0 356.378,159.84 356.378,356.34 0,0 0,0.84 0,3.48 0,8.129 -4.808,16.078 -14.457,16.078 -17.781,0 -46.281,0 -49.07,0 -14.199,0 -15.871,2.481 -21.172,12.871 -29.027,79.77 -91.32,141.52 -168.5,170.942 -21.789,8.359 -49.238,6.906 -58.75,-7.442"
         style="fill:#e93d25;fill-opacity:1;fill-rule:nonzero;stroke:none"
         id="path14" /><path
         d="M 1116.71,530.281 V 364.328 c 0,-14.398 -9.98,-25.078 -23.48,-25.078 -14.67,0 -24.65,10.672 -24.65,25.078 v 165.953 c 0,25.61 -24.07,38.418 -52.24,38.418 -28.762,0 -57.531,-21.879 -57.531,-43.219 V 364.328 c 0,-14.398 -9.981,-25.078 -23.481,-25.078 -13.508,0 -24.066,10.672 -24.066,25.078 V 530.27 c 0,25.609 -28.184,38.421 -56.942,38.421 -23.48,0 -52.242,-21.882 -52.242,-43.222 V 364.32 c 0,-14.398 -9.387,-25.082 -24.066,-25.082 -13.5,0 -24.071,10.672 -24.071,25.082 v 216.649 c 0,13.883 10.571,25.082 24.071,25.082 9.386,0 16.437,-4.27 19.957,-10.672 16.441,10.141 36.402,16.543 56.351,16.543 35.809,0 65.16,-11.742 83.95,-30.953 19.371,18.679 46.96,30.953 78.07,30.953 56.94,0 100.37,-34.692 100.37,-81.641"
         style="fill:#ffffff;fill-opacity:1;fill-rule:nonzero;stroke:none"
         id="path16" /><path
         d="m 1294.54,333.922 c -78.66,0 -132.67,58.148 -132.67,138.726 0,75.774 58.7,138.743 132.67,138.743 73.96,0 132.07,-58.161 132.07,-129.661 0,-11.742 -8.8,-22.41 -24.06,-22.41 h -191.37 c 4.7,-49.09 38.74,-80.039 83.36,-80.039 34.04,0 61.04,17.078 73.96,30.949 22.31,24.008 58.12,-3.73 38.75,-26.679 -18.79,-22.949 -63.99,-49.629 -112.71,-49.629 z m -78.66,169.68 h 157.31 c -9.98,36.277 -39.91,62.429 -78.65,62.429 -34.64,0 -68.68,-26.152 -78.66,-62.429"
         style="fill:#ffffff;fill-opacity:1;fill-rule:nonzero;stroke:none"
         id="path18" /><path
         d="m 1693.09,522.809 v -159.02 c 0,-13.867 -9.98,-24.539 -23.49,-24.539 -14.08,0 -24.06,10.672 -24.06,24.539 v 155.813 c 0,22.41 -29.36,48.558 -63.4,48.558 -38.15,0 -62.81,-30.949 -62.81,-48.558 V 363.781 c 0,-13.871 -9.98,-24.543 -23.48,-24.543 -14.09,0 -24.07,10.672 -24.07,24.543 V 581.5 c 0,13.871 10.57,24.551 24.07,24.551 9.39,0 17.02,-5.34 21.13,-12.813 17.02,11.211 38.74,18.684 65.16,18.684 55.18,0 106.25,-40.024 110.36,-85.91 0.59,-1.071 0.59,-2.141 0.59,-3.203"
         style="fill:#ffffff;fill-opacity:1;fill-rule:nonzero;stroke:none"
         id="path20" /><path
         d="m 1871.51,333.922 c -74.55,0 -134.42,62.957 -134.42,139.797 0,76.301 59.87,139.801 134.42,139.801 69.27,0 129.14,-63.5 129.14,-139.801 0,-76.84 -59.87,-139.797 -129.14,-139.797 z m 0,234.238 c -49.9,0 -84.53,-40.558 -84.53,-94.449 0,-49.621 34.63,-94.992 84.53,-94.992 44.61,0 79.25,45.359 79.25,94.992 0,53.898 -34.64,94.449 -79.25,94.449"
         style="fill:#ffffff;fill-opacity:1;fill-rule:nonzero;stroke:none"
         id="path22" /><path
         d="m 2265.96,522.809 v -159.02 c 0,-13.867 -9.98,-24.539 -23.49,-24.539 -14.08,0 -24.06,10.672 -24.06,24.539 v 155.813 c 0,22.41 -29.36,48.558 -63.4,48.558 -38.15,0 -62.81,-30.949 -62.81,-48.558 V 363.781 c 0,-13.871 -9.98,-24.543 -23.48,-24.543 -14.09,0 -24.07,10.672 -24.07,24.543 V 581.5 c 0,13.871 10.57,24.551 24.07,24.551 9.39,0 17.02,-5.34 21.13,-12.813 17.02,11.211 38.74,18.684 65.16,18.684 55.18,0 106.25,-40.024 110.36,-85.91 0.59,-1.071 0.59,-2.141 0.59,-3.203"
         style="fill:#ffffff;fill-opacity:1;fill-rule:nonzero;stroke:none"
         id="path24" /></g></g></svg>
