<?xml version="1.0" encoding="UTF-8" standalone="no"?>
<svg
   xmlns:dc="http://purl.org/dc/elements/1.1/"
   xmlns:cc="http://creativecommons.org/ns#"
   xmlns:rdf="http://www.w3.org/1999/02/22-rdf-syntax-ns#"
   xmlns:svg="http://www.w3.org/2000/svg"
   xmlns="http://www.w3.org/2000/svg"
   viewBox="0 0 333.33334 333.33334"
   height="333.33334"
   width="333.33334"
   xml:space="preserve"
   id="svg2"
   version="1.1"><metadata
     id="metadata8"><rdf:RDF><cc:Work
         rdf:about=""><dc:format>image/svg+xml</dc:format><dc:type
           rdf:resource="http://purl.org/dc/dcmitype/StillImage" /></cc:Work></rdf:RDF></metadata><defs
     id="defs6" /><g
     transform="matrix(1.3333333,0,0,-1.3333333,0,333.33333)"
     id="g10"><g
       transform="scale(0.1)"
       id="g12"><path
         id="path14"
         style="fill:#e3eaf1;fill-opacity:1;fill-rule:evenodd;stroke:none"
         d="M 2500,2500 H 0 V 0 h 2500 v 2500" /><path
         id="path16"
         style="fill:#6c757d;fill-opacity:1;fill-rule:nonzero;stroke:none"
         d="M 788,1032.73 H 494.488 l 5.942,66.83 h 279.23 z m 64.52,167.12 H 507.191 l -33.402,534.8 H 412.172 V 798.762 h 61.617 l 17.77,200.547 H 792.211 L 817.34,798.762 h 35.18 v 401.088" /><path
         id="path18"
         style="fill:#6c757d;fill-opacity:1;fill-rule:nonzero;stroke:none"
         d="m 1997.02,1032.73 h -293.51 l 8.38,66.83 h 279.23 z m -12.7,167.12 H 1613.7 V 798.73 h 60.54 l 25.14,200.54 h 300.65 l 17.76,-200.54 h 70.04 v 935.92 h -70.07 l -33.44,-534.8" /><path
         id="path20"
         style="fill:#6c757d;fill-opacity:1;fill-rule:nonzero;stroke:none"
         d="m 1944.3,1429.86 v 108.21 c 0,16.27 -13.36,29.46 -29.84,29.46 H 585.539 c -16.48,0 -29.84,-13.19 -29.84,-29.46 v -108.21 c 0,-16.28 13.36,-29.46 29.84,-29.46 h 376.609 v -66.83 H 1097.63 V 835.922 c 0,-1.301 0.31,-2.473 0.39,-3.742 H 962.18 v -66.828 h 575.75 v 66.828 h -135.82 c 0.07,1.261 0.38,2.48 0.38,3.742 v 497.648 h 135.49 v 66.83 h 376.59 c 16.41,0 29.73,13.18 29.73,29.46" /></g></g></svg>