<?xml version="1.0" encoding="UTF-8" standalone="no"?>
<svg
   xmlns:dc="http://purl.org/dc/elements/1.1/"
   xmlns:cc="http://creativecommons.org/ns#"
   xmlns:rdf="http://www.w3.org/1999/02/22-rdf-syntax-ns#"
   xmlns:svg="http://www.w3.org/2000/svg"
   xmlns="http://www.w3.org/2000/svg"
   xmlns:sodipodi="http://sodipodi.sourceforge.net/DTD/sodipodi-0.dtd"
   xmlns:inkscape="http://www.inkscape.org/namespaces/inkscape"
   version="1.1"
   id="svg2"
   xml:space="preserve"
   width="440"
   height="320"
   viewBox="0 0 440 320"
   sodipodi:docname="outros.eps"><metadata
     id="metadata8"><rdf:RDF><cc:Work
         rdf:about=""><dc:format>image/svg+xml</dc:format><dc:type
           rdf:resource="http://purl.org/dc/dcmitype/StillImage" /></cc:Work></rdf:RDF></metadata><defs
     id="defs6" /><sodipodi:namedview
     pagecolor="#ffffff"
     bordercolor="#666666"
     borderopacity="1"
     objecttolerance="10"
     gridtolerance="10"
     guidetolerance="10"
     inkscape:pageopacity="0"
     inkscape:pageshadow="2"
     inkscape:window-width="640"
     inkscape:window-height="480"
     id="namedview4" /><g
     id="g10"
     inkscape:groupmode="layer"
     inkscape:label="ink_ext_XXXXXX"
     transform="matrix(1.3333333,0,0,-1.3333333,0,320)"><g
       id="g12"
       transform="scale(0.1)"><path
         d="M 2963.75,50 H 336.25 C 171.211,50 37.4219,185.488 37.4219,352.641 V 2047.37 c 0,167.14 133.7891,302.63 298.8281,302.63 h 2627.5 c 165.04,0 298.85,-135.49 298.85,-302.63 V 352.629 C 3262.6,185.488 3128.79,50 2963.75,50"
         style="fill:#909090;fill-opacity:1;fill-rule:nonzero;stroke:none"
         id="path14" /><path
         d="M 2963.75,50 H 336.25 C 171.211,50 37.4219,185.488 37.4219,352.641 V 2047.37 c 0,167.14 133.7891,302.63 298.8281,302.63 h 2627.5 c 165.04,0 298.85,-135.49 298.85,-302.63 V 352.629 C 3262.6,185.488 3128.79,50 2963.75,50"
         style="fill:none;stroke:#909090;stroke-width:55;stroke-linecap:round;stroke-linejoin:round;stroke-miterlimit:10;stroke-dasharray:none;stroke-opacity:1"
         id="path16" /><path
         d="m 280.699,1201.15 c 0,49.07 7.34,90.26 22.02,123.56 10.953,24.53 25.902,46.55 44.851,66.05 18.95,19.49 39.711,33.95 62.27,43.37 30.012,12.71 64.629,19.06 103.84,19.06 70.98,0 127.769,-22.02 170.379,-66.05 42.613,-44.03 63.921,-105.26 63.921,-183.69 0,-77.77 -21.14,-138.62 -63.421,-182.54 -42.289,-43.922 -98.809,-65.89 -169.571,-65.89 -71.629,0 -128.59,21.859 -170.867,65.56 -42.281,43.71 -63.422,103.9 -63.422,180.57 z m 100.223,3.29 c 0,-54.55 12.598,-95.9 37.789,-124.05 25.199,-28.15 57.18,-42.23 95.961,-42.23 38.769,0 70.59,13.97 95.457,41.9 24.859,27.93 37.293,69.83 37.293,125.69 0,55.21 -12.102,96.39 -36.313,123.56 -24.211,27.16 -56.347,40.74 -96.437,40.74 -40.094,0 -72.41,-13.74 -96.942,-41.24 -24.539,-27.49 -36.808,-68.95 -36.808,-124.37"
         style="fill:#ffffff;fill-opacity:1;fill-rule:nonzero;stroke:none"
         id="path18" /><path
         d="m 806.398,1444.98 h 97.274 v -260.92 c 0,-41.4 1.199,-68.24 3.609,-80.51 4.168,-19.71 14.078,-35.54 29.739,-47.48 15.671,-11.94 37.082,-17.91 64.25,-17.91 27.6,0 48.41,5.64 62.43,16.92 14.02,11.29 22.46,25.14 25.3,41.57 2.85,16.43 4.28,43.71 4.28,81.83 v 266.5 h 97.26 v -253.03 c 0,-57.84 -2.63,-98.69 -7.88,-122.57 -5.26,-23.88 -14.96,-44.03 -29.09,-60.46 -14.13,-16.432 -33.02,-29.522 -56.68,-39.272 -23.66,-9.75 -54.55,-14.628 -92.67,-14.628 -46.001,0 -80.892,5.32 -104.661,15.941 -23.77,10.629 -42.547,24.43 -56.348,41.409 -13.813,16.97 -22.902,34.77 -27.281,53.39 -6.352,27.61 -9.532,68.35 -9.532,122.25 v 256.97"
         style="fill:#ffffff;fill-opacity:1;fill-rule:nonzero;stroke:none"
         id="path20" /><path
         d="m 1384.68,963.238 v 400.242 h -142.94 v 81.5 h 382.83 v -81.5 H 1481.95 V 963.238 h -97.27"
         style="fill:#ffffff;fill-opacity:1;fill-rule:nonzero;stroke:none"
         id="path22" /><path
         d="m 1670.83,963.238 v 481.742 h 204.73 c 51.48,0 88.88,-4.33 112.21,-12.98 23.34,-8.66 42.01,-24.05 56.03,-46.17 14.02,-22.13 21.03,-47.43 21.03,-75.91 0,-36.15 -10.62,-66 -31.87,-89.55 -21.25,-23.55 -53.02,-38.39 -95.3,-44.52 21.03,-12.27 38.39,-25.74 52.09,-40.42 13.69,-14.68 32.14,-40.75 55.37,-78.21 l 58.82,-93.982 h -116.33 l -70.32,104.822 c -24.98,37.47 -42.06,61.07 -51.26,70.82 -9.21,9.75 -18.95,16.43 -29.25,20.04 -10.3,3.62 -26.62,5.43 -48.96,5.43 H 1768.1 V 963.238 Z m 97.27,278.002 h 71.97 c 46.66,0 75.79,1.97 87.4,5.91 11.62,3.95 20.71,10.74 27.28,20.38 6.57,9.64 9.86,21.69 9.86,36.15 0,16.21 -4.33,29.3 -12.98,39.26 -8.66,9.97 -20.87,16.27 -36.64,18.9 -7.89,1.09 -31.55,1.64 -70.98,1.64 h -75.91 v -122.24"
         style="fill:#ffffff;fill-opacity:1;fill-rule:nonzero;stroke:none"
         id="path24" /><path
         d="m 2119.97,1201.15 c 0,49.07 7.34,90.26 22.02,123.56 10.95,24.53 25.9,46.55 44.85,66.05 18.95,19.49 39.71,33.95 62.27,43.37 30.02,12.71 64.63,19.06 103.84,19.06 70.98,0 127.78,-22.02 170.39,-66.05 42.61,-44.03 63.91,-105.26 63.91,-183.69 0,-77.77 -21.14,-138.62 -63.42,-182.54 -42.28,-43.922 -98.8,-65.89 -169.56,-65.89 -71.64,0 -128.6,21.859 -170.88,65.56 -42.28,43.71 -63.42,103.9 -63.42,180.57 z m 100.23,3.29 c 0,-54.55 12.59,-95.9 37.79,-124.05 25.19,-28.15 57.17,-42.23 95.95,-42.23 38.78,0 70.6,13.97 95.46,41.9 24.86,27.93 37.3,69.83 37.3,125.69 0,55.21 -12.11,96.39 -36.31,123.56 -24.21,27.16 -56.36,40.74 -96.45,40.74 -40.09,0 -72.4,-13.74 -96.94,-41.24 -24.53,-27.49 -36.8,-68.95 -36.8,-124.37"
         style="fill:#ffffff;fill-opacity:1;fill-rule:nonzero;stroke:none"
         id="path26" /><path
         d="m 2621.69,1119.98 94.64,9.21 c 5.69,-31.77 17.25,-55.1 34.66,-70 17.42,-14.89 40.92,-22.34 70.49,-22.34 31.33,0 54.93,6.62 70.82,19.88 15.88,13.25 23.82,28.75 23.82,46.5 0,11.39 -3.34,21.08 -10.02,29.08 -6.69,7.99 -18.35,14.95 -35,20.86 -11.39,3.95 -37.35,10.96 -77.88,21.03 -52.14,12.93 -88.72,28.81 -109.75,47.65 -29.58,26.51 -44.37,58.82 -44.37,96.94 0,24.54 6.96,47.48 20.87,68.84 13.91,21.36 33.96,37.63 60.14,48.8 26.17,11.17 57.78,16.76 94.8,16.76 60.46,0 105.97,-13.25 136.53,-39.76 30.56,-26.51 46.61,-61.89 48.15,-106.14 l -97.27,-4.27 c -4.16,24.75 -13.09,42.55 -26.78,53.4 -13.7,10.84 -34.23,16.26 -61.62,16.26 -28.26,0 -50.38,-5.8 -66.38,-17.41 -10.29,-7.45 -15.44,-17.42 -15.44,-29.91 0,-11.39 4.82,-21.14 14.46,-29.24 12.27,-10.3 42.06,-21.03 89.38,-32.21 47.32,-11.17 82.32,-22.72 104.99,-34.66 22.67,-11.94 40.42,-28.26 53.23,-48.97 12.82,-20.7 19.23,-46.28 19.23,-76.73 0,-27.6 -7.67,-53.45 -23.01,-77.55 -15.33,-24.09 -37.02,-42 -65.06,-53.719 -28.04,-11.722 -62.98,-17.582 -104.83,-17.582 -60.9,0 -107.67,14.071 -140.31,42.223 -32.64,28.148 -52.14,69.168 -58.49,123.058"
         style="fill:#ffffff;fill-opacity:1;fill-rule:nonzero;stroke:none"
         id="path28" /></g></g></svg>
