<?xml version="1.0" encoding="UTF-8" standalone="no"?>
<svg
   xmlns:dc="http://purl.org/dc/elements/1.1/"
   xmlns:cc="http://creativecommons.org/ns#"
   xmlns:rdf="http://www.w3.org/1999/02/22-rdf-syntax-ns#"
   xmlns:svg="http://www.w3.org/2000/svg"
   xmlns="http://www.w3.org/2000/svg"
   viewBox="0 0 333.33334 333.33334"
   height="333.33334"
   width="333.33334"
   xml:space="preserve"
   id="svg2"
   version="1.1"><metadata
     id="metadata8"><rdf:RDF><cc:Work
         rdf:about=""><dc:format>image/svg+xml</dc:format><dc:type
           rdf:resource="http://purl.org/dc/dcmitype/StillImage" /></cc:Work></rdf:RDF></metadata><defs
     id="defs6" /><g
     transform="matrix(1.3333333,0,0,-1.3333333,0,333.33333)"
     id="g10"><g
       transform="scale(0.1)"
       id="g12"><path
         id="path14"
         style="fill:#e3eaf1;fill-opacity:1;fill-rule:evenodd;stroke:none"
         d="M 2500,2500 H 0 V 0 h 2500 v 2500" /><path
         id="path16"
         style="fill:#6c757d;fill-opacity:1;fill-rule:nonzero;stroke:none"
         d="m 996.051,693.141 c 9.509,0 19.019,-3.629 26.279,-10.891 l 58.37,-58.371 58.37,58.371 c 14.52,14.52 38.05,14.512 52.57,0 l 58.36,-58.371 58.37,58.371 c 14.51,14.512 38.05,14.512 52.56,0 l 58.38,-58.371 58.36,58.371 c 14.51,14.512 38.05,14.512 52.57,0 l 58.37,-58.371 58.36,58.371 c 6.97,6.969 16.43,10.891 26.28,10.891 9.86,0 19.32,-3.922 26.29,-10.891 l 21.19,-21.191 V 1891.52 H 779.27 V 661.051 l 21.199,21.199 c 14.511,14.52 38.051,14.512 52.57,0 l 58.359,-58.371 58.364,58.371 c 7.258,7.262 16.769,10.891 26.289,10.891 z m 761.859,-159 c -9.67,0 -19.18,3.781 -26.29,10.89 l -58.37,58.36 -58.36,-58.36 c -14.51,-14.519 -38.05,-14.519 -52.57,0 l -58.37,58.36 -58.36,-58.36 c -14.51,-14.519 -38.05,-14.519 -52.57,0 l -58.37,58.36 -58.36,-58.36 c -6.97,-6.972 -16.43,-10.89 -26.29,-10.89 -9.86,0 -19.31,3.918 -26.28,10.89 l -58.36,58.36 -58.37,-58.36 c -14.52,-14.519 -38.05,-14.519 -52.57,0 l -58.369,58.36 -58.371,-58.36 c -6.961,-6.972 -16.418,-10.89 -26.282,-10.89 -9.859,0 -19.308,3.918 -26.289,10.89 l -58.359,58.36 -58.371,-58.36 c -10.629,-10.64 -26.609,-13.812 -40.508,-8.062 -13.891,5.75 -22.941,19.312 -22.941,34.34 V 1928.69 c 0,20.53 16.64,37.17 37.172,37.17 H 1757.9 c 20.53,0 37.17,-16.64 37.17,-37.17 V 571.309 c 0,-15.028 -9.05,-28.59 -22.95,-34.34 -4.59,-1.91 -9.42,-2.828 -14.21,-2.828" /><path
         id="path18"
         style="fill:#6c757d;fill-opacity:1;fill-rule:nonzero;stroke:none"
         d="M 1567.38,1692.68 H 930.102 c -20.532,0 -37.172,16.64 -37.172,37.17 0,20.53 16.64,37.17 37.172,37.17 h 637.278 c 20.53,0 37.17,-16.64 37.17,-37.17 0,-20.53 -16.64,-37.17 -37.17,-37.17" /><path
         id="path20"
         style="fill:#6c757d;fill-opacity:1;fill-rule:nonzero;stroke:none"
         d="M 1250,1525.85 H 930.102 c -20.532,0 -37.172,16.64 -37.172,37.17 0,20.53 16.64,37.18 37.172,37.18 H 1250 c 20.54,0 37.18,-16.65 37.18,-37.18 0,-20.53 -16.64,-37.17 -37.18,-37.17" /><path
         id="path22"
         style="fill:#6c757d;fill-opacity:1;fill-rule:nonzero;stroke:none"
         d="M 1567.38,1371.04 H 930.102 c -20.532,0 -37.172,16.65 -37.172,37.17 0,20.54 16.64,37.18 37.172,37.18 h 637.278 c 20.53,0 37.17,-16.64 37.17,-37.18 0,-20.52 -16.64,-37.17 -37.17,-37.17" /><path
         id="path24"
         style="fill:#6c757d;fill-opacity:1;fill-rule:nonzero;stroke:none"
         d="M 1250,1204.21 H 930.102 c -20.532,0 -37.172,16.64 -37.172,37.17 0,20.53 16.64,37.17 37.172,37.17 H 1250 c 20.54,0 37.18,-16.64 37.18,-37.17 0,-20.53 -16.64,-37.17 -37.18,-37.17" /><path
         id="path26"
         style="fill:#6c757d;fill-opacity:1;fill-rule:nonzero;stroke:none"
         d="m 1487.46,964.469 v -65.68 c 22.21,3.313 33.55,13.699 33.55,30.711 0,15.602 -8.04,25.988 -33.55,34.969 z m -44.41,82.681 v 63.78 c -22.68,-3.31 -32.6,-14.65 -32.6,-29.76 0,-14.66 6.62,-24.58 32.6,-34.02 z m 22.2,153.08 c 13.7,0 24.57,-10.87 24.57,-24.57 v -6.62 c 25.52,-3.78 48.2,-11.34 68.51,-22.68 8.98,-5.2 17.01,-14.17 17.01,-28.35 0,-17.94 -14.17,-31.65 -32.13,-31.65 -5.66,0 -11.34,1.41 -16.54,4.25 -13.22,7.09 -26.45,12.76 -39.21,16.07 v -71.82 c 71.82,-19.37 102.53,-48.661 102.53,-101.579 0,-52.91 -40.64,-86.929 -100.17,-93.551 v -25.039 c 0,-13.703 -10.87,-24.562 -24.57,-24.562 -13.7,0 -24.56,10.859 -24.56,24.562 v 25.52 c -33.55,4.25 -65.21,16.059 -93.08,33.07 -9.92,6.141 -16.06,15.59 -16.06,28.348 0,18.422 14.17,32.133 32.6,32.133 6.14,0 12.76,-2.371 18.43,-6.153 19.84,-12.757 38.74,-21.73 60.47,-26.461 v 75.133 c -68.04,18.418 -101.58,44.409 -101.58,100.629 0,51.97 39.68,86.94 99.22,93.08 v 5.67 c 0,13.7 10.86,24.57 24.56,24.57" /></g></g></svg>