<?xml version="1.0" encoding="UTF-8" standalone="no"?>
<svg
   xmlns:dc="http://purl.org/dc/elements/1.1/"
   xmlns:cc="http://creativecommons.org/ns#"
   xmlns:rdf="http://www.w3.org/1999/02/22-rdf-syntax-ns#"
   xmlns:svg="http://www.w3.org/2000/svg"
   xmlns="http://www.w3.org/2000/svg"
   xmlns:sodipodi="http://sodipodi.sourceforge.net/DTD/sodipodi-0.dtd"
   xmlns:inkscape="http://www.inkscape.org/namespaces/inkscape"
   version="1.1"
   id="svg2"
   xml:space="preserve"
   width="333.33334"
   height="333.33334"
   viewBox="0 0 333.33334 333.33334"
   sodipodi:docname="reforco-caixa.eps"><metadata
     id="metadata8"><rdf:RDF><cc:Work
         rdf:about=""><dc:format>image/svg+xml</dc:format><dc:type
           rdf:resource="http://purl.org/dc/dcmitype/StillImage" /></cc:Work></rdf:RDF></metadata><defs
     id="defs6" /><sodipodi:namedview
     pagecolor="#ffffff"
     bordercolor="#666666"
     borderopacity="1"
     objecttolerance="10"
     gridtolerance="10"
     guidetolerance="10"
     inkscape:pageopacity="0"
     inkscape:pageshadow="2"
     inkscape:window-width="640"
     inkscape:window-height="480"
     id="namedview4" /><g
     id="g10"
     inkscape:groupmode="layer"
     inkscape:label="ink_ext_XXXXXX"
     transform="matrix(1.3333333,0,0,-1.3333333,0,333.33333)"><g
       id="g12"
       transform="scale(0.1)"><path
         d="M 2500,2500 H 0 V 0 h 2500 v 2500"
         style="fill:#e3eaf1;fill-opacity:1;fill-rule:evenodd;stroke:none"
         id="path14" /><path
         d="M 1769.11,1917.42 H 730.148 c -82.308,0 -146.828,-66.74 -146.828,-148.31 L 582.578,730.891 c 0,-81.571 65.262,-148.313 147.57,-148.313 H 1769.11 c 81.57,0 148.31,66.742 148.31,148.313 V 1769.11 c 0,81.57 -66.74,148.31 -148.31,148.31 z m 0,-889.89 h -296.64 c 0,-123.108 -100.11,-222.479 -222.47,-222.479 -122.36,0 -222.47,99.371 -222.47,222.479 H 730.148 v 741.58 H 1769.11 Z m -222.48,370.79 h -148.31 v 222.47 H 1101.68 V 1398.32 H 953.371 L 1250,1101.68 l 296.63,296.64"
         style="fill:#6c757d;fill-opacity:1;fill-rule:nonzero;stroke:none"
         id="path16" /></g></g></svg>
