<?xml version="1.0" encoding="UTF-8" standalone="no"?>
<svg
   xmlns:dc="http://purl.org/dc/elements/1.1/"
   xmlns:cc="http://creativecommons.org/ns#"
   xmlns:rdf="http://www.w3.org/1999/02/22-rdf-syntax-ns#"
   xmlns:svg="http://www.w3.org/2000/svg"
   xmlns="http://www.w3.org/2000/svg"
   viewBox="0 0 300 300"
   height="300"
   width="300"
   xml:space="preserve"
   id="svg2"
   version="1.1"><metadata
     id="metadata8"><rdf:RDF><cc:Work
         rdf:about=""><dc:format>image/svg+xml</dc:format><dc:type
           rdf:resource="http://purl.org/dc/dcmitype/StillImage" /></cc:Work></rdf:RDF></metadata><defs
     id="defs6" /><g
     transform="matrix(1.3333333,0,0,-1.3333333,0,300)"
     id="g10"><g
       transform="scale(0.1)"
       id="g12"><path
         id="path14"
         style="fill:#dce2ed;fill-opacity:1;fill-rule:nonzero;stroke:none"
         d="m 2050,1064.84 c 0,510.87 -414.13,925.04 -925.01,925.04 -68.46,0 -135.17,-7.52 -199.4,-21.63 v 62.15 c 0,39.87 -32.629,72.48 -72.469,72.48 -33.293,0 -61.449,-22.78 -69.859,-53.48 v -242.93 c 0,-38.01 -31.102,-69.12 -69.102,-69.12 -38.012,0 -69.121,31.11 -69.121,69.12 v 207.73 c -4.328,53.51 -49.379,95.97 -103.949,95.97 -57.43,0 -104.41,-46.97 -104.41,-104.39 V 1682.7 C 289.551,1518.91 200,1302.34 200,1064.84 c 0,-510.86 414.148,-925.012 925.01,-925.012 510.86,0 924.99,414.152 924.99,925.012" /><path
         id="path16"
         style="fill:#dce2ed;fill-opacity:1;fill-rule:evenodd;stroke:none"
         d="m 1792.79,2026.83 c 32.31,0 58.55,-26.23 58.55,-58.56 0,-32.31 -26.24,-58.54 -58.55,-58.54 -32.32,0 -58.56,26.23 -58.56,58.54 0,32.33 26.24,58.56 58.56,58.56" /><path
         id="path18"
         style="fill:#6c757d;fill-opacity:1;fill-rule:evenodd;stroke:none"
         d="m 942.309,1172.75 c -1.207,-80.57 -67.508,-144.93 -148.079,-143.71 -80.609,1.21 -144.91,67.5 -143.71,148.09 1.199,80.52 67.511,144.87 148.058,143.67 80.594,-1.19 144.934,-67.46 143.731,-148.05" /><path
         id="path20"
         style="fill:#6c757d;fill-opacity:1;fill-rule:evenodd;stroke:none"
         d="m 1599.48,1172.8 c -1.2,-80.57 -67.51,-144.92 -148.11,-143.72 -80.54,1.2 -144.87,67.51 -143.67,148.05 1.2,80.55 67.52,144.9 148.02,143.71 80.61,-1.23 144.96,-67.5 143.76,-148.04" /><path
         id="path22"
         style="fill:#ffffff;fill-opacity:1;fill-rule:nonzero;stroke:none"
         d="m 727.52,1181.71 c -1.961,0 -3.969,0.17 -5.93,0.62 -15.078,3.25 -24.621,18.09 -21.36,33.16 0.559,2.65 6.25,26.54 28.43,45.67 20.289,17.46 39.481,20.4 43.129,20.82 15.242,1.53 29.133,-9.3 30.859,-24.61 1.731,-15.29 -9.289,-29.1 -24.578,-30.83 h 0.032 c 0.296,0 -5.723,-1.36 -12.973,-7.62 -7.789,-6.72 -10.348,-15.14 -10.379,-15.23 -2.82,-13.08 -14.398,-21.98 -27.23,-21.98" /><path
         id="path24"
         style="fill:#ffffff;fill-opacity:1;fill-rule:nonzero;stroke:none"
         d="m 1380.15,1181.73 c -1.99,0 -3.99,0.2 -6.03,0.65 -15.03,3.32 -24.56,18.21 -21.23,33.25 0.55,2.65 6.33,26.4 28.43,45.48 20.26,17.55 39.53,20.47 43.18,20.87 15.88,1.66 29.13,-9.38 30.84,-24.64 1.67,-15.31 -9.35,-29.11 -24.67,-30.83 0.03,0 0.03,0 0.03,0 0.3,0 -5.64,-1.33 -12.83,-7.55 -7.84,-6.81 -10.46,-15.27 -10.5,-15.36 -2.87,-13.02 -14.42,-21.87 -27.22,-21.87" /><path
         id="path26"
         style="fill:#6c757d;fill-opacity:1;fill-rule:nonzero;stroke:none"
         d="m 1402.39,657.781 c -184.03,25.86 -370.78,25.86 -554.8,0 -19.141,-2.66 -37.09,10.239 -40.149,29.258 -3.082,19.031 10.528,37.02 30.45,39.813 190.459,26.769 383.739,26.769 574.199,0 19.89,-2.793 33.5,-20.782 30.44,-39.813 -3.1,-19.019 -21.03,-31.918 -40.14,-29.258" /></g></g></svg>