<?xml version="1.0" encoding="UTF-8" standalone="no"?>
<svg
   xmlns:dc="http://purl.org/dc/elements/1.1/"
   xmlns:cc="http://creativecommons.org/ns#"
   xmlns:rdf="http://www.w3.org/1999/02/22-rdf-syntax-ns#"
   xmlns:svg="http://www.w3.org/2000/svg"
   xmlns="http://www.w3.org/2000/svg"
   xmlns:sodipodi="http://sodipodi.sourceforge.net/DTD/sodipodi-0.dtd"
   xmlns:inkscape="http://www.inkscape.org/namespaces/inkscape"
   version="1.1"
   id="svg2"
   xml:space="preserve"
   width="440"
   height="320"
   viewBox="0 0 440 320"
   sodipodi:docname="sodexo.eps"><metadata
     id="metadata8"><rdf:RDF><cc:Work
         rdf:about=""><dc:format>image/svg+xml</dc:format><dc:type
           rdf:resource="http://purl.org/dc/dcmitype/StillImage" /></cc:Work></rdf:RDF></metadata><defs
     id="defs6" /><sodipodi:namedview
     pagecolor="#ffffff"
     bordercolor="#666666"
     borderopacity="1"
     objecttolerance="10"
     gridtolerance="10"
     guidetolerance="10"
     inkscape:pageopacity="0"
     inkscape:pageshadow="2"
     inkscape:window-width="640"
     inkscape:window-height="480"
     id="namedview4" /><g
     id="g10"
     inkscape:groupmode="layer"
     inkscape:label="ink_ext_XXXXXX"
     transform="matrix(1.3333333,0,0,-1.3333333,0,320)"><g
       id="g12"
       transform="scale(0.1)"><path
         d="M 2963.75,50 H 336.25 C 171.211,50 37.4219,185.488 37.4219,352.641 V 2047.37 c 0,167.14 133.7891,302.63 298.8281,302.63 h 2627.5 c 165.04,0 298.85,-135.49 298.85,-302.63 V 352.629 C 3262.6,185.488 3128.79,50 2963.75,50"
         style="fill:#2b3797;fill-opacity:1;fill-rule:nonzero;stroke:none"
         id="path14" /><path
         d="M 2963.75,50 H 336.25 C 171.211,50 37.4219,185.488 37.4219,352.641 V 2047.37 c 0,167.14 133.7891,302.63 298.8281,302.63 h 2627.5 c 165.04,0 298.85,-135.49 298.85,-302.63 V 352.629 C 3262.6,185.488 3128.79,50 2963.75,50"
         style="fill:none;stroke:#2b3797;stroke-width:55;stroke-linecap:round;stroke-linejoin:round;stroke-miterlimit:10;stroke-dasharray:none;stroke-opacity:1"
         id="path16" /><path
         d="m 1575.32,1087.8 -32.57,-162.691 c -14.34,-65.949 -54.08,-109.988 -135.24,-109.988 -93.15,0 -117.74,57.777 -97.3,139.078 28.92,115.331 123,149.681 265.11,133.601 m 146.71,232.58 -99.05,-6.31 -31.32,-159.3 c -37.86,1.34 -49.78,2.54 -94.3,2.54 -139.37,0 -261.01,-58.58 -293.15,-196.009 -28.95,-123.91 41.43,-220.063 194.92,-220.063 157.23,0 225.63,82.032 250.22,197.371 z M 647.59,1080.85 c -145.219,13.23 -270.16,1.18 -272.18,-48.14 -3.14,-74.03 239.352,-9.44 234.668,-145.64 C 603.27,686.961 266.07,733 182.629,758.461 l 15.141,59.398 c 143.871,-22.828 295.64,-24.718 298.96,54.621 3.571,84.321 -239.929,8.532 -234.23,145.09 4.262,101.72 156.449,156.58 405.559,119.99 z m 391.57,-136.12 c -20.95,-83.519 -87.199,-135.98 -166.07,-135.98 -82.481,0 -119.59,47.801 -97.469,135.98 20.981,83.53 87.981,139.59 166.828,139.59 78.811,0 117.671,-56.06 96.711,-139.59 m -83.988,207.97 c -144.422,0 -260.512,-83.52 -289.07,-207.97 -28.622,-124.511 49.16,-208.031 193.519,-208.031 144.349,0 260.489,83.52 289.039,208.031 28.62,124.42 -49.11,207.97 -193.488,207.97 M 2623.81,738.809 h -125.54 c -76.13,71.57 -221.75,236.043 -328.98,410.081 h 92.12 c 101.82,-140.5 362.4,-410.081 362.4,-410.081 m 131.55,814.531 57.77,120.41 16.49,-122.42 117.76,41.21 -82.3,-105.53 89.27,-69.16 -119.14,-9.2 -6.57,-127.32 -66.25,94.09 -97.33,-89.77 36.48,126.5 -114.82,15.57 111.75,63.65 -45.84,108.97 z m 244.81,-609.879 c -21.3,-84.84 -88.56,-138.121 -168.66,-138.121 -83.75,0 -121.5,48.558 -99.01,138.121 21.3,84.839 89.34,141.799 169.42,141.799 80.14,0 119.58,-56.96 98.25,-141.799 m -85.31,211.339 c -146.67,0 -264.57,-84.91 -293.64,-211.339 -29.04,-126.449 49.94,-211.313 196.59,-211.313 146.67,0 264.61,84.864 293.61,211.313 29.07,126.429 -49.89,211.339 -196.58,211.339"
         style="fill:#ffffff;fill-opacity:1;fill-rule:nonzero;stroke:none"
         id="path18" /><path
         d="m 2074.14,773.762 c 237.1,131.699 443.07,334.078 589.14,509.038 C 2558.26,954.09 2305.45,777.191 2074.14,773.762"
         style="fill:#ed1c24;fill-opacity:1;fill-rule:nonzero;stroke:none"
         id="path20" /><path
         d="m 1980.3,1091.72 c 45.41,0 70.14,-16.49 70.14,-47.98 0,-83.592 -162.96,-78.068 -234.84,-63.439 25.29,62.589 82.37,111.419 164.7,111.419 m 167.81,-43.44 c 0,60.63 -48.31,105.18 -157.92,105.18 -177.79,0 -293.3,-115.4 -293.3,-258.261 0,-92.258 76.6,-168.949 216.5,-168.949 96.4,0 160.77,47.512 160.77,47.512 -122.69,-13.141 -273.34,0 -273.34,131.238 0,5.211 0.28,10.422 0.71,15.609 167.38,-34.75 346.58,7.313 346.58,127.691"
         style="fill:#ffffff;fill-opacity:1;fill-rule:nonzero;stroke:none"
         id="path22" /></g></g></svg>
