<?xml version="1.0" encoding="UTF-8" standalone="no"?>
<svg
   xmlns:dc="http://purl.org/dc/elements/1.1/"
   xmlns:cc="http://creativecommons.org/ns#"
   xmlns:rdf="http://www.w3.org/1999/02/22-rdf-syntax-ns#"
   xmlns:svg="http://www.w3.org/2000/svg"
   xmlns="http://www.w3.org/2000/svg"
   xmlns:sodipodi="http://sodipodi.sourceforge.net/DTD/sodipodi-0.dtd"
   xmlns:inkscape="http://www.inkscape.org/namespaces/inkscape"
   version="1.1"
   id="svg2"
   xml:space="preserve"
   width="333.33334"
   height="333.33334"
   viewBox="0 0 333.33334 333.33334"
   sodipodi:docname="tela-preparo.eps"><metadata
     id="metadata8"><rdf:RDF><cc:Work
         rdf:about=""><dc:format>image/svg+xml</dc:format><dc:type
           rdf:resource="http://purl.org/dc/dcmitype/StillImage" /></cc:Work></rdf:RDF></metadata><defs
     id="defs6" /><sodipodi:namedview
     pagecolor="#ffffff"
     bordercolor="#666666"
     borderopacity="1"
     objecttolerance="10"
     gridtolerance="10"
     guidetolerance="10"
     inkscape:pageopacity="0"
     inkscape:pageshadow="2"
     inkscape:window-width="640"
     inkscape:window-height="480"
     id="namedview4" /><g
     id="g10"
     inkscape:groupmode="layer"
     inkscape:label="ink_ext_XXXXXX"
     transform="matrix(1.3333333,0,0,-1.3333333,0,333.33333)"><g
       id="g12"
       transform="scale(0.1)"><path
         d="M 2500,2500 H 0 V 0 h 2500 v 2500"
         style="fill:#e3eaf1;fill-opacity:1;fill-rule:evenodd;stroke:none"
         id="path14" /><path
         d="m 1834.82,686.93 c -0.16,11.84 4.83,37.179 6.17,70.199 1.32,32.621 -0.96,72.711 -15.26,114.742 -1.42,4.149 -2.91,8.309 -4.55,12.481 -35.45,89.468 -75.34,144.728 -92.32,165.348 -14.76,17.92 -32.87,22.03 -48.05,21.31 l -6.39,-0.61 c -7.4,-1 -13.74,-3 -18.16,-4.69 l -6.58,-2.88 -5.08,5.39 c -7.83,7.98 -23.52,22.74 -38.28,29.28 -11.9,5.25 -24.33,5.28 -35.56,3.06 -1.32,-0.25 -2.65,-0.56 -3.94,-0.88 -0.21,-0.06 -0.4,-0.12 -0.63,-0.15 l -7.12,-2.16 c -1.12,-0.37 -2.24,-0.78 -3.31,-1.18 -0.03,-0.02 -0.05,-0.04 -0.08,-0.04 -13.61,-5.22 -23,-12.1 -23.19,-12.23 h -0.02 c -10.67,10.41 -25.34,19.57 -48.13,22.39 -3.99,0.48 -7.81,0.63 -11.49,0.47 -3.67,-0.15 -7.19,-0.59 -10.52,-1.28 l -2.82,-0.62 c -1.24,-0.32 -2.44,-0.66 -3.64,-1.03 -17.79,-5.55 -30.13,-17.63 -36.1,-25.75 -0.81,-1.1 -1.53,-2.15 -2.09,-3.08 -7.65,-12.44 -4.97,-36.65 -4.97,-36.65 0,0 0,-0.03 0,-0.04 0.06,-0.26 1.28,-5.2 2.97,-12.1 -4.78,14.25 -11.1,32.98 -18.27,54.09 -13.95,41.06 -31.06,91.07 -46.23,134.46 -16.7,47.77 -31,87.51 -36.08,98.36 -17.36,37.15 -27.76,50.65 -52.46,44.02 -1.45,-0.38 -2.95,-0.83 -4.5,-1.35 -2.11,-0.72 -4.33,-1.57 -6.65,-2.54 -1.53,-0.64 -3.08,-1.31 -4.71,-2.05 -27.79,-12.76 -25.69,-41.64 -21.29,-71.12 2.09,-13.99 11.05,-52.38 21.39,-94.73 14.52,-59.57 31.72,-127.01 36.28,-145.49 4.29,-17.64 10.12,-39.54 16.15,-61.392 l 9.56,-34.207 c -7.92,7.27 -15.25,13.199 -22.06,17.989 -0.99,0.691 -1.93,1.359 -2.89,2 -0.03,0 -0.05,0.011 -0.08,0.031 -0.76,0.508 -1.52,0.988 -2.27,1.488 -43.7,28.16 -63.91,7.281 -71.71,-6.301 -0.6,-1.039 -1.11,-2.039 -1.59,-2.968 -0.91,-1.872 -1.55,-3.469 -1.97,-4.551 -0.38,-1.059 -0.56,-1.68 -0.56,-1.68 18.68,-21.98 35.03,-47.508 40.66,-75.398 0.21,-1.012 0.4,-2.012 0.6,-3.02 6.59,-33 12.07,-64.543 15.55,-85.57 l 2.99,-18.473 c 0.76,-4.758 1.15,-7.398 1.15,-7.398 0.54,-1.102 1.03,-2.2 1.58,-3.289 29.07,-61.129 33.13,-98.641 59.71,-122.813 27.09,-24.59 92.35,-64.547 130.96,-104.629 38.56,-39.969 66.52,-98.301 66.52,-98.301 21.07,-8.777 42.12,-13.75 62.84,-15.707 2.37,-0.23 4.75,-0.402 7.11,-0.55 142.05,-8.782 266.03,121.379 263.34,133.39 -3.13,13.879 -23.5,113.739 -23.93,138.399 z M 572.078,757.109 h 674.402 l -1.5,9.653 c -0.98,6.047 -2.37,14.758 -4.16,25.289 -3.56,21.07 -8.59,49.519 -14.49,78.801 -0.06,0.328 -0.16,0.668 -0.24,1.007 H 667.34 c -6.762,0 -12.231,5.469 -12.231,12.231 v 874.24 c 0,6.76 5.469,12.24 12.231,12.24 h 1165.32 c 6.76,0 12.24,-5.48 12.24,-12.24 V 884.09 c 0,-1.039 -0.17,-2.039 -0.41,-3 -0.05,-0.16 -0.1,-0.289 -0.15,-0.418 13.61,-38.934 17.46,-76.16 17.46,-107.731 0,-5.453 -0.13,-10.703 -0.32,-15.8 h 66.44 c 22.61,0 40.93,18.32 40.93,40.929 v 1046.29 c 0,22.6 -18.32,40.92 -40.93,40.92 H 572.078 c -22.609,0 -40.93,-18.32 -40.93,-40.92 V 798.051 c 0,-22.602 18.321,-40.942 40.93,-40.942 z M 1263.48,1472.1 h -0.86 c -48.27,-0.11 -95.33,-24.55 -122.42,-68.74 -41.49,-67.68 -20.31,-156.12 47.48,-197.68 11.85,-7.27 24.36,-12.59 37.14,-16.09 -1.01,4.22 -2.03,8.37 -3.01,12.46 -5.11,21.34 -9.61,40.61 -12.68,55.05 -1.66,7.77 -2.9,14.04 -3.68,18.97 l -0.15,0.96 c -1.47,9.91 -2.85,20.31 -2.86,31.03 0,6.28 0.47,12.7 1.85,19.2 1.37,6.48 3.69,13.1 7.43,19.33 2.47,4.14 5.59,8.08 9.25,11.6 4.88,4.69 10.75,8.61 17.3,11.61 6.11,2.79 11.88,5.1 17.66,6.76 5.79,1.66 11.65,2.7 17.7,2.71 6.06,0.02 12.35,-1.13 18.07,-3.59 5.72,-2.43 10.72,-6.02 14.91,-10.08 2.81,-2.7 5.28,-5.64 7.6,-8.74 3.08,-4.14 5.86,-8.61 8.58,-13.43 3.62,-6.46 7.12,-13.62 10.88,-21.63 1.05,-2.29 2.15,-4.88 3.43,-8.06 1.28,-3.17 2.73,-6.88 4.33,-11.11 3.21,-8.45 7.06,-18.97 11.39,-30.99 4.51,-12.54 9.54,-26.76 14.84,-41.91 6.58,7.02 12.56,14.8 17.78,23.31 41.52,67.73 20.24,156.31 -47.48,197.81 -23.3,14.29 -49.04,21.15 -74.48,21.25 z m 643.4,-119.14 c 17.72,0 32.08,-14.36 32.08,-32.07 0,-17.72 -14.35,-32.1 -32.08,-32.1 -17.73,0 -32.09,14.36 -32.09,32.1 0,17.73 14.38,32.07 32.09,32.07"
         style="fill:#6c757d;fill-opacity:1;fill-rule:nonzero;stroke:none"
         id="path16" /></g></g></svg>
