<?xml version="1.0" encoding="UTF-8" standalone="no"?>
<svg
   xmlns:dc="http://purl.org/dc/elements/1.1/"
   xmlns:cc="http://creativecommons.org/ns#"
   xmlns:rdf="http://www.w3.org/1999/02/22-rdf-syntax-ns#"
   xmlns:svg="http://www.w3.org/2000/svg"
   xmlns="http://www.w3.org/2000/svg"
   xmlns:sodipodi="http://sodipodi.sourceforge.net/DTD/sodipodi-0.dtd"
   xmlns:inkscape="http://www.inkscape.org/namespaces/inkscape"
   version="1.1"
   id="svg2"
   xml:space="preserve"
   width="440"
   height="320"
   viewBox="0 0 440 320"
   sodipodi:docname="ticket.eps"><metadata
     id="metadata8"><rdf:RDF><cc:Work
         rdf:about=""><dc:format>image/svg+xml</dc:format><dc:type
           rdf:resource="http://purl.org/dc/dcmitype/StillImage" /></cc:Work></rdf:RDF></metadata><defs
     id="defs6" /><sodipodi:namedview
     pagecolor="#ffffff"
     bordercolor="#666666"
     borderopacity="1"
     objecttolerance="10"
     gridtolerance="10"
     guidetolerance="10"
     inkscape:pageopacity="0"
     inkscape:pageshadow="2"
     inkscape:window-width="640"
     inkscape:window-height="480"
     id="namedview4" /><g
     id="g10"
     inkscape:groupmode="layer"
     inkscape:label="ink_ext_XXXXXX"
     transform="matrix(1.3333333,0,0,-1.3333333,0,320)"><g
       id="g12"
       transform="scale(0.1)"><path
         d="M 2963.75,50 H 336.25 C 171.211,50 37.4219,185.488 37.4219,352.641 V 2047.37 c 0,167.14 133.7891,302.63 298.8281,302.63 h 2627.5 c 165.04,0 298.85,-135.49 298.85,-302.63 V 352.629 C 3262.6,185.488 3128.79,50 2963.75,50"
         style="fill:#d52b1e;fill-opacity:1;fill-rule:nonzero;stroke:none"
         id="path14" /><path
         d="M 2963.75,50 H 336.25 C 171.211,50 37.4219,185.488 37.4219,352.641 V 2047.37 c 0,167.14 133.7891,302.63 298.8281,302.63 h 2627.5 c 165.04,0 298.85,-135.49 298.85,-302.63 V 352.629 C 3262.6,185.488 3128.79,50 2963.75,50"
         style="fill:none;stroke:#d52b1e;stroke-width:55;stroke-linecap:round;stroke-linejoin:round;stroke-miterlimit:10;stroke-dasharray:none;stroke-opacity:1"
         id="path16" /><path
         d="m 1421.4,955.391 c 42.45,0 77.47,11.679 104,24.41 L 1510.55,845.02 c -33.96,-16.961 -81.73,-25.461 -123.11,-25.461 -175.11,0 -296.07,113.55 -296.07,290.761 0,175.1 118.85,287.59 295.01,287.59 64.73,0 114.61,-12.73 165.54,-36.07 l -46.69,-125.22 c -24.41,14.85 -58.36,26.51 -94.44,26.51 -89.14,0 -147.51,-58.35 -147.51,-152.81 0,-93.38 61.55,-155.98 158.12,-154.929 z m 1279.84,113.549 h -420.25 c 15.92,-91.26 102.93,-126.28 178.29,-126.28 47.75,0 90.19,10.621 131.59,29.699 L 2579.2,847.16 c -46.7,-19.101 -102.93,-26.531 -159.18,-26.531 -186.77,0 -318.36,109.293 -318.36,295.001 0,161.31 117.78,282.28 298.19,282.28 203.75,0 305.62,-129.47 301.39,-328.97 z m 35.04,62.61 c -1.06,-160.241 64.73,-250.441 93.38,-300.32 h 163.3 l 1.5,6.071 1.74,7.238 c -49.68,69.941 -96.5,157.031 -96.5,280.651 v 127.34 h 91.26 l 22.28,124.16 h -111.42 v 199.5 l -165.54,-66.85 z M 1941.4,831.23 c -8.49,20.168 -21.23,53.059 -31.84,85.961 l -24.4,81.719 c -12.74,43.49 -29.72,61.54 -71.11,61.54 h -70.04 V 831.23 h -162.36 v 749.21 h 162.36 v -412.81 h 18.05 l 153.86,219.66 h 180.4 l -181.46,-229.2 h 9.56 c 72.15,0 93.38,-40.33 111.42,-99.77 l 30.78,-102.929 c 10.61,-38.2 32.9,-92.321 49.86,-124.161 z m -1065.459,0 h 165.529 v 556.06 H 875.941 Z M 324.23,1580.44 H 839.84 L 819.68,1431.87 H 604.25 V 831.23 H 428.078 v 600.64 H 286.762 c 9.789,50.52 22.328,100.07 37.468,148.57 z M 2405.15,1283.3 c -70.03,0 -114.6,-45.62 -128.4,-106.12 h 249.39 c -8.5,66.85 -55.19,106.12 -120.99,106.12 z M 875.941,1458.4 h 165.529 v 122.04 H 875.941 V 1458.4"
         style="fill:#ffffff;fill-opacity:1;fill-rule:evenodd;stroke:none"
         id="path18" /><path
         d="m 1421.4,955.391 c 42.45,0 77.47,11.679 104,24.41 L 1510.55,845.02 c -33.96,-16.961 -81.73,-25.461 -123.11,-25.461 -175.11,0 -296.07,113.55 -296.07,290.761 0,175.1 118.85,287.59 295.01,287.59 64.73,0 114.61,-12.73 165.54,-36.07 l -46.69,-125.22 c -24.41,14.85 -58.36,26.51 -94.44,26.51 -89.14,0 -147.51,-58.35 -147.51,-152.81 0,-93.38 61.55,-155.98 158.12,-154.929 z m 1279.84,113.549 h -420.25 c 15.92,-91.26 102.93,-126.28 178.29,-126.28 47.75,0 90.19,10.621 131.59,29.699 L 2579.2,847.16 c -46.7,-19.101 -102.93,-26.531 -159.18,-26.531 -186.77,0 -318.36,109.293 -318.36,295.001 0,161.31 117.78,282.28 298.19,282.28 203.75,0 305.62,-129.47 301.39,-328.97 z m 35.04,62.61 c -1.06,-160.241 64.73,-250.441 93.38,-300.32 h 163.3 l 1.5,6.071 1.74,7.238 c -49.68,69.941 -96.5,157.031 -96.5,280.651 v 127.34 h 91.26 l 22.28,124.16 h -111.42 v 199.5 l -165.54,-66.85 z M 1941.4,831.23 c -8.49,20.168 -21.23,53.059 -31.84,85.961 l -24.4,81.719 c -12.74,43.49 -29.72,61.54 -71.11,61.54 h -70.04 V 831.23 h -162.36 v 749.21 h 162.36 v -412.81 h 18.05 l 153.86,219.66 h 180.4 l -181.46,-229.2 h 9.56 c 72.15,0 93.38,-40.33 111.42,-99.77 l 30.78,-102.929 c 10.61,-38.2 32.9,-92.321 49.86,-124.161 z m -1065.459,0 h 165.529 v 556.06 H 875.941 Z M 324.23,1580.44 H 839.84 L 819.68,1431.87 H 604.25 V 831.23 H 428.078 v 600.64 H 286.762 c 9.789,50.52 22.328,100.07 37.468,148.57 z M 2405.15,1283.3 c -70.03,0 -114.6,-45.62 -128.4,-106.12 h 249.39 c -8.5,66.85 -55.19,106.12 -120.99,106.12 z M 875.941,1458.4 h 165.529 v 122.04 H 875.941 Z"
         style="fill:none;stroke:#d52b1e;stroke-width:10;stroke-linecap:butt;stroke-linejoin:round;stroke-miterlimit:10;stroke-dasharray:none;stroke-opacity:1"
         id="path20" /></g></g></svg>
