<?xml version="1.0" encoding="UTF-8" standalone="no"?>
<svg
   xmlns:dc="http://purl.org/dc/elements/1.1/"
   xmlns:cc="http://creativecommons.org/ns#"
   xmlns:rdf="http://www.w3.org/1999/02/22-rdf-syntax-ns#"
   xmlns:svg="http://www.w3.org/2000/svg"
   xmlns="http://www.w3.org/2000/svg"
   viewBox="0 0 333.33334 333.33334"
   height="333.33334"
   width="333.33334"
   xml:space="preserve"
   id="svg2"
   version="1.1"><metadata
     id="metadata8"><rdf:RDF><cc:Work
         rdf:about=""><dc:format>image/svg+xml</dc:format><dc:type
           rdf:resource="http://purl.org/dc/dcmitype/StillImage" /></cc:Work></rdf:RDF></metadata><defs
     id="defs6" /><g
     transform="matrix(1.3333333,0,0,-1.3333333,0,333.33333)"
     id="g10"><g
       transform="scale(0.1)"
       id="g12"><path
         id="path14"
         style="fill:#e3eaf1;fill-opacity:1;fill-rule:evenodd;stroke:none"
         d="M 2500,2500 H 0 V 0 h 2500 v 2500" /><path
         id="path16"
         style="fill:#6c757d;fill-opacity:1;fill-rule:evenodd;stroke:none"
         d="m 2092.35,715.891 c 97.07,0 256.73,-1.032 287,118.968 -90.07,40.313 -143.75,131.582 -142.37,423.371 -3.03,106.73 -10.59,204.68 -43.27,286.46 -62.37,154.74 -225.07,210.6 -369.59,180.81 -144.52,29.79 -307.23,-26.07 -369.59,-180.81 -32.67,-81.78 -40.24,-179.73 -43.28,-286.46 1.39,-291.789 -52.3,-383.058 -142.34,-423.371 30.27,-120 189.9,-118.968 286.97,-118.968 h 536.47" /><path
         id="path18"
         style="fill:#6c757d;fill-opacity:1;fill-rule:evenodd;stroke:none"
         d="m 2026.96,905.309 -405.66,-0.02 -21.24,-81.738 c -133.85,-63.571 -420,-148.742 -445.13,-298 L 1091.05,145.59 h 1466.14 l -63.88,379.961 c -25.13,149.258 -311.27,234.41 -445.11,298 l -21.24,81.758" /><path
         id="path20"
         style="fill:#e3eaf1;fill-opacity:1;fill-rule:evenodd;stroke:none"
         d="m 1611.33,759.078 c 5.55,5.402 31.12,45.641 37.98,55.621 44.66,-35.019 118.31,-81.918 174.81,-84.359 56.5,2.441 130.15,49.34 174.81,84.359 l 38,-55.621 -137.38,-153 h -150.12 l -138.1,153" /><path
         id="path22"
         style="fill:#e3eaf1;fill-opacity:1;fill-rule:evenodd;stroke:none"
         d="m 2085.48,1256.86 c 3.05,5.5 6.52,12.99 10.15,20.63 12.5,26.34 30.99,24.6 31.41,-8.06 0.92,-67.06 -6.15,-153.97 -26.01,-212.31 -1.69,-4.83 -4.5,-8.7 -8.41,-11.62 -11.58,-8.5 -18.94,-11.38 -21.93,-26.43 -20.25,-101.281 -80.79,-160.898 -165.14,-211.672 -70.29,-42.277 -95.25,-42.019 -165.41,0.274 -104.74,63.109 -158.97,137.18 -180.92,245.978 -53.03,262.72 229.88,121.63 408.27,327.17 26.91,19.2 48,26.16 65,-23.39 9.71,-28.27 18.98,-59.86 26.61,-93.19 3.93,-17.19 16.19,-25.72 26.38,-7.38" /><path
         id="path24"
         style="fill:#6c757d;fill-opacity:1;fill-rule:evenodd;stroke:none"
         d="m 1105.37,956.5 c 48.81,65.85 86.42,140.38 103.98,208.75 l 33.02,19.3 c 44.11,120.77 58.03,228.16 52.63,327.06 l -27.9,22.34 c 15.4,74.01 1.16,172.99 -2.91,248.79 -52.13,397.89 -868.749,397.89 -920.901,0 -4.039,-75.8 -18.277,-174.78 -2.879,-248.79 l -27.898,-22.34 c -5.403,-98.9 8.488,-206.29 52.617,-327.06 l 33.019,-19.3 c 17.571,-68.37 55.18,-142.93 104.024,-208.781 L 456.922,853.57 -55.2617,654.172 C -132.969,624.961 -182.121,560.551 -195.949,478.359 L -276.371,0 H 1883.85 l -80.42,478.359 c -13.83,82.192 -62.95,146.602 -140.66,175.813 L 1150.61,853.539 1105.37,956.5" /><path
         id="path26"
         style="fill:#e3eaf1;fill-opacity:1;fill-rule:evenodd;stroke:none"
         d="m 885.012,857.91 c 113.769,52.18 222.488,208.22 252.708,325.76 l 7.67,29.84 36.14,21.15 c 26.14,78.21 41.04,158.19 40.57,240.55 l -36.67,29.43 9.24,44.41 c 13.47,64.69 -0.28,158.97 -4.15,226.61 -44.19,308.45 -729.372,308.45 -773.532,0 -3.898,-67.64 -17.617,-161.92 -4.148,-226.61 l 9.238,-44.41 -36.668,-29.43 c -0.469,-82.36 14.43,-162.34 40.57,-240.55 l 36.11,-21.15 7.691,-29.84 c 30.231,-117.54 138.918,-273.58 252.688,-325.76 53.41,-9.898 109.16,-9.898 162.543,0" /><path
         id="path28"
         style="fill:#e3eaf1;fill-opacity:1;fill-rule:evenodd;stroke:none"
         d="m 1052.93,810.09 -17.26,66.488 c -40.209,-39.156 -84.068,-70.75 -128.459,-89.527 -67.813,-13.77 -139.133,-13.77 -206.941,0 -44.391,18.777 -88.231,50.371 -128.411,89.5 L 554.578,810.09 675.852,690.73 h 255.777 l 121.301,119.36" /><path
         id="path30"
         style="fill:#6c757d;fill-opacity:1;fill-rule:evenodd;stroke:none"
         d="m 340.41,1533.95 c -3.48,92.87 -10.012,197.99 11.281,289.78 3.489,14.99 56.668,125.31 98.02,157.53 70.711,55.2 261.699,145.16 446.078,91.59 100.34,-0.25 136.931,-26.8 219.421,-72.1 63.06,-34.59 102.72,-73.17 124.2,-133.49 45.66,-128.16 34.44,-217.07 27.69,-333.31 l -81.67,-26.8 -33.46,-101.66 -25.03,-7.24 c -7.16,48.56 12.64,179.4 -43.67,224.45 -8.79,7.05 -93.559,-30.03 -106.918,-26.11 -48.422,14.22 -86.282,30.18 -86.59,29.79 -26.024,-30.56 -35.313,-36.92 -45.883,-34.65 l -166.258,35.84 c -8.473,1.82 -25.891,5.42 -39.691,10.12 -8.821,3.01 -26.078,-31.67 -33.739,-33.22 -12.312,-2.48 -92.453,28.85 -102.8,23.71 -41.121,-20.39 -33.602,-182.5 -33.379,-220.09 l -24.91,9.13 -26.692,85.07 -76,31.66" /><path
         id="path32"
         style="fill:#6c757d;fill-opacity:1;fill-rule:evenodd;stroke:none"
         d="M 2557.19,240.129 H -151.141 V -109.512 H 2557.19 v 349.641" /></g></g></svg>