<?xml version="1.0" encoding="UTF-8" standalone="no"?>
<svg
   xmlns:dc="http://purl.org/dc/elements/1.1/"
   xmlns:cc="http://creativecommons.org/ns#"
   xmlns:rdf="http://www.w3.org/1999/02/22-rdf-syntax-ns#"
   xmlns:svg="http://www.w3.org/2000/svg"
   xmlns="http://www.w3.org/2000/svg"
   xmlns:sodipodi="http://sodipodi.sourceforge.net/DTD/sodipodi-0.dtd"
   xmlns:inkscape="http://www.inkscape.org/namespaces/inkscape"
   version="1.1"
   id="svg2"
   xml:space="preserve"
   width="440"
   height="320"
   viewBox="0 0 440 320"
   sodipodi:docname="vr.eps"><metadata
     id="metadata8"><rdf:RDF><cc:Work
         rdf:about=""><dc:format>image/svg+xml</dc:format><dc:type
           rdf:resource="http://purl.org/dc/dcmitype/StillImage" /></cc:Work></rdf:RDF></metadata><defs
     id="defs6" /><sodipodi:namedview
     pagecolor="#ffffff"
     bordercolor="#666666"
     borderopacity="1"
     objecttolerance="10"
     gridtolerance="10"
     guidetolerance="10"
     inkscape:pageopacity="0"
     inkscape:pageshadow="2"
     inkscape:window-width="640"
     inkscape:window-height="480"
     id="namedview4" /><g
     id="g10"
     inkscape:groupmode="layer"
     inkscape:label="ink_ext_XXXXXX"
     transform="matrix(1.3333333,0,0,-1.3333333,0,320)"><g
       id="g12"
       transform="scale(0.1)"><path
         d="M 2963.75,50 H 336.25 C 171.211,50 37.4219,185.488 37.4219,352.641 V 2047.37 c 0,167.14 133.7891,302.63 298.8281,302.63 h 2627.5 c 165.04,0 298.85,-135.49 298.85,-302.63 V 352.629 C 3262.6,185.488 3128.79,50 2963.75,50"
         style="fill:#119c4a;fill-opacity:1;fill-rule:nonzero;stroke:none"
         id="path14" /><path
         d="M 2963.75,50 H 336.25 C 171.211,50 37.4219,185.488 37.4219,352.641 V 2047.37 c 0,167.14 133.7891,302.63 298.8281,302.63 h 2627.5 c 165.04,0 298.85,-135.49 298.85,-302.63 V 352.629 C 3262.6,185.488 3128.79,50 2963.75,50"
         style="fill:none;stroke:#0f9c4a;stroke-width:55;stroke-linecap:round;stroke-linejoin:round;stroke-miterlimit:10;stroke-dasharray:none;stroke-opacity:1"
         id="path16" /><path
         d="M 2474.4,673.961 H 2029.44 L 1875.61,1252 c 0,0 95.49,0 110.12,0 21.92,-2.08 106.33,31.21 106.08,114.33 -0.25,75.42 -69.29,73.84 -93.58,74.88 -34.29,0 -137.21,0 -137.21,0 L 1563.69,673.961 H 1122.9 L 825.602,1484.88 h 363.838 l 143.5,-430.42 170.45,671.58 h 651.84 c 176.25,0 319.17,-150.33 319.17,-335.75 0,-125.91 -65.88,-235.66 -163.3,-293.12 l 163.3,-423.209"
         style="fill:#ffffff;fill-opacity:1;fill-rule:nonzero;stroke:none"
         id="path18" /></g></g></svg>
